<?xml version="1.0" encoding="UTF-8" standalone="no"?>
<!DOCTYPE svg PUBLIC "-//W3C//DTD SVG 1.1//EN" "http://www.w3.org/Graphics/SVG/1.1/DTD/svg11.dtd">
<svg width="100%" height="100%" viewBox="0 0 500 500" version="1.1" xmlns="http://www.w3.org/2000/svg" xmlns:xlink="http://www.w3.org/1999/xlink" xml:space="preserve" xmlns:serif="http://www.serif.com/" style="fill-rule:evenodd;clip-rule:evenodd;stroke-linejoin:round;stroke-miterlimit:2;">
    <g transform="matrix(0.700775,0,0,0.700775,-0.000701,0)">
        <circle cx="356.749" cy="356.748" r="356.748" style="fill:rgb(52,224,161);"/>
    </g>
    <g transform="matrix(0.700775,0,0,0.700775,-0.000701,0)">
        <path d="M577.095,287.152L620.144,240.316L524.679,240.316C476.887,207.67 419.169,188.657 356.748,188.657C294.406,188.657 236.849,207.711 189.136,240.316L93.432,240.316L136.481,287.152C110.094,311.227 93.552,345.906 93.552,384.411C93.552,457.076 152.466,515.989 225.131,515.989C259.65,515.989 291.099,502.676 314.577,480.912L356.749,526.831L398.921,480.952C422.399,502.716 453.808,515.989 488.327,515.989C560.992,515.989 619.985,457.076 619.985,384.411C620.024,345.866 603.483,311.188 577.095,287.152ZM225.17,473.458C175.982,473.458 136.123,433.599 136.123,384.411C136.123,335.223 175.983,295.363 225.17,295.363C274.357,295.363 314.217,335.223 314.217,384.411C314.217,433.599 274.357,473.458 225.17,473.458ZM356.788,381.82C356.788,323.225 314.178,272.922 257.935,251.437C288.348,238.721 321.711,231.666 356.748,231.666C391.785,231.666 425.187,238.721 455.601,251.437C399.399,272.962 356.788,323.226 356.788,381.82ZM488.367,473.458C439.179,473.458 399.319,433.599 399.319,384.411C399.319,335.223 439.179,295.363 488.367,295.363C537.555,295.363 577.414,335.223 577.414,384.411C577.414,433.599 537.554,473.458 488.367,473.458ZM488.367,337.694C462.577,337.694 441.69,358.581 441.69,384.371C441.69,410.16 462.577,431.047 488.367,431.047C514.156,431.047 535.043,410.16 535.043,384.371C535.042,358.621 514.156,337.694 488.367,337.694ZM271.846,384.411C271.846,410.2 250.959,431.087 225.17,431.087C199.381,431.087 178.494,410.2 178.494,384.411C178.494,358.621 199.381,337.734 225.17,337.734C250.959,337.694 271.846,358.621 271.846,384.411Z" style="fill-rule:nonzero;"/>
    </g>
</svg>
