<?xml version="1.0" encoding="UTF-8" standalone="no"?><!DOCTYPE svg PUBLIC "-//W3C//DTD SVG 1.1//EN" "http://www.w3.org/Graphics/SVG/1.1/DTD/svg11.dtd"><svg width="100%" height="100%" viewBox="0 0 1024 580" version="1.1" xmlns="http://www.w3.org/2000/svg" xmlns:xlink="http://www.w3.org/1999/xlink" xml:space="preserve" xmlns:serif="http://www.serif.com/" style="fill-rule:evenodd;clip-rule:evenodd;stroke-linecap:round;stroke-linejoin:round;stroke-miterlimit:1.5;"><g><rect x="0" y="0" width="1024" height="579.969" style="stroke:#fff;stroke-width:2.69px;"/><path d="M879.763,170.432c-10.913,10.988 -22.103,20.192 -23.631,26.044c-1.728,0.58 -3.236,0.223 -4.598,-0.752c-1.829,-11.898 -1.422,-21.796 4.347,-32.578c-8.156,3.013 -16.312,9.995 -24.468,20.601c-2.294,0.708 -4.27,0.465 -6.117,-0.167c-4.099,-2.907 -6.353,-7.473 -8.212,-12.394l-15.837,20.62l-8.128,0c-2.327,-3.453 -2.952,-7.899 -2.598,-12.916c3.147,-18.092 7.215,-31.707 19.525,-40.197l-9.385,36.931c8.935,-2.907 18.438,-10.688 28.491,-23.197l3.352,17.586c14.194,-9.05 26.363,-21.377 35.865,-38.019l-23.239,-1.495c4.006,-3.361 5.977,-7.566 6.407,-12.49l18.173,-0.67c8.169,-3.428 14.121,-8.826 18.268,-15.827c0.127,7.18 -0.103,14.663 5.95,16.832c0.327,4.831 -0.744,8.931 -5.112,11.305c-3.436,-0.653 -6.871,0.234 -10.307,2.261c-7.663,14.873 -13.51,30.181 -15.586,46.394c5.281,-5.177 10.891,-7.831 16.843,-7.872Z" style="fill:#fff;"/><g><path d="M551.656,257.015l26.088,-0l-1.637,87.244c0,10.384 -16.514,20.449 -38.871,20.449c-22.357,0 -42.144,-10.066 -42.144,-20.449l1.637,-87.244l26.088,0l0,77.037c0,8.57 6.461,12.512 14.419,12.512c7.958,0 14.419,-3.943 14.419,-12.512l0,-77.037Z" style="fill:#fff;"/><path d="M745.571,257.015l36.142,107.693l-27.413,0l-5.728,-15.885l-29.732,0l-5.728,15.885l-27.413,0l36.142,-107.693l23.731,0Zm-2.591,72.141l-9.274,-37.67l-9.274,37.67l18.548,0Z" style="fill:#fff;"/><path d="M450.767,257.015l36.142,107.693l-27.413,0l-5.728,-15.885l-29.732,0l-5.728,15.885l-27.413,0l36.142,-107.693l23.731,0Zm-2.591,72.141l-9.274,-37.67l-9.274,37.67l18.548,0Z" style="fill:#fff;"/><path d="M911.199,364.708l0,-85.187l-22.677,0l0,-22.506l71.198,0l0,22.412l-22.717,0l0,85.281l-25.804,0Z" style="fill:#fff;"/><path d="M347.229,364.708l0,-85.187l-22.677,0l0,-22.506l71.198,0l0,22.412l-22.717,0l0,85.281l-25.804,0Z" style="fill:#fff;"/><path d="M317.067,281.887l0,-16.865c-8.084,-4.887 -17.346,-7.057 -27.138,-8.008c-28.707,0.732 -41.275,17.715 -40.52,30.575c0.97,16.51 44.897,37.806 44.897,46.59c0,8.784 -25.969,12.54 -43.271,5.945l0,16.379c8.51,6.197 18.141,9.438 29.639,7.766c19.12,-1.501 31.089,-8.53 39.964,-20.384c2.462,-6.766 2.447,-13.845 0,-21.233c-12.198,-14.693 -26.189,-25.147 -41.365,-32.799c-1.212,-0.611 -2.053,-1.308 -2.372,-2.06c-0.319,-0.752 -0.178,-1.619 0.459,-2.453c6.937,-9.091 22.055,-9.188 39.706,-3.455Z" style="fill:#fff;"/><path d="M627.681,364.708l-28.422,0l0,-107.693l49.127,-0c29.737,15.366 37.458,36.861 6.416,61.185l26.502,45.951l-30.903,0l-23.764,-48.606l1.045,49.163Zm-1.703,-60.93l16.216,-0.06c10.443,-10.008 9.825,-19.258 0,-29.368l-16.216,0l0,29.429Z" style="fill:#fff;"/><path d="M109.831,364.708l-28.422,0l0,-107.693l49.127,-0c29.737,15.366 37.458,36.861 6.416,61.185l26.502,45.951l-30.903,0l-23.764,-48.606l1.045,49.163Zm-1.703,-60.93l16.216,-0.06c10.443,-10.008 9.825,-19.258 0,-29.368l-16.216,0l0,29.429Z" style="fill:#fff;"/><path d="M180.721,364.708l0,-107.693l54.173,0l0,21.27l-27.087,0l0,22.572l27.087,0l0,20.772l-27.234,0l0.147,23.389l27.087,0l0,19.689l-54.173,0Z" style="fill:#fff;"/><path d="M793.813,364.708l0,-107.693l25.565,0l32.157,58.755l0,-58.755l26.566,0l0,107.693l-26.566,0l-31.738,-59.559l0,59.559l-25.984,0Z" style="fill:#fff;"/></g><g><path d="M996.828,136.496l0,304.754" style="fill:none;stroke:#fff;stroke-width:7.25px;"/><path d="M914.692,548.134l-804.96,0" style="fill:none;stroke:#fff;stroke-width:7.25px;"/><path d="M25.923,441.25l0,-304.754" style="fill:none;stroke:#fff;stroke-width:7.25px;"/><path d="M109.732,27.124l804.96,0" style="fill:none;stroke:#fff;stroke-width:7.25px;"/></g><path d="M735.79,191.608c-11.622,1.474 -16.182,-5.311 -14.807,-19.037c2.552,-32.585 12.204,-63.204 29.716,-85.15c0.648,-0.403 1.275,-0.403 1.843,0.689c3.658,3.977 7.421,5.582 12.044,0.223c3.759,-5.8 5.336,-5.794 11.547,-5.819c13.645,4.949 20.842,15.76 19.773,34.085c-6.584,42.02 -22.631,69.468 -60.116,75.009Zm5.622,-14.021c23.602,-7.504 33.533,-26.802 39.853,-52.583c2.915,-14.293 -11.919,-24.882 -13.413,-23.894c-9.63,2.124 -19.155,11.029 -25.842,20.144c-2.268,2.266 -11.184,32.592 -10.642,42.987c-0.933,9.622 2.16,14.378 10.044,13.345Z" style="fill:#fff;"/><path d="M349.25,451.769c-4.562,10.63 -14.032,16.258 -28.893,12.629c-4.678,2.13 -6.918,7.173 -7.877,13.734l-9.821,0.234c-0.217,-7.93 0.936,-14.706 3.436,-20.35c-13.995,-8.231 -19.882,-23.465 -22.29,-41.704c-0.034,-13.112 5.038,-18.524 13.156,-19.345c10.84,4.733 19.744,11.637 24.72,22.946c7.798,-12.158 15.34,-16.267 22.709,-14.99c-11.503,16.38 -20.216,32.294 -19.838,51.536c11.364,0.331 18.772,-1.731 24.698,-4.69Zm-39.103,-3.039c5.195,-6.917 6.763,-16.343 6.38,-27.12c-3.847,-8.337 -10.041,-13.78 -18.179,-16.829c-6.227,1.15 -8.45,6.532 -7.24,15.543c3.152,12.869 9.308,22.54 19.039,28.406Z" style="fill:#fff;"/><path d="M443.308,437.666c-1.324,-11.616 8.631,-25.791 8.631,-32.147c0,-6.356 -9.802,-7.99 -18.687,-4.639c-14.621,9.716 -20.216,23.43 -19.106,40.113c-0.092,13.258 4.885,21.987 16.592,24.704c21.565,-5.135 40.659,-19.367 58.825,-37.015c4.112,-1.936 7.887,-1.686 11.313,0.837c-12.554,10.003 -22.827,20.122 -28.407,30.483l20.865,-14.069c0.429,5.419 1.109,10.699 4.776,14.32c12.372,-6.556 20.952,-16.763 28.491,-27.97l0.67,-6.867l-15.272,-0.084l-0,-8.291l17.451,-0.837c4.198,-0.85 5.105,-8.087 7.892,-11.252l6.604,-1.059c0.101,5.705 0.821,10.792 4.776,12.645l-0.203,8.648c-4.151,-0.144 -8.095,0.68 -11.421,4.38c0,0 -8.674,27.596 -6.209,35.201c4.68,-1.452 11.442,-7.877 14.062,-13.559c2.341,-8.964 5.175,-14.929 12.092,-20.806c3.554,-2.948 7.301,-3.257 11.313,0.084c4.172,4.891 5.557,8.051 1.148,12.599c-5.964,2.726 -10.738,7.296 -14.413,13.566c1.923,4.813 6.001,6.897 13.072,5.192l22.793,-26.044c7.026,-0.128 12.35,2.147 15.228,7.879l0.587,14.069l-3.938,7.956c2.123,1.674 4.246,1.146 6.369,-0.754c7.881,-4.759 15.638,-19.68 15.638,-19.68l4.945,-0.31c-0.123,8.749 2.835,15.344 9.416,19.403c13.15,-3.734 23.186,-13.071 31.759,-25.039l9.385,4.522l-7.793,21.69l21.284,-16.079l12.477,13.44c1.508,-1.509 3.469,-2.839 6.982,-3.058c5.029,-10.941 13.122,-21.232 22.871,-31.172c6.449,-1.083 10.329,1.22 10.056,8.998c-7.692,5.322 -14.593,12.349 -20.425,21.673c-0.152,6.661 1.574,11.721 6.285,14.236l12.674,-8.27l1.99,4.92l-7.751,8.14l6.913,16.041c-3.694,13.573 -11.644,22.65 -25.349,25.646c-6.581,-0.851 -11.117,-4.357 -13.407,-10.782c3.213,-10.636 9.425,-18.491 18.645,-23.553c-5.343,-5.111 -9.078,-11.445 -11.417,-18.842c-4.956,1.659 -8.641,4.8 -11.879,8.461c-3.347,-5.501 -7.701,-9.853 -13.051,-13.067c-10.363,4.887 -18.389,12.56 -25.034,21.878l-5.342,-8.06l6.494,-19.889c-7.873,8.744 -17.224,15.556 -28.072,20.412c-5.308,-1.961 -7.627,-10.611 -10.417,-14.643c-1.18,-1.706 -3.614,1.471 -4.499,-0.242l-26.354,16.64c-4.055,0.019 -5.357,-2.189 -5.656,-5.209c7.009,-7.921 8.861,-17.471 3.971,-25.392l-26.597,23.089c-6.147,3.521 -11.928,3.227 -17.388,-0.419l-5.761,-8.165l-19.064,16.096c-2.703,-0.182 -4.166,-1.648 -4.818,-3.953l1.99,-25.332c-6.901,8.787 -15.365,15.765 -25.663,20.622c-6.653,-1.005 -9.813,-4.454 -11.103,-9.212c-7.689,2.545 -14.814,7.904 -21.787,14.027c-4.693,-0.509 -5.793,-4.609 -5.656,-9.945c-8.507,5.693 -18.571,9.397 -30.296,10.981c-17.914,-1.015 -27.763,-16.587 -27.763,-30.818c0,-15.8 19.911,-53.121 43.517,-56.745c11.409,0.843 18.155,6.928 16.692,22.242c-1.255,10.553 -4.651,19.737 -10.374,27.432c-2.025,1.36 -4.423,1.32 -7.163,0Zm273.307,73.251c4.636,1.192 9.156,-0.254 13.558,-4.331c3.838,-4.983 4.481,-10.214 3.046,-15.607c-4.512,-1.101 -8.529,0.528 -11.927,5.574c-3.07,4.516 -7.084,13.745 -4.677,14.364Zm-163.392,-62.182c2.367,0.681 4.674,-0.145 6.921,-2.474c1.959,-2.846 2.311,-7.96 1.555,-8.915c-0.756,-0.955 -4.354,0.302 -6.088,3.184c-1.567,2.58 -3.616,7.851 -2.387,8.205Z" style="fill:#fff;"/><path d="M625.435,432.686c-1.944,-0.506 1.297,-8.05 3.776,-11.742c2.744,-4.125 8.435,-5.923 9.63,-4.556c1.195,1.367 0.639,8.685 -2.459,12.758c-3.554,3.333 -7.203,4.514 -10.946,3.54Z" style="fill:#fff;"/><path d="M538.155,125.52c-2.507,-0.607 1.673,-9.66 4.869,-14.09c3.539,-4.95 10.878,-7.108 12.419,-5.468c1.541,1.64 0.824,10.422 -3.172,15.31c-4.583,3.999 -9.289,5.417 -14.116,4.248Z" style="fill:#fff;"/><path d="M953.948,31.389c1.87,-1.853 2.959,-3.886 3.61,-6.02c1.246,-7.963 -3.419,-11.568 -10.564,-13.347c-7.88,1.3 -12.79,5.517 -12.657,14.685c-0.361,7.081 2.726,11.958 10.94,13.56c3.456,-0.113 6.741,0.161 9.39,1.88l-0.784,8.624c0.504,5.27 1.955,10.186 4.802,14.578c5.267,2.526 10.914,3.023 16.84,2.037c-4.082,-1.193 -7.45,-3.262 -9.921,-6.431c-1.961,-7.044 -2.193,-13.718 -0.054,-19.884c2.666,-8.309 7.843,-12.286 15.177,-12.546c11.352,3.979 18.532,11.17 18.717,23.747c0.116,3.206 -7.633,12.383 -7.633,12.383c0,0 4.226,-10.824 3.565,-13.292c-1.819,-6.786 -5.671,-10.511 -11.431,-11.364c-4.543,0.14 -7.185,2.154 -8.25,6.592c-0.641,2.553 0.28,6.509 0.936,6.539c0,0 4.185,-9.941 7.098,-8.282c3.973,1.144 6.523,3.438 6.652,7.692c-1.229,2.662 -2.877,5.022 -5.418,6.742c-1.01,0.684 -3.052,4.379 -2.926,5.686c0.586,6.106 -0.195,11.923 -2.972,17.317c0.033,4.624 1.675,7.163 5.095,7.396c2.899,-2.027 5.905,-3.47 9.171,-3.484c2.148,1.501 2.492,3.934 1.984,6.807c-1.728,3.546 -4.725,7.514 -8.742,7.493c-4.913,-0.353 -8.099,-2.54 -10.082,-6.003l-4.183,-11.148c-1.282,2.508 -1.02,3.828 -0.287,10.087c3.006,5.555 5.997,10.112 11.657,12.649c6.146,0.475 11.527,3.752 15.75,11.27c1.322,-5.92 0.152,-10.223 -3.469,-13.307c0.222,-6.931 3.238,-11.477 7.854,-14.657c-2.221,-6.689 -7.863,-9.39 -15.576,-9.675c-1.275,-1.999 -1.126,-3.834 -0.022,-5.558c10.41,-2.694 14.738,-10.618 18.009,-23.008c-1.93,-12.278 -7.062,-20.182 -19.06,-27.613c-7.219,-0.764 -12.945,-1.81 -19.89,0.261c-4.982,3.12 -9.428,7.959 -11.939,13.182l-10.107,-0.778c-3.813,-1.646 -6.202,-4.578 -7.579,-8.424c0.047,-7.084 3.144,-10.131 8.814,-9.769c3.672,0.461 6.313,2.031 6.892,5.817c-0.895,2.101 -2.398,3.573 -4.558,4.363c-2.575,-0.696 -4.486,-2.257 -6.123,-4.171c0.115,2.687 1.006,5.389 3.652,8.123c2.613,0.277 5.15,0.003 7.623,-0.75Z" style="fill:#fff;"/><path d="M953.948,543.626c1.87,1.853 2.959,3.886 3.61,6.02c1.246,7.963 -3.419,11.568 -10.564,13.347c-7.88,-1.3 -12.79,-5.517 -12.657,-14.685c-0.361,-7.081 2.726,-11.958 10.94,-13.56c3.456,0.113 6.741,-0.161 9.39,-1.88l-0.784,-8.624c0.504,-5.27 1.955,-10.186 4.802,-14.578c5.267,-2.526 10.914,-3.023 16.84,-2.037c-4.082,1.193 -7.45,3.262 -9.921,6.431c-1.961,7.044 -2.193,13.718 -0.054,19.884c2.666,8.309 7.843,12.286 15.177,12.546c11.352,-3.979 18.532,-11.17 18.717,-23.747c0.116,-3.206 -7.633,-12.383 -7.633,-12.383c0,0 4.226,10.824 3.565,13.292c-1.819,6.786 -5.671,10.511 -11.431,11.364c-4.543,-0.14 -7.185,-2.154 -8.25,-6.592c-0.641,-2.553 0.28,-6.509 0.936,-6.539c0,0 4.185,9.941 7.098,8.282c3.973,-1.144 6.523,-3.438 6.652,-7.692c-1.229,-2.662 -2.877,-5.022 -5.418,-6.742c-1.01,-0.684 -3.052,-4.379 -2.926,-5.686c0.586,-6.106 -0.195,-11.923 -2.972,-17.317c0.033,-4.624 1.675,-7.163 5.095,-7.396c2.899,2.027 5.905,3.47 9.171,3.484c2.148,-1.501 2.492,-3.934 1.984,-6.807c-1.728,-3.546 -4.725,-7.514 -8.742,-7.493c-4.913,0.353 -8.099,2.54 -10.082,6.003l-4.183,11.148c-1.282,-2.508 -1.02,-3.828 -0.287,-10.087c3.006,-5.555 5.997,-10.112 11.657,-12.649c6.146,-0.475 11.527,-3.752 15.75,-11.27c1.322,5.92 0.152,10.223 -3.469,13.307c0.222,6.931 3.238,11.477 7.854,14.657c-2.221,6.689 -7.863,9.39 -15.576,9.675c-1.275,1.999 -1.126,3.834 -0.022,5.558c10.41,2.694 14.738,10.618 18.009,23.008c-1.93,12.278 -7.062,20.182 -19.06,27.613c-7.219,0.764 -12.945,1.81 -19.89,-0.261c-4.982,-3.12 -9.428,-7.959 -11.939,-13.182l-10.107,0.778c-3.813,1.646 -6.202,4.578 -7.579,8.424c0.047,7.084 3.144,10.131 8.814,9.769c3.672,-0.461 6.313,-2.031 6.892,-5.817c-0.895,-2.101 -2.398,-3.573 -4.558,-4.363c-2.575,0.696 -4.486,2.257 -6.123,4.171c0.115,-2.687 1.006,-5.389 3.652,-8.123c2.613,-0.277 5.15,-0.003 7.623,0.75Z" style="fill:#fff;"/><path d="M69.598,31.389c-1.87,-1.853 -2.959,-3.886 -3.61,-6.02c-1.246,-7.963 3.419,-11.568 10.564,-13.347c7.88,1.3 12.79,5.517 12.657,14.685c0.361,7.081 -2.726,11.958 -10.94,13.56c-3.456,-0.113 -6.741,0.161 -9.39,1.88l0.784,8.624c-0.504,5.27 -1.955,10.186 -4.802,14.578c-5.267,2.526 -10.914,3.023 -16.84,2.037c4.082,-1.193 7.45,-3.262 9.921,-6.431c1.961,-7.044 2.193,-13.718 0.054,-19.884c-2.666,-8.309 -7.843,-12.286 -15.177,-12.546c-11.352,3.979 -18.532,11.17 -18.717,23.747c-0.116,3.206 7.633,12.383 7.633,12.383c0,0 -4.226,-10.824 -3.565,-13.292c1.819,-6.786 5.671,-10.511 11.431,-11.364c4.543,0.14 7.185,2.154 8.25,6.592c0.641,2.553 -0.28,6.509 -0.936,6.539c0,0 -4.185,-9.941 -7.098,-8.282c-3.973,1.144 -6.523,3.438 -6.652,7.692c1.229,2.662 2.877,5.022 5.418,6.742c1.01,0.684 3.052,4.379 2.926,5.686c-0.586,6.106 0.195,11.923 2.972,17.317c-0.033,4.624 -1.675,7.163 -5.095,7.396c-2.899,-2.027 -5.905,-3.47 -9.171,-3.484c-2.148,1.501 -2.492,3.934 -1.984,6.807c1.728,3.546 4.725,7.514 8.742,7.493c4.913,-0.353 8.099,-2.54 10.082,-6.003l4.183,-11.148c1.282,2.508 1.02,3.828 0.287,10.087c-3.006,5.555 -5.997,10.112 -11.657,12.649c-6.146,0.475 -11.527,3.752 -15.75,11.27c-1.322,-5.92 -0.152,-10.223 3.469,-13.307c-0.222,-6.931 -3.238,-11.477 -7.854,-14.657c2.221,-6.689 7.863,-9.39 15.576,-9.675c1.275,-1.999 1.126,-3.834 0.022,-5.558c-10.41,-2.694 -14.738,-10.618 -18.009,-23.008c1.93,-12.278 7.062,-20.182 19.06,-27.613c7.219,-0.764 12.945,-1.81 19.89,0.261c4.982,3.12 9.428,7.959 11.939,13.182l10.107,-0.778c3.813,-1.646 6.202,-4.578 7.579,-8.424c-0.047,-7.084 -3.144,-10.131 -8.814,-9.769c-3.672,0.461 -6.313,2.031 -6.892,5.817c0.895,2.101 2.398,3.573 4.558,4.363c2.575,-0.696 4.486,-2.257 6.123,-4.171c-0.115,2.687 -1.006,5.389 -3.652,8.123c-2.613,0.277 -5.15,0.003 -7.623,-0.75Z" style="fill:#fff;"/><path d="M69.598,543.626c-1.87,1.853 -2.959,3.886 -3.61,6.02c-1.246,7.963 3.419,11.568 10.564,13.347c7.88,-1.3 12.79,-5.517 12.657,-14.685c0.361,-7.081 -2.726,-11.958 -10.94,-13.56c-3.456,0.113 -6.741,-0.161 -9.39,-1.88l0.784,-8.624c-0.504,-5.27 -1.955,-10.186 -4.802,-14.578c-5.267,-2.526 -10.914,-3.023 -16.84,-2.037c4.082,1.193 7.45,3.262 9.921,6.431c1.961,7.044 2.193,13.718 0.054,19.884c-2.666,8.309 -7.843,12.286 -15.177,12.546c-11.352,-3.979 -18.532,-11.17 -18.717,-23.747c-0.116,-3.206 7.633,-12.383 7.633,-12.383c0,0 -4.226,10.824 -3.565,13.292c1.819,6.786 5.671,10.511 11.431,11.364c4.543,-0.14 7.185,-2.154 8.25,-6.592c0.641,-2.553 -0.28,-6.509 -0.936,-6.539c0,0 -4.185,9.941 -7.098,8.282c-3.973,-1.144 -6.523,-3.438 -6.652,-7.692c1.229,-2.662 2.877,-5.022 5.418,-6.742c1.01,-0.684 3.052,-4.379 2.926,-5.686c-0.586,-6.106 0.195,-11.923 2.972,-17.317c-0.033,-4.624 -1.675,-7.163 -5.095,-7.396c-2.899,2.027 -5.905,3.47 -9.171,3.484c-2.148,-1.501 -2.492,-3.934 -1.984,-6.807c1.728,-3.546 4.725,-7.514 8.742,-7.493c4.913,0.353 8.099,2.54 10.082,6.003l4.183,11.148c1.282,-2.508 1.02,-3.828 0.287,-10.087c-3.006,-5.555 -5.997,-10.112 -11.657,-12.649c-6.146,-0.475 -11.527,-3.752 -15.75,-11.27c-1.322,5.92 -0.152,10.223 3.469,13.307c-0.222,6.931 -3.238,11.477 -7.854,14.657c2.221,6.689 7.863,9.39 15.576,9.675c1.275,1.999 1.126,3.834 0.022,5.558c-10.41,2.694 -14.738,10.618 -18.009,23.008c1.93,12.278 7.062,20.182 19.06,27.613c7.219,0.764 12.945,1.81 19.89,-0.261c4.982,-3.12 9.428,-7.959 11.939,-13.182l10.107,0.778c3.813,1.646 6.202,4.578 7.579,8.424c-0.047,7.084 -3.144,10.131 -8.814,9.769c-3.672,-0.461 -6.313,-2.031 -6.892,-5.817c0.895,-2.101 2.398,-3.573 4.558,-4.363c2.575,0.696 4.486,2.257 6.123,4.171c-0.115,-2.687 -1.006,-5.389 -3.652,-8.123c-2.613,-0.277 -5.15,-0.003 -7.623,0.75Z" style="fill:#fff;"/><path d="M392.039,132.701c3.563,-5.72 6.644,-11.654 8.597,-18.088c0.053,-9.831 2.992,-16.878 8.229,-21.706c4.296,2.037 7.037,5.062 5.43,10.853c-3.981,12.621 -10.007,22.484 -17.564,30.281c-2.469,0.859 -3.833,0.124 -4.693,-1.34" style="fill:#fff;"/><path d="M397.669,174.839c10.999,-15.881 24.986,-29.389 41.563,-40.84c4,3.381 5.242,9.143 2.95,17.954c-1.574,10.368 -6.522,18.897 -12.817,26.691c4.722,-0.972 8.632,-3.655 12.067,-7.343l1.18,8.575c-10.501,4.607 -19.622,9.999 -28.584,16.212l-0.322,-20.66l7.77,-0.899c4.371,-7.017 7.719,-16.476 5.691,-18.502c-2.028,-2.027 -20.343,10.449 -29.496,18.812Z" style="fill:#fff;"/><path d="M485.305,98.086l3.895,-14.446c18.469,-6.165 39.575,-8.847 58.323,-7.197l-3.496,15.839c-6.815,-2.103 -13.63,-2.185 -20.445,-1.217c-10.347,32.457 -15.928,66.695 -22.645,100.269l-9.255,-0.375c4.063,-32.666 10.388,-67.624 20.318,-99.174l-26.695,6.3Z" style="fill:#fff;"/><path d="M530.091,153.155l12.438,-3.01l-1.648,23.931c15.054,-9.64 30.457,-21.535 42.472,-35.105c2.426,1.785 2.734,3.522 2.121,8.165c-2.814,3.335 -6.388,10.562 -6.52,14.791c10.04,-12.573 24.501,-22.994 36.329,-26.456l-6.725,27.175c0,0 14.074,-11.741 15.435,-11.636c1.362,0.105 8.484,0.105 8.484,0.105l3.444,17.901l5.354,0.417c4.934,-15.915 13.264,-28.86 25.348,-38.522c2.619,-1.162 5.237,-1.671 7.856,-1.047c4.044,0.565 6.143,2.906 6.075,7.223c-4.297,12.919 -12.545,23.487 -25.244,31.404c5.033,8.736 11.965,8.408 20.216,1.78c1.057,9.35 -4.654,15.684 -18.435,18.423c-6.954,-1.682 -10.27,-6.191 -10.789,-12.875l-5.928,-0.163c-0.514,2.309 -2.398,3.888 -5.594,4.768c-8.023,-1.066 -11.293,-6.151 -12.343,-13.114l-8.166,0.008c-6.279,9.582 -14.378,17.345 -24.59,22.996c4.106,-10.113 6.835,-20.325 8.438,-30.616c-11.416,3.973 -22.699,16.281 -30.609,27.819l-6.597,0.327l8.526,-25.127l-29.559,24.407c-8.307,0.015 -9.962,-5.415 -11.653,-13.085l1.859,-20.883Zm126.168,5.226c3.292,-0.81 6.276,-2.648 8.881,-5.745c2.087,-3.455 2.818,-6.978 2.617,-10.548c-2.975,0.506 -5.949,2.238 -8.924,5.831c-2.152,3.252 -2.939,6.752 -2.574,10.462Z" style="fill:#fff;"/><path d="M139.403,186.15c12.405,-25.758 22.802,-53.38 32.078,-82.042c9.652,1.55 16.922,7.466 21.211,18.842c1.138,17.86 -5.914,32.473 -18.854,44.75c-10.552,9.71 -22.002,18.224 -34.566,25.254l-0.655,5.757l37.184,-15.702l28.287,-7.628l-3.541,16.918l31.554,-20.02c2.145,3.212 3.062,8.937 2.75,13.489c4.519,-0.39 8.934,-1.353 13.224,-3.001c7.269,-10.011 15.543,-16.489 25.27,-20.694l-11.778,30.176l12.825,0.442c5.778,-11.743 12.844,-19.741 21.08,-24.338c6.851,2.465 10.427,7.931 11.915,15.309l11.391,-3.402l-2.619,7.72c-0.106,4.163 1.684,7.102 7.07,7.72c7.968,-9.003 17.011,-16.737 27.495,-22.768c-0.276,4.543 0.213,9.048 2.226,13.477c3.692,1.722 7.651,2.216 11.915,1.308c2.139,-4.753 5.31,-8.132 9.165,-10.599l-1.249,-6.776c-2.822,3.603 -6.432,5.818 -11.199,5.991c-0.808,-7.17 0.374,-15.302 1.974,-22.014l-6.416,0.701l-24.745,21.312c9.446,-14.156 21.607,-25.599 35.744,-35.067c1.044,-2.369 1.119,-4.737 0.332,-7.106c-3.38,-1.568 -6.811,-1.372 -10.282,0.171c-14.767,10.316 -27.829,22.5 -39.048,36.703l-3.43,-0.415c0.179,-9.944 -2.47,-16.521 -7.668,-20.063c-10.367,2.775 -18.647,9.105 -25.924,17.141l9.034,-25.777l-5.368,-3.664c-12.619,12.692 -25.279,25.346 -43.097,33.293c-0.551,-6.749 0.601,-15.72 2.955,-21.576l-6.862,1.369c-6.308,7.565 -13.926,16.569 -23.698,20.673c9.614,-13.54 21.023,-25.286 34.325,-35.14c0.445,-4.773 -1.621,-6.533 -4.53,-7.283l-48.256,40.068c-5.41,3.29 -10.963,4.17 -16.597,3.664c9.87,-9.941 19.2,-22.2 25.942,-36.831c1.755,-7.699 1.597,-15.398 0,-23.097c-10.198,-22.198 -29.001,-31.866 -53.73,-36.637l-1.047,12.431c4.944,1.366 9.813,3.713 14.533,7.982l-14.271,22.244c-6.781,21.899 -10.628,44.164 -12.046,66.732Z" style="fill:#fff;"/></g></svg>