<?xml version="1.0" encoding="UTF-8" standalone="no"?>
<!DOCTYPE svg PUBLIC "-//W3C//DTD SVG 1.1//EN" "http://www.w3.org/Graphics/SVG/1.1/DTD/svg11.dtd">
<svg width="100%" height="100%" viewBox="0 0 2550 3300" version="1.1" xmlns="http://www.w3.org/2000/svg" xmlns:xlink="http://www.w3.org/1999/xlink" xml:space="preserve" xmlns:serif="http://www.serif.com/" style="fill-rule:evenodd;clip-rule:evenodd;">
    <g transform="matrix(0.208333,0,0,-0.208333,0,3300.000066)">
        <rect x="0" y="0" width="12240" height="15840" style="fill:white;"/>
    </g>
    <g transform="matrix(0.208333,0,0,-0.208333,0,2007.173707)">
        <path d="M1440,4817.217L10800,4817.217" style="fill:none;fill-rule:nonzero;stroke:rgb(79,129,189);stroke-width:20px;"/>
    </g>
    <g transform="matrix(4.166667,0,0,4.166667,0,0)">
        <text x="203.574px" y="42.388px" style="font-family:'ArialMT', 'Arial', sans-serif;font-size:26px;fill:rgb(23,53,93);">D<tspan x="222.6px 237.31px 252.02px 266.73px 272.287px 285.537px 292.808px 307.975px 314.002px 335.91px 350.62px 357.843px 378.316px 393.026px " y="42.388px 42.388px 42.388px 42.388px 42.388px 42.388px 42.388px 42.388px 42.388px 42.388px 42.388px 42.388px 42.388px 42.388px ">ana’s Time Out</tspan></text>
    </g>
    <g transform="matrix(4.166667,0,0,4.166667,0,0)">
        <text x="171.016px" y="72.285px" style="font-family:'ArialMT', 'Arial', sans-serif;font-size:26px;fill:rgb(23,53,93);">R<tspan x="190.042px 204.752px 218.002px 225.476px 240.186px 254.896px 263.804px 278.514px 293.224px 300.697px 308.439px 326.031px 333.236px 352.263px 366.973px 374.446px 389.156px 398.064px 404.091px 418.801px " y="72.285px 72.285px 72.285px 72.285px 72.285px 72.285px 72.285px 72.285px 72.285px 72.285px 72.285px 72.285px 72.285px 72.285px 72.285px 72.285px 72.285px 72.285px 72.285px 72.285px ">estaurant &amp; Catering</tspan></text>
    </g>
    <g transform="matrix(4.166667,0,0,4.166667,0,0)">
        <text x="82.049px" y="102.183px" style="font-family:'ArialMT', 'Arial', sans-serif;font-size:26px;fill:rgb(23,53,93);">2<tspan x="96.759px 111.469px 126.179px 133.92px 152.947px 167.657px 189.565px 195.591px 201.618px 209.091px 223.801px 238.511px 245.717px 263.309px 270.782px 278.256px 285.997px 306.471px 321.181px 335.891px 350.601px 363.851px 378.561px 386.035px 393.24px 412.267px 419.74px 433.98px 441.454px 449.196px 463.906px 478.616px 493.326px 508.036px " y="102.183px 102.183px 102.183px 102.183px 102.183px 102.183px 102.183px 102.183px 102.183px 102.183px 102.183px 102.183px 102.183px 102.183px 102.183px 102.183px 102.183px 102.183px 102.183px 102.183px 102.183px 102.183px 102.183px 102.183px 102.183px 102.183px 102.183px 102.183px 102.183px 102.183px 102.183px 102.183px 102.183px 102.183px ">58 Hamilton St. Geneva, N.Y. 14456</tspan></text>
    </g>
    <g transform="matrix(4.166667,0,0,4.166667,0,0)">
        <text x="219.088px" y="132.08px" style="font-family:'ArialMT', 'Arial', sans-serif;font-size:26px;fill:rgb(23,53,93);">(<tspan x="227.996px 242.706px 257.416px 272.126px 281.034px 295.744px 310.454px 325.164px 334.072px 348.782px 363.492px 378.202px " y="132.08px 132.08px 132.08px 132.08px 132.08px 132.08px 132.08px 132.08px 132.08px 132.08px 132.08px 132.08px ">315)781-2107</tspan></text>
    </g>
    <g transform="matrix(4.166667,0,0,4.166667,0,0)">
        <text x="154.378px" y="161.978px" style="font-family:'ArialMT', 'Arial', sans-serif;font-size:26px;fill:rgb(23,53,93);">d<tspan x="169.088px 183.798px 198.508px 213.218px 226.468px 233.942px 239.968px 261.876px 276.586px 291.296px 306.006px 313.48px 328.19px 342.9px 357.61px 372.32px 385.57px 400.28px 407.753px 421.003px 435.713px " y="161.978px 161.978px 161.978px 161.978px 161.978px 161.978px 161.978px 161.978px 161.978px 161.978px 161.978px 161.978px 161.978px 161.978px 161.978px 161.978px 161.978px 161.978px 161.978px 161.978px 161.978px ">anastimeoutgeneva.com</tspan></text>
    </g>
    <g transform="matrix(4.166667,0,0,4.166667,0,0)">
        <text x="187.451px" y="191.875px" style="font-family:'ArialMT', 'Arial', sans-serif;font-size:26px;fill:rgb(23,53,93);">d<tspan x="202.161px 209.634px 224.344px 239.054px 253.764px 268.474px 295.118px 308.368px 323.078px 337.788px 352.498px 367.208px 374.681px 387.931px 402.641px " y="191.875px 191.875px 191.875px 191.875px 191.875px 191.875px 191.875px 191.875px 191.875px 191.875px 191.875px 191.875px 191.875px 191.875px 191.875px ">to258@yahoo.com</tspan></text>
    </g>
    <g transform="matrix(4.166667,0,0,4.166667,0,0)">
        <text x="87.375px" y="217.926px" style="font-family:'Consolas-Italic', 'Consolas', monospace;font-style:italic;font-size:26px;fill:rgb(23,53,93);">_<tspan x="100.625px 113.875px 127.125px 140.375px 153.625px 166.875px 180.125px 193.375px 206.625px 219.875px 233.125px 246.375px 259.625px 272.875px 286.125px 299.375px 312.625px 325.875px 339.125px 352.375px 365.625px 378.875px 392.125px 405.375px 418.625px 431.875px 445.125px 458.375px 471.625px 484.875px 498.125px 511.375px " y="217.926px 217.926px 217.926px 217.926px 217.926px 217.926px 217.926px 217.926px 217.926px 217.926px 217.926px 217.926px 217.926px 217.926px 217.926px 217.926px 217.926px 217.926px 217.926px 217.926px 217.926px 217.926px 217.926px 217.926px 217.926px 217.926px 217.926px 217.926px 217.926px 217.926px 217.926px 217.926px ">________________________________</tspan></text>
    </g>
    <g transform="matrix(4.166667,0,0,4.166667,0,0)">
        <text x="276.23px" y="234.361px" style="font-family:'Cambria', serif;font-size:9px;fill:rgb(23,53,93);">C<tspan x="281.543px 286.187px 289.483px 294.123px 298.095px 300.845px 306.118px 310.816px 313.37px 320.959px 325.599px 330.872px " y="234.361px 234.361px 234.361px 234.361px 234.361px 234.361px 234.361px 234.361px 234.361px 234.361px 234.361px 234.361px ">atering Menu</tspan></text>
    </g>
    <g transform="matrix(4.166667,0,0,4.166667,0,0)">
        <g transform="matrix(9,0,0,9,433.768352,265.09717)">
            <path d="M0.602,-0.044C0.602,-0.035 0.601,-0.028 0.6,-0.022C0.599,-0.017 0.597,-0.013 0.594,-0.01C0.591,-0.008 0.587,-0.005 0.583,-0.003C0.578,-0.001 0.572,0.001 0.565,0.003C0.559,0.005 0.551,0.006 0.544,0.007C0.536,0.008 0.529,0.008 0.521,0.008C0.498,0.008 0.479,0.005 0.462,-0.001C0.446,-0.007 0.433,-0.016 0.423,-0.028C0.412,-0.04 0.405,-0.056 0.4,-0.074C0.395,-0.093 0.393,-0.115 0.393,-0.141L0.393,-0.397L0.174,-0.397L0.174,-0.152C0.174,-0.122 0.179,-0.099 0.188,-0.084C0.197,-0.068 0.213,-0.061 0.236,-0.061C0.243,-0.061 0.25,-0.061 0.256,-0.063C0.262,-0.064 0.267,-0.066 0.271,-0.067C0.276,-0.069 0.28,-0.071 0.283,-0.072C0.286,-0.073 0.289,-0.074 0.292,-0.074C0.294,-0.074 0.295,-0.074 0.297,-0.073C0.298,-0.072 0.299,-0.071 0.3,-0.068C0.301,-0.066 0.302,-0.063 0.302,-0.059C0.303,-0.055 0.303,-0.05 0.303,-0.044C0.303,-0.039 0.303,-0.035 0.303,-0.031C0.302,-0.028 0.302,-0.025 0.302,-0.022C0.301,-0.019 0.3,-0.017 0.299,-0.015C0.298,-0.013 0.296,-0.011 0.294,-0.009C0.291,-0.006 0.288,-0.004 0.283,-0.002C0.278,-0 0.272,0.002 0.266,0.003C0.259,0.005 0.252,0.006 0.245,0.007C0.237,0.008 0.23,0.008 0.222,0.008C0.199,0.008 0.18,0.005 0.164,-0.001C0.147,-0.007 0.134,-0.016 0.124,-0.028C0.113,-0.04 0.106,-0.056 0.101,-0.074C0.096,-0.093 0.094,-0.115 0.094,-0.141L0.094,-0.397L0.032,-0.397C0.027,-0.397 0.023,-0.4 0.021,-0.405C0.018,-0.41 0.016,-0.419 0.016,-0.431C0.016,-0.437 0.017,-0.442 0.017,-0.446C0.018,-0.451 0.019,-0.454 0.021,-0.457C0.022,-0.46 0.024,-0.462 0.026,-0.463C0.028,-0.464 0.03,-0.464 0.033,-0.464L0.094,-0.464L0.094,-0.569C0.094,-0.571 0.094,-0.573 0.095,-0.575C0.097,-0.577 0.099,-0.579 0.102,-0.58C0.105,-0.582 0.109,-0.583 0.114,-0.583C0.119,-0.584 0.126,-0.584 0.134,-0.584C0.142,-0.584 0.149,-0.584 0.154,-0.583C0.159,-0.583 0.163,-0.582 0.166,-0.58C0.169,-0.579 0.171,-0.577 0.172,-0.575C0.174,-0.573 0.174,-0.571 0.174,-0.569L0.174,-0.464L0.393,-0.464L0.393,-0.59C0.393,-0.592 0.393,-0.595 0.395,-0.597C0.396,-0.599 0.398,-0.6 0.401,-0.601C0.404,-0.602 0.408,-0.603 0.414,-0.604C0.419,-0.605 0.425,-0.605 0.433,-0.605C0.441,-0.605 0.447,-0.605 0.453,-0.604C0.458,-0.603 0.462,-0.602 0.465,-0.601C0.468,-0.6 0.47,-0.599 0.472,-0.597C0.473,-0.595 0.474,-0.592 0.474,-0.59L0.474,-0.464L0.586,-0.464C0.589,-0.464 0.591,-0.464 0.593,-0.463C0.595,-0.462 0.596,-0.46 0.598,-0.457C0.599,-0.454 0.6,-0.451 0.601,-0.446C0.602,-0.442 0.602,-0.437 0.602,-0.431C0.602,-0.419 0.601,-0.41 0.598,-0.405C0.595,-0.4 0.591,-0.397 0.586,-0.397L0.474,-0.397L0.474,-0.152C0.474,-0.122 0.478,-0.099 0.487,-0.084C0.496,-0.068 0.512,-0.061 0.535,-0.061C0.542,-0.061 0.548,-0.061 0.554,-0.063C0.56,-0.064 0.566,-0.066 0.57,-0.067C0.575,-0.069 0.579,-0.071 0.582,-0.072C0.586,-0.073 0.589,-0.074 0.591,-0.074C0.593,-0.074 0.594,-0.074 0.596,-0.073C0.597,-0.072 0.598,-0.071 0.599,-0.068C0.6,-0.066 0.6,-0.063 0.601,-0.059C0.602,-0.055 0.602,-0.05 0.602,-0.044Z" style="fill-rule:nonzero;"/>
        </g>
        <g transform="matrix(9,0,0,9,433.768352,265.09717)">
        </g>
        <g transform="matrix(9,0,0,9,436.620483,265.09717)">
        </g>
        <text x="125.662px" y="265.097px" style="font-family:'Calibri', sans-serif;font-size:9px;">DTO<tspan x="141.531px " y="265.097px "> </tspan>Bake<tspan x="161.322px " y="265.097px ">d</tspan> Chicke<tspan x="192.02px " y="265.097px ">n</tspan>, Pe<tspan x="210.137px " y="265.097px ">n</tspan>ne w/ Marinara<tspan x="271.688px " y="265.097px ">,</tspan> House Salad w/ Dressing, Din<tspan x="382.328px " y="265.097px ">n</tspan>er Ro<tspan x="406.316px " y="265.097px ">l</tspan>ls &amp; Bu<tspan x="439.473px " y="265.097px ">e</tspan>r $16.95 pp</text>
    </g>
    <g transform="matrix(4.166667,0,0,4.166667,0,0)">
        <text x="262.534px" y="277.731px" style="font-family:'Calibri', sans-serif;font-size:9px;">Add Meatballs $2.00 pp</text>
    </g>
    <g transform="matrix(4.166667,0,0,4.166667,0,0)">
        <text x="262.336px" y="290.366px" style="font-family:'Calibri', sans-serif;font-size:9px;">Add Ro<tspan x="288.643px " y="290.366px ">a</tspan>st Beef<tspan x="318.087px 320.838px " y="290.366px 290.366px ">- </tspan>Marke<tspan x="346.56px " y="290.366px ">t</tspan></text>
    </g>
    <g transform="matrix(4.166667,0,0,4.166667,0,0)">
        <text x="225.94px" y="303px" style="font-family:'Calibri', sans-serif;font-size:9px;">Add Sausage w/ Pe<tspan x="295.405px " y="303px ">p</tspan>pers<tspan x="315.978px " y="303px "> </tspan>&amp; Onions $4.95 pp</text>
    </g>
    <g transform="matrix(4.166667,0,0,4.166667,0,0)">
        <text x="108.888px" y="328.269px" style="font-family:'Calibri', sans-serif;font-size:9px;">BBQ Pulled Po<tspan x="160.865px " y="328.269px ">r</tspan>k, Bake<tspan x="190.119px " y="328.269px ">d</tspan> Mac &amp; Cheese, Bake<tspan x="271.365px " y="328.269px ">d</tspan> Beans, House Salad w/ Dressing OR Cole Slaw,<tspan x="446.264px " y="328.269px "> </tspan>Corned Bread,</text>
    </g>
    <g transform="matrix(4.166667,0,0,4.166667,0,0)">
        <g transform="matrix(9,0,0,9,311.708191,340.90283)">
            <path d="M0.602,-0.044C0.602,-0.035 0.601,-0.028 0.6,-0.022C0.599,-0.017 0.597,-0.013 0.594,-0.01C0.591,-0.008 0.587,-0.005 0.583,-0.003C0.578,-0.001 0.572,0.001 0.565,0.003C0.559,0.005 0.551,0.006 0.544,0.007C0.536,0.008 0.529,0.008 0.521,0.008C0.498,0.008 0.479,0.005 0.462,-0.001C0.446,-0.007 0.433,-0.016 0.423,-0.028C0.412,-0.04 0.405,-0.056 0.4,-0.074C0.395,-0.093 0.393,-0.115 0.393,-0.141L0.393,-0.397L0.174,-0.397L0.174,-0.152C0.174,-0.122 0.179,-0.099 0.188,-0.084C0.197,-0.068 0.213,-0.061 0.236,-0.061C0.243,-0.061 0.25,-0.061 0.256,-0.063C0.262,-0.064 0.267,-0.066 0.271,-0.067C0.276,-0.069 0.28,-0.071 0.283,-0.072C0.286,-0.073 0.289,-0.074 0.292,-0.074C0.294,-0.074 0.295,-0.074 0.297,-0.073C0.298,-0.072 0.299,-0.071 0.3,-0.068C0.301,-0.066 0.302,-0.063 0.302,-0.059C0.303,-0.055 0.303,-0.05 0.303,-0.044C0.303,-0.039 0.303,-0.035 0.303,-0.031C0.302,-0.028 0.302,-0.025 0.302,-0.022C0.301,-0.019 0.3,-0.017 0.299,-0.015C0.298,-0.013 0.296,-0.011 0.294,-0.009C0.291,-0.006 0.288,-0.004 0.283,-0.002C0.278,-0 0.272,0.002 0.266,0.003C0.259,0.005 0.252,0.006 0.245,0.007C0.237,0.008 0.23,0.008 0.222,0.008C0.199,0.008 0.18,0.005 0.164,-0.001C0.147,-0.007 0.134,-0.016 0.124,-0.028C0.113,-0.04 0.106,-0.056 0.101,-0.074C0.096,-0.093 0.094,-0.115 0.094,-0.141L0.094,-0.397L0.032,-0.397C0.027,-0.397 0.023,-0.4 0.021,-0.405C0.018,-0.41 0.016,-0.419 0.016,-0.431C0.016,-0.437 0.017,-0.442 0.017,-0.446C0.018,-0.451 0.019,-0.454 0.021,-0.457C0.022,-0.46 0.024,-0.462 0.026,-0.463C0.028,-0.464 0.03,-0.464 0.033,-0.464L0.094,-0.464L0.094,-0.569C0.094,-0.571 0.094,-0.573 0.095,-0.575C0.097,-0.577 0.099,-0.579 0.102,-0.58C0.105,-0.582 0.109,-0.583 0.114,-0.583C0.119,-0.584 0.126,-0.584 0.134,-0.584C0.142,-0.584 0.149,-0.584 0.154,-0.583C0.159,-0.583 0.163,-0.582 0.166,-0.58C0.169,-0.579 0.171,-0.577 0.172,-0.575C0.174,-0.573 0.174,-0.571 0.174,-0.569L0.174,-0.464L0.393,-0.464L0.393,-0.59C0.393,-0.592 0.393,-0.595 0.395,-0.597C0.396,-0.599 0.398,-0.6 0.401,-0.601C0.404,-0.602 0.408,-0.603 0.414,-0.604C0.419,-0.605 0.425,-0.605 0.433,-0.605C0.441,-0.605 0.447,-0.605 0.453,-0.604C0.458,-0.603 0.462,-0.602 0.465,-0.601C0.468,-0.6 0.47,-0.599 0.472,-0.597C0.473,-0.595 0.474,-0.592 0.474,-0.59L0.474,-0.464L0.586,-0.464C0.589,-0.464 0.591,-0.464 0.593,-0.463C0.595,-0.462 0.596,-0.46 0.598,-0.457C0.599,-0.454 0.6,-0.451 0.601,-0.446C0.602,-0.442 0.602,-0.437 0.602,-0.431C0.602,-0.419 0.601,-0.41 0.598,-0.405C0.595,-0.4 0.591,-0.397 0.586,-0.397L0.474,-0.397L0.474,-0.152C0.474,-0.122 0.478,-0.099 0.487,-0.084C0.496,-0.068 0.512,-0.061 0.535,-0.061C0.542,-0.061 0.548,-0.061 0.554,-0.063C0.56,-0.064 0.566,-0.066 0.57,-0.067C0.575,-0.069 0.579,-0.071 0.582,-0.072C0.586,-0.073 0.589,-0.074 0.591,-0.074C0.593,-0.074 0.594,-0.074 0.596,-0.073C0.597,-0.072 0.598,-0.071 0.599,-0.068C0.6,-0.066 0.6,-0.063 0.601,-0.059C0.602,-0.055 0.602,-0.05 0.602,-0.044Z" style="fill-rule:nonzero;"/>
        </g>
        <g transform="matrix(9,0,0,9,311.708191,340.90283)">
        </g>
        <g transform="matrix(9,0,0,9,314.559793,340.90283)">
        </g>
        <text x="247.961px" y="340.903px" style="font-family:'Calibri', sans-serif;font-size:9px;">Dinner Ro<tspan x="284.26px " y="340.903px ">l</tspan>ls &amp; Bu<tspan x="317.411px " y="340.903px ">e</tspan>r $16.95 pp</text>
    </g>
    <g transform="matrix(4.166667,0,0,4.166667,0,0)">
        <text x="257.339px" y="353.537px" style="font-family:'Calibri', sans-serif;font-size:9px;">Add BBQ Chicke<tspan x="315.812px " y="353.537px ">n</tspan> $4.95 pp</text>
    </g>
    <g transform="matrix(4.166667,0,0,4.166667,0,0)">
        <text x="106.932px" y="378.806px" style="font-family:'Calibri', sans-serif;font-size:9px;">Saints Marinat<tspan x="159.944px " y="378.806px ">e</tspan>d Chicke<tspan x="195.114px " y="378.806px ">n</tspan> Breast<tspan x="225.199px " y="378.806px "> </tspan>topped w/ Fre<tspan x="279.329px " y="378.806px ">s</tspan>h Cut Green &amp; Re<tspan x="346.191px " y="378.806px ">d</tspan> Pe<tspan x="362.065px " y="378.806px ">p</tspan>pers<tspan x="382.636px " y="378.806px "> </tspan>&amp; Melted Cheddar Jack Bake<tspan x="489.057px " y="378.806px ">d</tspan> in</text>
    </g>
    <g transform="matrix(4.166667,0,0,4.166667,0,0)">
        <text x="104.142px" y="391.44px" style="font-family:'Calibri', sans-serif;font-size:9px;">White Wine &amp; Fre<tspan x="169.64px " y="391.44px ">s</tspan>h Garlic, Garlic Smashe<tspan x="256.624px " y="391.44px ">d</tspan> Po<tspan x="272.766px 275.776px 280.083px 283.093px 287.835px " y="391.44px 391.44px 391.44px 391.44px 391.44px ">tato </tspan>topped w/ Cheddar &amp; Bacon OR Ro<tspan x="418.292px " y="391.44px ">a</tspan>ste<tspan x="433.598px " y="391.44px ">d</tspan> Ro<tspan x="449.978px " y="391.44px ">s</tspan>emary Pota<tspan x="495.396px 498.406px 503.148px " y="391.44px 391.44px 391.44px ">to,</tspan></text>
    </g>
    <g transform="matrix(4.166667,0,0,4.166667,0,0)">
        <g transform="matrix(9,0,0,9,392.734439,404.07422)">
            <path d="M0.602,-0.044C0.602,-0.035 0.601,-0.028 0.6,-0.022C0.599,-0.017 0.597,-0.013 0.594,-0.01C0.591,-0.008 0.587,-0.005 0.583,-0.003C0.578,-0.001 0.572,0.001 0.565,0.003C0.559,0.005 0.551,0.006 0.544,0.007C0.536,0.008 0.529,0.008 0.521,0.008C0.498,0.008 0.479,0.005 0.462,-0.001C0.446,-0.007 0.433,-0.016 0.423,-0.028C0.412,-0.04 0.405,-0.056 0.4,-0.074C0.395,-0.093 0.393,-0.115 0.393,-0.141L0.393,-0.397L0.174,-0.397L0.174,-0.152C0.174,-0.122 0.179,-0.099 0.188,-0.084C0.197,-0.068 0.213,-0.061 0.236,-0.061C0.243,-0.061 0.25,-0.061 0.256,-0.063C0.262,-0.064 0.267,-0.066 0.271,-0.067C0.276,-0.069 0.28,-0.071 0.283,-0.072C0.286,-0.073 0.289,-0.074 0.292,-0.074C0.294,-0.074 0.295,-0.074 0.297,-0.073C0.298,-0.072 0.299,-0.071 0.3,-0.068C0.301,-0.066 0.302,-0.063 0.302,-0.059C0.303,-0.055 0.303,-0.05 0.303,-0.044C0.303,-0.039 0.303,-0.035 0.303,-0.031C0.302,-0.028 0.302,-0.025 0.302,-0.022C0.301,-0.019 0.3,-0.017 0.299,-0.015C0.298,-0.013 0.296,-0.011 0.294,-0.009C0.291,-0.006 0.288,-0.004 0.283,-0.002C0.278,-0 0.272,0.002 0.266,0.003C0.259,0.005 0.252,0.006 0.245,0.007C0.237,0.008 0.23,0.008 0.222,0.008C0.199,0.008 0.18,0.005 0.164,-0.001C0.147,-0.007 0.134,-0.016 0.124,-0.028C0.113,-0.04 0.106,-0.056 0.101,-0.074C0.096,-0.093 0.094,-0.115 0.094,-0.141L0.094,-0.397L0.032,-0.397C0.027,-0.397 0.023,-0.4 0.021,-0.405C0.018,-0.41 0.016,-0.419 0.016,-0.431C0.016,-0.437 0.017,-0.442 0.017,-0.446C0.018,-0.451 0.019,-0.454 0.021,-0.457C0.022,-0.46 0.024,-0.462 0.026,-0.463C0.028,-0.464 0.03,-0.464 0.033,-0.464L0.094,-0.464L0.094,-0.569C0.094,-0.571 0.094,-0.573 0.095,-0.575C0.097,-0.577 0.099,-0.579 0.102,-0.58C0.105,-0.582 0.109,-0.583 0.114,-0.583C0.119,-0.584 0.126,-0.584 0.134,-0.584C0.142,-0.584 0.149,-0.584 0.154,-0.583C0.159,-0.583 0.163,-0.582 0.166,-0.58C0.169,-0.579 0.171,-0.577 0.172,-0.575C0.174,-0.573 0.174,-0.571 0.174,-0.569L0.174,-0.464L0.393,-0.464L0.393,-0.59C0.393,-0.592 0.393,-0.595 0.395,-0.597C0.396,-0.599 0.398,-0.6 0.401,-0.601C0.404,-0.602 0.408,-0.603 0.414,-0.604C0.419,-0.605 0.425,-0.605 0.433,-0.605C0.441,-0.605 0.447,-0.605 0.453,-0.604C0.458,-0.603 0.462,-0.602 0.465,-0.601C0.468,-0.6 0.47,-0.599 0.472,-0.597C0.473,-0.595 0.474,-0.592 0.474,-0.59L0.474,-0.464L0.586,-0.464C0.589,-0.464 0.591,-0.464 0.593,-0.463C0.595,-0.462 0.596,-0.46 0.598,-0.457C0.599,-0.454 0.6,-0.451 0.601,-0.446C0.602,-0.442 0.602,-0.437 0.602,-0.431C0.602,-0.419 0.601,-0.41 0.598,-0.405C0.595,-0.4 0.591,-0.397 0.586,-0.397L0.474,-0.397L0.474,-0.152C0.474,-0.122 0.478,-0.099 0.487,-0.084C0.496,-0.068 0.512,-0.061 0.535,-0.061C0.542,-0.061 0.548,-0.061 0.554,-0.063C0.56,-0.064 0.566,-0.066 0.57,-0.067C0.575,-0.069 0.579,-0.071 0.582,-0.072C0.586,-0.073 0.589,-0.074 0.591,-0.074C0.593,-0.074 0.594,-0.074 0.596,-0.073C0.597,-0.072 0.598,-0.071 0.599,-0.068C0.6,-0.066 0.6,-0.063 0.601,-0.059C0.602,-0.055 0.602,-0.05 0.602,-0.044Z" style="fill-rule:nonzero;"/>
        </g>
        <g transform="matrix(9,0,0,9,392.734439,404.07422)">
        </g>
        <g transform="matrix(9,0,0,9,395.586503,404.07422)">
        </g>
        <text x="166.759px" y="404.074px" style="font-family:'Calibri', sans-serif;font-size:9px;">Italian Gre<tspan x="204.804px " y="404.074px ">e</tspan>n Beans, House Salad &amp; D<tspan x="302.567px 305.7px 310.174px " y="404.074px 404.074px 404.074px ">res</tspan>sing,<tspan x="330.463px " y="404.074px "> </tspan>Dinner Ro<tspan x="368.799px " y="404.074px ">l</tspan>l &amp; Bu<tspan x="398.439px " y="404.074px ">e</tspan>r $17.95 pp</text>
    </g>
    <g transform="matrix(4.166667,0,0,4.166667,0,0)">
        <text x="262.336px" y="416.709px" style="font-family:'Calibri', sans-serif;font-size:9px;">Add Ro<tspan x="288.643px " y="416.709px ">a</tspan>st Beef<tspan x="318.087px 320.838px " y="416.709px 416.709px ">- </tspan>Marke<tspan x="346.56px " y="416.709px ">t</tspan></text>
    </g>
    <g transform="matrix(4.166667,0,0,4.166667,0,0)">
        <text x="72.488px" y="441.977px" style="font-family:'Calibri', sans-serif;font-size:9px;">Chicke<tspan x="96.43px " y="441.977px ">n</tspan> French or Chicke<tspan x="164.053px " y="441.977px ">n</tspan> Pa<tspan x="179.76px " y="441.977px ">r</tspan>mesan, Bake<tspan x="229.13px " y="441.977px ">d</tspan> Haddock, Rice Pilaf,<tspan x="307.454px " y="441.977px "> </tspan>Cheese To<tspan x="347.095px " y="441.977px ">r</tspan>tellini w/ Asiago Alfre<tspan x="428.35px " y="441.977px ">d</tspan>o Sauce, Italian Gre<tspan x="503.602px " y="441.977px ">e</tspan>n Beans,</text>
    </g>
    <g transform="matrix(4.166667,0,0,4.166667,0,0)">
        <g transform="matrix(9,0,0,9,358.690518,454.61133)">
            <path d="M0.602,-0.044C0.602,-0.035 0.601,-0.028 0.6,-0.022C0.599,-0.017 0.597,-0.013 0.594,-0.01C0.591,-0.008 0.587,-0.005 0.583,-0.003C0.578,-0.001 0.572,0.001 0.565,0.003C0.559,0.005 0.551,0.006 0.544,0.007C0.536,0.008 0.529,0.008 0.521,0.008C0.498,0.008 0.479,0.005 0.462,-0.001C0.446,-0.007 0.433,-0.016 0.423,-0.028C0.412,-0.04 0.405,-0.056 0.4,-0.074C0.395,-0.093 0.393,-0.115 0.393,-0.141L0.393,-0.397L0.174,-0.397L0.174,-0.152C0.174,-0.122 0.179,-0.099 0.188,-0.084C0.197,-0.068 0.213,-0.061 0.236,-0.061C0.243,-0.061 0.25,-0.061 0.256,-0.063C0.262,-0.064 0.267,-0.066 0.271,-0.067C0.276,-0.069 0.28,-0.071 0.283,-0.072C0.286,-0.073 0.289,-0.074 0.292,-0.074C0.294,-0.074 0.295,-0.074 0.297,-0.073C0.298,-0.072 0.299,-0.071 0.3,-0.068C0.301,-0.066 0.302,-0.063 0.302,-0.059C0.303,-0.055 0.303,-0.05 0.303,-0.044C0.303,-0.039 0.303,-0.035 0.303,-0.031C0.302,-0.028 0.302,-0.025 0.302,-0.022C0.301,-0.019 0.3,-0.017 0.299,-0.015C0.298,-0.013 0.296,-0.011 0.294,-0.009C0.291,-0.006 0.288,-0.004 0.283,-0.002C0.278,-0 0.272,0.002 0.266,0.003C0.259,0.005 0.252,0.006 0.245,0.007C0.237,0.008 0.23,0.008 0.222,0.008C0.199,0.008 0.18,0.005 0.164,-0.001C0.147,-0.007 0.134,-0.016 0.124,-0.028C0.113,-0.04 0.106,-0.056 0.101,-0.074C0.096,-0.093 0.094,-0.115 0.094,-0.141L0.094,-0.397L0.032,-0.397C0.027,-0.397 0.023,-0.4 0.021,-0.405C0.018,-0.41 0.016,-0.419 0.016,-0.431C0.016,-0.437 0.017,-0.442 0.017,-0.446C0.018,-0.451 0.019,-0.454 0.021,-0.457C0.022,-0.46 0.024,-0.462 0.026,-0.463C0.028,-0.464 0.03,-0.464 0.033,-0.464L0.094,-0.464L0.094,-0.569C0.094,-0.571 0.094,-0.573 0.095,-0.575C0.097,-0.577 0.099,-0.579 0.102,-0.58C0.105,-0.582 0.109,-0.583 0.114,-0.583C0.119,-0.584 0.126,-0.584 0.134,-0.584C0.142,-0.584 0.149,-0.584 0.154,-0.583C0.159,-0.583 0.163,-0.582 0.166,-0.58C0.169,-0.579 0.171,-0.577 0.172,-0.575C0.174,-0.573 0.174,-0.571 0.174,-0.569L0.174,-0.464L0.393,-0.464L0.393,-0.59C0.393,-0.592 0.393,-0.595 0.395,-0.597C0.396,-0.599 0.398,-0.6 0.401,-0.601C0.404,-0.602 0.408,-0.603 0.414,-0.604C0.419,-0.605 0.425,-0.605 0.433,-0.605C0.441,-0.605 0.447,-0.605 0.453,-0.604C0.458,-0.603 0.462,-0.602 0.465,-0.601C0.468,-0.6 0.47,-0.599 0.472,-0.597C0.473,-0.595 0.474,-0.592 0.474,-0.59L0.474,-0.464L0.586,-0.464C0.589,-0.464 0.591,-0.464 0.593,-0.463C0.595,-0.462 0.596,-0.46 0.598,-0.457C0.599,-0.454 0.6,-0.451 0.601,-0.446C0.602,-0.442 0.602,-0.437 0.602,-0.431C0.602,-0.419 0.601,-0.41 0.598,-0.405C0.595,-0.4 0.591,-0.397 0.586,-0.397L0.474,-0.397L0.474,-0.152C0.474,-0.122 0.478,-0.099 0.487,-0.084C0.496,-0.068 0.512,-0.061 0.535,-0.061C0.542,-0.061 0.548,-0.061 0.554,-0.063C0.56,-0.064 0.566,-0.066 0.57,-0.067C0.575,-0.069 0.579,-0.071 0.582,-0.072C0.586,-0.073 0.589,-0.074 0.591,-0.074C0.593,-0.074 0.594,-0.074 0.596,-0.073C0.597,-0.072 0.598,-0.071 0.599,-0.068C0.6,-0.066 0.6,-0.063 0.601,-0.059C0.602,-0.055 0.602,-0.05 0.602,-0.044Z" style="fill-rule:nonzero;"/>
        </g>
        <g transform="matrix(9,0,0,9,358.690518,454.61133)">
        </g>
        <g transform="matrix(9,0,0,9,361.542581,454.61133)">
        </g>
        <text x="200.887px" y="454.611px" style="font-family:'Calibri', sans-serif;font-size:9px;">House Salad w/ Dressing, Dinn<tspan x="311.975px " y="454.611px ">e</tspan>r Ro<tspan x="331.239px " y="454.611px ">l</tspan>ls &amp; Bu<tspan x="364.395px " y="454.611px ">e</tspan>r $24.95 pp</text>
    </g>
    <g transform="matrix(4.166667,0,0,4.166667,0,0)">
        <text x="262.336px" y="467.246px" style="font-family:'Calibri', sans-serif;font-size:9px;">Add Ro<tspan x="288.643px " y="467.246px ">a</tspan>st Beef<tspan x="318.087px 320.838px " y="467.246px 467.246px ">- </tspan>Marke<tspan x="346.56px " y="467.246px ">t</tspan></text>
    </g>
    <g transform="matrix(4.166667,0,0,4.166667,0,0)">
        <g transform="matrix(9,0,0,9,508.813444,489.87988)">
            <path d="M0.602,-0.044C0.602,-0.035 0.601,-0.028 0.6,-0.022C0.599,-0.017 0.597,-0.013 0.594,-0.01C0.591,-0.008 0.587,-0.005 0.583,-0.003C0.578,-0.001 0.572,0.001 0.565,0.003C0.559,0.005 0.551,0.006 0.544,0.007C0.536,0.008 0.529,0.008 0.521,0.008C0.498,0.008 0.479,0.005 0.462,-0.001C0.446,-0.007 0.433,-0.016 0.423,-0.028C0.412,-0.04 0.405,-0.056 0.4,-0.074C0.395,-0.093 0.393,-0.115 0.393,-0.141L0.393,-0.397L0.174,-0.397L0.174,-0.152C0.174,-0.122 0.179,-0.099 0.188,-0.084C0.197,-0.068 0.213,-0.061 0.236,-0.061C0.243,-0.061 0.25,-0.061 0.256,-0.063C0.262,-0.064 0.267,-0.066 0.271,-0.067C0.276,-0.069 0.28,-0.071 0.283,-0.072C0.286,-0.073 0.289,-0.074 0.292,-0.074C0.294,-0.074 0.295,-0.074 0.297,-0.073C0.298,-0.072 0.299,-0.071 0.3,-0.068C0.301,-0.066 0.302,-0.063 0.302,-0.059C0.303,-0.055 0.303,-0.05 0.303,-0.044C0.303,-0.039 0.303,-0.035 0.303,-0.031C0.302,-0.028 0.302,-0.025 0.302,-0.022C0.301,-0.019 0.3,-0.017 0.299,-0.015C0.298,-0.013 0.296,-0.011 0.294,-0.009C0.291,-0.006 0.288,-0.004 0.283,-0.002C0.278,-0 0.272,0.002 0.266,0.003C0.259,0.005 0.252,0.006 0.245,0.007C0.237,0.008 0.23,0.008 0.222,0.008C0.199,0.008 0.18,0.005 0.164,-0.001C0.147,-0.007 0.134,-0.016 0.124,-0.028C0.113,-0.04 0.106,-0.056 0.101,-0.074C0.096,-0.093 0.094,-0.115 0.094,-0.141L0.094,-0.397L0.032,-0.397C0.027,-0.397 0.023,-0.4 0.021,-0.405C0.018,-0.41 0.016,-0.419 0.016,-0.431C0.016,-0.437 0.017,-0.442 0.017,-0.446C0.018,-0.451 0.019,-0.454 0.021,-0.457C0.022,-0.46 0.024,-0.462 0.026,-0.463C0.028,-0.464 0.03,-0.464 0.033,-0.464L0.094,-0.464L0.094,-0.569C0.094,-0.571 0.094,-0.573 0.095,-0.575C0.097,-0.577 0.099,-0.579 0.102,-0.58C0.105,-0.582 0.109,-0.583 0.114,-0.583C0.119,-0.584 0.126,-0.584 0.134,-0.584C0.142,-0.584 0.149,-0.584 0.154,-0.583C0.159,-0.583 0.163,-0.582 0.166,-0.58C0.169,-0.579 0.171,-0.577 0.172,-0.575C0.174,-0.573 0.174,-0.571 0.174,-0.569L0.174,-0.464L0.393,-0.464L0.393,-0.59C0.393,-0.592 0.393,-0.595 0.395,-0.597C0.396,-0.599 0.398,-0.6 0.401,-0.601C0.404,-0.602 0.408,-0.603 0.414,-0.604C0.419,-0.605 0.425,-0.605 0.433,-0.605C0.441,-0.605 0.447,-0.605 0.453,-0.604C0.458,-0.603 0.462,-0.602 0.465,-0.601C0.468,-0.6 0.47,-0.599 0.472,-0.597C0.473,-0.595 0.474,-0.592 0.474,-0.59L0.474,-0.464L0.586,-0.464C0.589,-0.464 0.591,-0.464 0.593,-0.463C0.595,-0.462 0.596,-0.46 0.598,-0.457C0.599,-0.454 0.6,-0.451 0.601,-0.446C0.602,-0.442 0.602,-0.437 0.602,-0.431C0.602,-0.419 0.601,-0.41 0.598,-0.405C0.595,-0.4 0.591,-0.397 0.586,-0.397L0.474,-0.397L0.474,-0.152C0.474,-0.122 0.478,-0.099 0.487,-0.084C0.496,-0.068 0.512,-0.061 0.535,-0.061C0.542,-0.061 0.548,-0.061 0.554,-0.063C0.56,-0.064 0.566,-0.066 0.57,-0.067C0.575,-0.069 0.579,-0.071 0.582,-0.072C0.586,-0.073 0.589,-0.074 0.591,-0.074C0.593,-0.074 0.594,-0.074 0.596,-0.073C0.597,-0.072 0.598,-0.071 0.599,-0.068C0.6,-0.066 0.6,-0.063 0.601,-0.059C0.602,-0.055 0.602,-0.05 0.602,-0.044Z" style="fill-rule:nonzero;"/>
        </g>
        <g transform="matrix(9,0,0,9,508.813444,489.87988)">
        </g>
        <g transform="matrix(9,0,0,9,511.665773,489.87988)">
        </g>
        <text x="87.119px" y="489.88px" style="font-family:'Calibri', sans-serif;font-size:9px;">DTO<tspan x="102.99px " y="489.88px "> </tspan>Bake<tspan x="122.783px " y="489.88px ">d</tspan> Chicke<tspan x="153.485px " y="489.88px ">n</tspan>, Sausage w/ Pe<tspan x="215.264px " y="489.88px ">p</tspan>pers<tspan x="235.838px " y="489.88px "> </tspan>&amp; Onions, Pe<tspan x="285.157px " y="489.88px ">n</tspan>ne w/ Marinara<tspan x="346.714px " y="489.88px ">,</tspan> House Salad w/ Dressing, Dinner<tspan x="469.7px " y="489.88px "> </tspan>Ro<tspan x="481.357px " y="489.88px ">l</tspan>ls &amp; Bu<tspan x="514.518px " y="489.88px ">e</tspan>r</text>
    </g>
    <g transform="matrix(4.166667,0,0,4.166667,0,0)">
        <text x="287.714px" y="502.514px" style="font-family:'Calibri', sans-serif;font-size:9px;">$19.75 pp</text>
    </g>
    <g transform="matrix(4.166667,0,0,4.166667,0,0)">
        <text x="262.534px" y="515.148px" style="font-family:'Calibri', sans-serif;font-size:9px;">Add Meatballs $2.50 pp</text>
    </g>
    <g transform="matrix(4.166667,0,0,4.166667,0,0)">
        <g transform="matrix(9,0,0,9,430.977048,540.41699)">
            <path d="M0.602,-0.044C0.602,-0.035 0.601,-0.028 0.6,-0.022C0.599,-0.017 0.597,-0.013 0.594,-0.01C0.591,-0.008 0.587,-0.005 0.583,-0.003C0.578,-0.001 0.572,0.001 0.565,0.003C0.559,0.005 0.551,0.006 0.544,0.007C0.536,0.008 0.529,0.008 0.521,0.008C0.498,0.008 0.479,0.005 0.462,-0.001C0.446,-0.007 0.433,-0.016 0.423,-0.028C0.412,-0.04 0.405,-0.056 0.4,-0.074C0.395,-0.093 0.393,-0.115 0.393,-0.141L0.393,-0.397L0.174,-0.397L0.174,-0.152C0.174,-0.122 0.179,-0.099 0.188,-0.084C0.197,-0.068 0.213,-0.061 0.236,-0.061C0.243,-0.061 0.25,-0.061 0.256,-0.063C0.262,-0.064 0.267,-0.066 0.271,-0.067C0.276,-0.069 0.28,-0.071 0.283,-0.072C0.286,-0.073 0.289,-0.074 0.292,-0.074C0.294,-0.074 0.295,-0.074 0.297,-0.073C0.298,-0.072 0.299,-0.071 0.3,-0.068C0.301,-0.066 0.302,-0.063 0.302,-0.059C0.303,-0.055 0.303,-0.05 0.303,-0.044C0.303,-0.039 0.303,-0.035 0.303,-0.031C0.302,-0.028 0.302,-0.025 0.302,-0.022C0.301,-0.019 0.3,-0.017 0.299,-0.015C0.298,-0.013 0.296,-0.011 0.294,-0.009C0.291,-0.006 0.288,-0.004 0.283,-0.002C0.278,-0 0.272,0.002 0.266,0.003C0.259,0.005 0.252,0.006 0.245,0.007C0.237,0.008 0.23,0.008 0.222,0.008C0.199,0.008 0.18,0.005 0.164,-0.001C0.147,-0.007 0.134,-0.016 0.124,-0.028C0.113,-0.04 0.106,-0.056 0.101,-0.074C0.096,-0.093 0.094,-0.115 0.094,-0.141L0.094,-0.397L0.032,-0.397C0.027,-0.397 0.023,-0.4 0.021,-0.405C0.018,-0.41 0.016,-0.419 0.016,-0.431C0.016,-0.437 0.017,-0.442 0.017,-0.446C0.018,-0.451 0.019,-0.454 0.021,-0.457C0.022,-0.46 0.024,-0.462 0.026,-0.463C0.028,-0.464 0.03,-0.464 0.033,-0.464L0.094,-0.464L0.094,-0.569C0.094,-0.571 0.094,-0.573 0.095,-0.575C0.097,-0.577 0.099,-0.579 0.102,-0.58C0.105,-0.582 0.109,-0.583 0.114,-0.583C0.119,-0.584 0.126,-0.584 0.134,-0.584C0.142,-0.584 0.149,-0.584 0.154,-0.583C0.159,-0.583 0.163,-0.582 0.166,-0.58C0.169,-0.579 0.171,-0.577 0.172,-0.575C0.174,-0.573 0.174,-0.571 0.174,-0.569L0.174,-0.464L0.393,-0.464L0.393,-0.59C0.393,-0.592 0.393,-0.595 0.395,-0.597C0.396,-0.599 0.398,-0.6 0.401,-0.601C0.404,-0.602 0.408,-0.603 0.414,-0.604C0.419,-0.605 0.425,-0.605 0.433,-0.605C0.441,-0.605 0.447,-0.605 0.453,-0.604C0.458,-0.603 0.462,-0.602 0.465,-0.601C0.468,-0.6 0.47,-0.599 0.472,-0.597C0.473,-0.595 0.474,-0.592 0.474,-0.59L0.474,-0.464L0.586,-0.464C0.589,-0.464 0.591,-0.464 0.593,-0.463C0.595,-0.462 0.596,-0.46 0.598,-0.457C0.599,-0.454 0.6,-0.451 0.601,-0.446C0.602,-0.442 0.602,-0.437 0.602,-0.431C0.602,-0.419 0.601,-0.41 0.598,-0.405C0.595,-0.4 0.591,-0.397 0.586,-0.397L0.474,-0.397L0.474,-0.152C0.474,-0.122 0.478,-0.099 0.487,-0.084C0.496,-0.068 0.512,-0.061 0.535,-0.061C0.542,-0.061 0.548,-0.061 0.554,-0.063C0.56,-0.064 0.566,-0.066 0.57,-0.067C0.575,-0.069 0.579,-0.071 0.582,-0.072C0.586,-0.073 0.589,-0.074 0.591,-0.074C0.593,-0.074 0.594,-0.074 0.596,-0.073C0.597,-0.072 0.598,-0.071 0.599,-0.068C0.6,-0.066 0.6,-0.063 0.601,-0.059C0.602,-0.055 0.602,-0.05 0.602,-0.044Z" style="fill-rule:nonzero;"/>
        </g>
        <g transform="matrix(9,0,0,9,430.977048,540.41699)">
        </g>
        <g transform="matrix(9,0,0,9,433.829159,540.41699)">
        </g>
        <text x="130.487px" y="540.417px" style="font-family:'Calibri', sans-serif;font-size:9px;">Chicke<tspan x="154.429px " y="540.417px ">n</tspan> Pa<tspan x="170.137px " y="540.417px ">r</tspan>mesan, Pe<tspan x="210.867px " y="540.417px ">n</tspan>ne w/ Marinara<tspan x="272.417px " y="540.417px ">,</tspan> House Salad w/ Dressing, Di<tspan x="378.33px " y="540.417px ">n</tspan>ner Ro<tspan x="407.041px " y="540.417px ">l</tspan>l &amp; Bu<tspan x="436.681px " y="540.417px ">e</tspan>r $17.95pp</text>
    </g>
    <g transform="matrix(4.166667,0,0,4.166667,0,0)">
        <text x="263.551px" y="553.051px" style="font-family:'Calibri', sans-serif;font-size:9px;">Add Meatballs $2.50pp</text>
    </g>
    <g transform="matrix(4.166667,0,0,4.166667,0,0)">
        <text x="247.772px" y="565.686px" style="font-family:'Calibri', sans-serif;font-size:9px;">Add Italian Gre<tspan x="302.491px " y="565.686px ">e</tspan>n Bean $1.95pp</text>
    </g>
    <g transform="matrix(4.166667,0,0,4.166667,0,0)">
        <g transform="matrix(9,0,0,9,413.814835,590.9541)">
            <path d="M0.602,-0.044C0.602,-0.035 0.601,-0.028 0.6,-0.022C0.599,-0.017 0.597,-0.013 0.594,-0.01C0.591,-0.008 0.587,-0.005 0.583,-0.003C0.578,-0.001 0.572,0.001 0.565,0.003C0.559,0.005 0.551,0.006 0.544,0.007C0.536,0.008 0.529,0.008 0.521,0.008C0.498,0.008 0.479,0.005 0.462,-0.001C0.446,-0.007 0.433,-0.016 0.423,-0.028C0.412,-0.04 0.405,-0.056 0.4,-0.074C0.395,-0.093 0.393,-0.115 0.393,-0.141L0.393,-0.397L0.174,-0.397L0.174,-0.152C0.174,-0.122 0.179,-0.099 0.188,-0.084C0.197,-0.068 0.213,-0.061 0.236,-0.061C0.243,-0.061 0.25,-0.061 0.256,-0.063C0.262,-0.064 0.267,-0.066 0.271,-0.067C0.276,-0.069 0.28,-0.071 0.283,-0.072C0.286,-0.073 0.289,-0.074 0.292,-0.074C0.294,-0.074 0.295,-0.074 0.297,-0.073C0.298,-0.072 0.299,-0.071 0.3,-0.068C0.301,-0.066 0.302,-0.063 0.302,-0.059C0.303,-0.055 0.303,-0.05 0.303,-0.044C0.303,-0.039 0.303,-0.035 0.303,-0.031C0.302,-0.028 0.302,-0.025 0.302,-0.022C0.301,-0.019 0.3,-0.017 0.299,-0.015C0.298,-0.013 0.296,-0.011 0.294,-0.009C0.291,-0.006 0.288,-0.004 0.283,-0.002C0.278,-0 0.272,0.002 0.266,0.003C0.259,0.005 0.252,0.006 0.245,0.007C0.237,0.008 0.23,0.008 0.222,0.008C0.199,0.008 0.18,0.005 0.164,-0.001C0.147,-0.007 0.134,-0.016 0.124,-0.028C0.113,-0.04 0.106,-0.056 0.101,-0.074C0.096,-0.093 0.094,-0.115 0.094,-0.141L0.094,-0.397L0.032,-0.397C0.027,-0.397 0.023,-0.4 0.021,-0.405C0.018,-0.41 0.016,-0.419 0.016,-0.431C0.016,-0.437 0.017,-0.442 0.017,-0.446C0.018,-0.451 0.019,-0.454 0.021,-0.457C0.022,-0.46 0.024,-0.462 0.026,-0.463C0.028,-0.464 0.03,-0.464 0.033,-0.464L0.094,-0.464L0.094,-0.569C0.094,-0.571 0.094,-0.573 0.095,-0.575C0.097,-0.577 0.099,-0.579 0.102,-0.58C0.105,-0.582 0.109,-0.583 0.114,-0.583C0.119,-0.584 0.126,-0.584 0.134,-0.584C0.142,-0.584 0.149,-0.584 0.154,-0.583C0.159,-0.583 0.163,-0.582 0.166,-0.58C0.169,-0.579 0.171,-0.577 0.172,-0.575C0.174,-0.573 0.174,-0.571 0.174,-0.569L0.174,-0.464L0.393,-0.464L0.393,-0.59C0.393,-0.592 0.393,-0.595 0.395,-0.597C0.396,-0.599 0.398,-0.6 0.401,-0.601C0.404,-0.602 0.408,-0.603 0.414,-0.604C0.419,-0.605 0.425,-0.605 0.433,-0.605C0.441,-0.605 0.447,-0.605 0.453,-0.604C0.458,-0.603 0.462,-0.602 0.465,-0.601C0.468,-0.6 0.47,-0.599 0.472,-0.597C0.473,-0.595 0.474,-0.592 0.474,-0.59L0.474,-0.464L0.586,-0.464C0.589,-0.464 0.591,-0.464 0.593,-0.463C0.595,-0.462 0.596,-0.46 0.598,-0.457C0.599,-0.454 0.6,-0.451 0.601,-0.446C0.602,-0.442 0.602,-0.437 0.602,-0.431C0.602,-0.419 0.601,-0.41 0.598,-0.405C0.595,-0.4 0.591,-0.397 0.586,-0.397L0.474,-0.397L0.474,-0.152C0.474,-0.122 0.478,-0.099 0.487,-0.084C0.496,-0.068 0.512,-0.061 0.535,-0.061C0.542,-0.061 0.548,-0.061 0.554,-0.063C0.56,-0.064 0.566,-0.066 0.57,-0.067C0.575,-0.069 0.579,-0.071 0.582,-0.072C0.586,-0.073 0.589,-0.074 0.591,-0.074C0.593,-0.074 0.594,-0.074 0.596,-0.073C0.597,-0.072 0.598,-0.071 0.599,-0.068C0.6,-0.066 0.6,-0.063 0.601,-0.059C0.602,-0.055 0.602,-0.05 0.602,-0.044Z" style="fill-rule:nonzero;"/>
        </g>
        <g transform="matrix(9,0,0,9,413.814835,590.9541)">
        </g>
        <g transform="matrix(9,0,0,9,416.666907,590.9541)">
        </g>
        <text x="147.68px" y="590.954px" style="font-family:'Calibri', sans-serif;font-size:9px;">Pe<tspan x="156.799px " y="590.954px ">n</tspan>ne w/ Marinara<tspan x="218.348px " y="590.954px ">,</tspan> Meatball, House Salad w/ Dressing, Dinner Roll &amp; Bu<tspan x="419.519px " y="590.954px ">e</tspan>r $14.95pp</text>
    </g>
    <g transform="matrix(4.166667,0,0,4.166667,0,0)">
        <text x="86.41px" y="616.223px" style="font-family:'Calibri', sans-serif;font-size:9px;">“Let’<tspan x="103.677px 107.193px " y="616.223px 616.223px ">s </tspan>Cook Out”<tspan x="147.074px " y="616.223px ">-</tspan> Hamburge<tspan x="190.24px " y="616.223px ">r</tspan>/ Cheeseburge<tspan x="246.622px " y="616.223px ">r</tspan> Bar w/ all Condiments (Ke<tspan x="346.405px 349.415px 353.216px " y="616.223px 616.223px 616.223px ">tch</tspan>up, Musta<tspan x="394.911px 398.044px 402.769px " y="616.223px 616.223px 616.223px ">rd,</tspan> Re<tspan x="416.399px " y="616.223px ">l</tspan>ish, Onion, American Cheese,</text>
    </g>
    <g transform="matrix(4.166667,0,0,4.166667,0,0)">
        <g transform="matrix(9,0,0,9,151.855734,628.85693)">
            <path d="M0.602,-0.044C0.602,-0.035 0.601,-0.028 0.6,-0.022C0.599,-0.017 0.597,-0.013 0.594,-0.01C0.591,-0.008 0.587,-0.005 0.583,-0.003C0.578,-0.001 0.572,0.001 0.565,0.003C0.559,0.005 0.551,0.006 0.544,0.007C0.536,0.008 0.529,0.008 0.521,0.008C0.498,0.008 0.479,0.005 0.462,-0.001C0.446,-0.007 0.433,-0.016 0.423,-0.028C0.412,-0.04 0.405,-0.056 0.4,-0.074C0.395,-0.093 0.393,-0.115 0.393,-0.141L0.393,-0.397L0.174,-0.397L0.174,-0.152C0.174,-0.122 0.179,-0.099 0.188,-0.084C0.197,-0.068 0.213,-0.061 0.236,-0.061C0.243,-0.061 0.25,-0.061 0.256,-0.063C0.262,-0.064 0.267,-0.066 0.271,-0.067C0.276,-0.069 0.28,-0.071 0.283,-0.072C0.286,-0.073 0.289,-0.074 0.292,-0.074C0.294,-0.074 0.295,-0.074 0.297,-0.073C0.298,-0.072 0.299,-0.071 0.3,-0.068C0.301,-0.066 0.302,-0.063 0.302,-0.059C0.303,-0.055 0.303,-0.05 0.303,-0.044C0.303,-0.039 0.303,-0.035 0.303,-0.031C0.302,-0.028 0.302,-0.025 0.302,-0.022C0.301,-0.019 0.3,-0.017 0.299,-0.015C0.298,-0.013 0.296,-0.011 0.294,-0.009C0.291,-0.006 0.288,-0.004 0.283,-0.002C0.278,-0 0.272,0.002 0.266,0.003C0.259,0.005 0.252,0.006 0.245,0.007C0.237,0.008 0.23,0.008 0.222,0.008C0.199,0.008 0.18,0.005 0.164,-0.001C0.147,-0.007 0.134,-0.016 0.124,-0.028C0.113,-0.04 0.106,-0.056 0.101,-0.074C0.096,-0.093 0.094,-0.115 0.094,-0.141L0.094,-0.397L0.032,-0.397C0.027,-0.397 0.023,-0.4 0.021,-0.405C0.018,-0.41 0.016,-0.419 0.016,-0.431C0.016,-0.437 0.017,-0.442 0.017,-0.446C0.018,-0.451 0.019,-0.454 0.021,-0.457C0.022,-0.46 0.024,-0.462 0.026,-0.463C0.028,-0.464 0.03,-0.464 0.033,-0.464L0.094,-0.464L0.094,-0.569C0.094,-0.571 0.094,-0.573 0.095,-0.575C0.097,-0.577 0.099,-0.579 0.102,-0.58C0.105,-0.582 0.109,-0.583 0.114,-0.583C0.119,-0.584 0.126,-0.584 0.134,-0.584C0.142,-0.584 0.149,-0.584 0.154,-0.583C0.159,-0.583 0.163,-0.582 0.166,-0.58C0.169,-0.579 0.171,-0.577 0.172,-0.575C0.174,-0.573 0.174,-0.571 0.174,-0.569L0.174,-0.464L0.393,-0.464L0.393,-0.59C0.393,-0.592 0.393,-0.595 0.395,-0.597C0.396,-0.599 0.398,-0.6 0.401,-0.601C0.404,-0.602 0.408,-0.603 0.414,-0.604C0.419,-0.605 0.425,-0.605 0.433,-0.605C0.441,-0.605 0.447,-0.605 0.453,-0.604C0.458,-0.603 0.462,-0.602 0.465,-0.601C0.468,-0.6 0.47,-0.599 0.472,-0.597C0.473,-0.595 0.474,-0.592 0.474,-0.59L0.474,-0.464L0.586,-0.464C0.589,-0.464 0.591,-0.464 0.593,-0.463C0.595,-0.462 0.596,-0.46 0.598,-0.457C0.599,-0.454 0.6,-0.451 0.601,-0.446C0.602,-0.442 0.602,-0.437 0.602,-0.431C0.602,-0.419 0.601,-0.41 0.598,-0.405C0.595,-0.4 0.591,-0.397 0.586,-0.397L0.474,-0.397L0.474,-0.152C0.474,-0.122 0.478,-0.099 0.487,-0.084C0.496,-0.068 0.512,-0.061 0.535,-0.061C0.542,-0.061 0.548,-0.061 0.554,-0.063C0.56,-0.064 0.566,-0.066 0.57,-0.067C0.575,-0.069 0.579,-0.071 0.582,-0.072C0.586,-0.073 0.589,-0.074 0.591,-0.074C0.593,-0.074 0.594,-0.074 0.596,-0.073C0.597,-0.072 0.598,-0.071 0.599,-0.068C0.6,-0.066 0.6,-0.063 0.601,-0.059C0.602,-0.055 0.602,-0.05 0.602,-0.044Z" style="fill-rule:nonzero;"/>
        </g>
        <g transform="matrix(9,0,0,9,151.855734,628.85693)">
        </g>
        <g transform="matrix(9,0,0,9,154.707913,628.85693)">
        </g>
        <text x="143.602px" y="628.857px" style="font-family:'Calibri', sans-serif;font-size:9px;">Le<tspan x="157.56px " y="628.857px ">u</tspan>ce, To<tspan x="183.957px " y="628.857px ">m</tspan>ato<tspan x="203.202px " y="628.857px "> </tspan>&amp; Onion, Ro<tspan x="249.507px " y="628.857px ">l</tspan>ls), Hot Dog,<tspan x="296.28px " y="628.857px "> </tspan>Pa<tspan x="307.265px " y="628.857px ">s</tspan>ta<tspan x="318.098px " y="628.857px "> </tspan>Salad, Po<tspan x="353.322px 356.333px 360.639px 363.65px 368.392px " y="628.857px 628.857px 628.857px 628.857px 628.857px ">tato </tspan>Salad, Bake<tspan x="411.988px " y="628.857px ">d</tspan> Beans $16.95</text>
    </g>
    <g transform="matrix(4.166667,0,0,4.166667,0,0)">
        <text x="261.07px" y="641.491px" style="font-family:'Calibri', sans-serif;font-size:9px;">Add Fresh Fruit $3.50 pp</text>
    </g>
    <g transform="matrix(4.166667,0,0,4.166667,0,0)">
        <text x="225.94px" y="654.125px" style="font-family:'Calibri', sans-serif;font-size:9px;">Add Sausage w/ Pe<tspan x="295.405px " y="654.125px ">p</tspan>pers<tspan x="315.978px " y="654.125px "> </tspan>&amp; Onions $4.25 pp</text>
    </g>
    <g transform="matrix(4.166667,0,0,4.166667,0,0)">
        <g transform="matrix(9,0,0,9,342.751597,679.39404)">
        </g>
        <g transform="matrix(9,0,0,9,345.3754,679.39404)">
        </g>
        <text x="91.942px" y="679.394px" style="font-family:'Calibri', sans-serif;font-size:9px;">Assorted Wr<tspan x="137.433px 141.74px " y="679.394px 679.394px ">ap</tspan>s (Ham &amp; Tu<tspan x="191.142px " y="679.394px ">r</tspan>ke<tspan x="202.837px " y="679.394px ">y</tspan> Club w/ Honey Must<tspan x="283.801px 288.109px 291.242px 295.967px " y="679.394px 679.394px 679.394px 679.394px ">ard,</tspan> Medium Buﬀalo Chicke<tspan x="385.087px " y="679.394px ">n</tspan>, Chicke<tspan x="418.031px " y="679.394px ">n</tspan> Caesar &amp; Beef &amp; Cheddar,</text>
    </g>
    <g transform="matrix(4.166667,0,0,4.166667,0,0)">
        <g transform="matrix(9,0,0,9,257.75686,692.02832)">
            <path d="M0.602,-0.044C0.602,-0.035 0.601,-0.028 0.6,-0.022C0.599,-0.017 0.597,-0.013 0.594,-0.01C0.591,-0.008 0.587,-0.005 0.583,-0.003C0.578,-0.001 0.572,0.001 0.565,0.003C0.559,0.005 0.551,0.006 0.544,0.007C0.536,0.008 0.529,0.008 0.521,0.008C0.498,0.008 0.479,0.005 0.462,-0.001C0.446,-0.007 0.433,-0.016 0.423,-0.028C0.412,-0.04 0.405,-0.056 0.4,-0.074C0.395,-0.093 0.393,-0.115 0.393,-0.141L0.393,-0.397L0.174,-0.397L0.174,-0.152C0.174,-0.122 0.179,-0.099 0.188,-0.084C0.197,-0.068 0.213,-0.061 0.236,-0.061C0.243,-0.061 0.25,-0.061 0.256,-0.063C0.262,-0.064 0.267,-0.066 0.271,-0.067C0.276,-0.069 0.28,-0.071 0.283,-0.072C0.286,-0.073 0.289,-0.074 0.292,-0.074C0.294,-0.074 0.295,-0.074 0.297,-0.073C0.298,-0.072 0.299,-0.071 0.3,-0.068C0.301,-0.066 0.302,-0.063 0.302,-0.059C0.303,-0.055 0.303,-0.05 0.303,-0.044C0.303,-0.039 0.303,-0.035 0.303,-0.031C0.302,-0.028 0.302,-0.025 0.302,-0.022C0.301,-0.019 0.3,-0.017 0.299,-0.015C0.298,-0.013 0.296,-0.011 0.294,-0.009C0.291,-0.006 0.288,-0.004 0.283,-0.002C0.278,-0 0.272,0.002 0.266,0.003C0.259,0.005 0.252,0.006 0.245,0.007C0.237,0.008 0.23,0.008 0.222,0.008C0.199,0.008 0.18,0.005 0.164,-0.001C0.147,-0.007 0.134,-0.016 0.124,-0.028C0.113,-0.04 0.106,-0.056 0.101,-0.074C0.096,-0.093 0.094,-0.115 0.094,-0.141L0.094,-0.397L0.032,-0.397C0.027,-0.397 0.023,-0.4 0.021,-0.405C0.018,-0.41 0.016,-0.419 0.016,-0.431C0.016,-0.437 0.017,-0.442 0.017,-0.446C0.018,-0.451 0.019,-0.454 0.021,-0.457C0.022,-0.46 0.024,-0.462 0.026,-0.463C0.028,-0.464 0.03,-0.464 0.033,-0.464L0.094,-0.464L0.094,-0.569C0.094,-0.571 0.094,-0.573 0.095,-0.575C0.097,-0.577 0.099,-0.579 0.102,-0.58C0.105,-0.582 0.109,-0.583 0.114,-0.583C0.119,-0.584 0.126,-0.584 0.134,-0.584C0.142,-0.584 0.149,-0.584 0.154,-0.583C0.159,-0.583 0.163,-0.582 0.166,-0.58C0.169,-0.579 0.171,-0.577 0.172,-0.575C0.174,-0.573 0.174,-0.571 0.174,-0.569L0.174,-0.464L0.393,-0.464L0.393,-0.59C0.393,-0.592 0.393,-0.595 0.395,-0.597C0.396,-0.599 0.398,-0.6 0.401,-0.601C0.404,-0.602 0.408,-0.603 0.414,-0.604C0.419,-0.605 0.425,-0.605 0.433,-0.605C0.441,-0.605 0.447,-0.605 0.453,-0.604C0.458,-0.603 0.462,-0.602 0.465,-0.601C0.468,-0.6 0.47,-0.599 0.472,-0.597C0.473,-0.595 0.474,-0.592 0.474,-0.59L0.474,-0.464L0.586,-0.464C0.589,-0.464 0.591,-0.464 0.593,-0.463C0.595,-0.462 0.596,-0.46 0.598,-0.457C0.599,-0.454 0.6,-0.451 0.601,-0.446C0.602,-0.442 0.602,-0.437 0.602,-0.431C0.602,-0.419 0.601,-0.41 0.598,-0.405C0.595,-0.4 0.591,-0.397 0.586,-0.397L0.474,-0.397L0.474,-0.152C0.474,-0.122 0.478,-0.099 0.487,-0.084C0.496,-0.068 0.512,-0.061 0.535,-0.061C0.542,-0.061 0.548,-0.061 0.554,-0.063C0.56,-0.064 0.566,-0.066 0.57,-0.067C0.575,-0.069 0.579,-0.071 0.582,-0.072C0.586,-0.073 0.589,-0.074 0.591,-0.074C0.593,-0.074 0.594,-0.074 0.596,-0.073C0.597,-0.072 0.598,-0.071 0.599,-0.068C0.6,-0.066 0.6,-0.063 0.601,-0.059C0.602,-0.055 0.602,-0.05 0.602,-0.044Z" style="fill-rule:nonzero;"/>
        </g>
        <g transform="matrix(9,0,0,9,257.75686,692.02832)">
        </g>
        <g transform="matrix(9,0,0,9,260.609059,692.02832)">
        </g>
        <text x="185.981px" y="692.028px" style="font-family:'Calibri', sans-serif;font-size:9px;">Homemade DTO<tspan x="246.578px " y="692.028px "> </tspan>Ke<tspan x="263.461px " y="692.028px ">l</tspan>e Chips, Choice of Salad &amp; Cookie $16.<tspan x="404.878px " y="692.028px ">9</tspan>5 pp</text>
    </g>
    <g transform="matrix(4.166667,0,0,4.166667,0,0)">
        <g transform="matrix(9,0,0,9,293.491658,717.29688)">
            <path d="M0.439,-0.012C0.439,-0.01 0.438,-0.007 0.436,-0.006C0.434,-0.004 0.432,-0.002 0.429,-0.001C0.425,0 0.421,0.001 0.416,0.002C0.41,0.003 0.404,0.003 0.396,0.003C0.388,0.003 0.382,0.003 0.376,0.002C0.371,0.001 0.367,0 0.365,-0.001C0.362,-0.002 0.36,-0.004 0.359,-0.006C0.358,-0.007 0.358,-0.01 0.358,-0.012L0.436,-0.397L0.208,-0.397L0.159,-0.152C0.158,-0.146 0.157,-0.138 0.156,-0.129C0.155,-0.121 0.154,-0.114 0.154,-0.108C0.154,-0.092 0.158,-0.08 0.165,-0.072C0.172,-0.064 0.183,-0.061 0.199,-0.061C0.208,-0.061 0.215,-0.061 0.222,-0.063C0.228,-0.064 0.234,-0.066 0.239,-0.067C0.243,-0.069 0.247,-0.071 0.251,-0.072C0.255,-0.073 0.258,-0.074 0.26,-0.074C0.263,-0.074 0.265,-0.073 0.266,-0.072C0.268,-0.07 0.269,-0.066 0.269,-0.062C0.269,-0.057 0.268,-0.053 0.267,-0.048C0.267,-0.043 0.265,-0.038 0.264,-0.033C0.263,-0.028 0.261,-0.023 0.259,-0.02C0.257,-0.016 0.255,-0.013 0.253,-0.01C0.25,-0.008 0.246,-0.006 0.241,-0.003C0.236,-0.001 0.23,0.001 0.223,0.003C0.216,0.004 0.209,0.006 0.201,0.007C0.194,0.008 0.186,0.008 0.179,0.008C0.16,0.008 0.145,0.006 0.131,0.002C0.118,-0.001 0.107,-0.008 0.098,-0.016C0.089,-0.024 0.082,-0.035 0.077,-0.047C0.073,-0.06 0.071,-0.075 0.071,-0.092C0.071,-0.096 0.071,-0.101 0.071,-0.105C0.072,-0.11 0.072,-0.115 0.073,-0.12C0.074,-0.125 0.075,-0.131 0.075,-0.136C0.076,-0.141 0.077,-0.146 0.078,-0.15L0.127,-0.397L0.066,-0.397C0.063,-0.397 0.06,-0.399 0.058,-0.401C0.056,-0.403 0.055,-0.407 0.055,-0.413C0.055,-0.418 0.056,-0.423 0.057,-0.429C0.058,-0.435 0.059,-0.441 0.061,-0.446C0.063,-0.451 0.066,-0.455 0.069,-0.459C0.072,-0.463 0.075,-0.464 0.08,-0.464L0.141,-0.464L0.162,-0.569C0.162,-0.571 0.163,-0.573 0.165,-0.575C0.167,-0.577 0.17,-0.579 0.173,-0.58C0.176,-0.582 0.18,-0.583 0.186,-0.583C0.191,-0.584 0.198,-0.584 0.206,-0.584C0.213,-0.584 0.22,-0.584 0.225,-0.583C0.23,-0.583 0.234,-0.582 0.237,-0.58C0.24,-0.579 0.242,-0.577 0.242,-0.575C0.243,-0.573 0.243,-0.571 0.243,-0.569L0.222,-0.464L0.504,-0.464C0.514,-0.464 0.52,-0.462 0.523,-0.458C0.526,-0.453 0.526,-0.447 0.524,-0.438L0.439,-0.012ZM0.565,-0.6C0.564,-0.59 0.562,-0.583 0.559,-0.577C0.556,-0.57 0.552,-0.566 0.548,-0.562C0.543,-0.558 0.538,-0.555 0.531,-0.554C0.524,-0.552 0.516,-0.551 0.506,-0.551C0.497,-0.551 0.489,-0.552 0.483,-0.554C0.477,-0.555 0.472,-0.558 0.469,-0.562C0.467,-0.566 0.465,-0.57 0.465,-0.577C0.465,-0.583 0.465,-0.59 0.467,-0.6C0.468,-0.609 0.471,-0.616 0.473,-0.622C0.476,-0.628 0.48,-0.633 0.485,-0.637C0.489,-0.642 0.495,-0.644 0.501,-0.646C0.508,-0.647 0.516,-0.648 0.526,-0.648C0.536,-0.648 0.544,-0.647 0.55,-0.646C0.556,-0.644 0.56,-0.642 0.563,-0.637C0.566,-0.633 0.568,-0.628 0.568,-0.622C0.568,-0.616 0.567,-0.609 0.565,-0.6Z" style="fill-rule:nonzero;"/>
        </g>
        <g transform="matrix(9,0,0,9,293.491658,717.29688)">
        </g>
        <g transform="matrix(9,0,0,9,296.465464,717.29688)">
        </g>
        <text x="274.748px" y="717.297px" style="font-family:'Calibri-Italic', 'Calibri', sans-serif;font-style:italic;font-size:9px;">Appe<tspan x="298.502px 302.053px 306.346px " y="717.297px 717.297px 717.297px ">zer</tspan> Menu:</text>
    </g>
    <g transform="matrix(4.166667,0,0,4.166667,0,0)">
        <text x="269.956px" y="729.931px" style="font-family:'Calibri-Italic', 'Calibri', sans-serif;font-style:italic;font-size:9px;">Choose 5- $16.95pp</text>
    </g>
    <g transform="matrix(4.166667,0,0,4.166667,0,0)">
        <g transform="matrix(9,0,0,9,280.904929,742.56543)">
        </g>
        <g transform="matrix(9,0,0,9,283.52918,742.56543)">
        </g>
        <text x="269.202px" y="742.565px" style="font-family:'Calibri-Italic', 'Calibri', sans-serif;font-style:italic;font-size:9px;">Stuﬀed Mushrooms</text>
    </g>
    <g transform="matrix(4.166667,0,0,4.166667,0,0)">
        <text x="276.451px" y="755.2px" style="font-family:'Calibri-Italic', 'Calibri', sans-serif;font-style:italic;font-size:9px;">Flatbread Pizza<tspan x="331.998px " y="755.2px ">s</tspan></text>
    </g>
    <g transform="matrix(4.166667,0,0,4.166667,0,0)">
        <g transform="matrix(9,0,0,9,320.897312,767.83398)">
            <path d="M0.439,-0.012C0.439,-0.01 0.438,-0.007 0.436,-0.006C0.434,-0.004 0.432,-0.002 0.429,-0.001C0.425,0 0.421,0.001 0.416,0.002C0.41,0.003 0.404,0.003 0.396,0.003C0.388,0.003 0.382,0.003 0.376,0.002C0.371,0.001 0.367,0 0.365,-0.001C0.362,-0.002 0.36,-0.004 0.359,-0.006C0.358,-0.007 0.358,-0.01 0.358,-0.012L0.436,-0.397L0.208,-0.397L0.159,-0.152C0.158,-0.146 0.157,-0.138 0.156,-0.129C0.155,-0.121 0.154,-0.114 0.154,-0.108C0.154,-0.092 0.158,-0.08 0.165,-0.072C0.172,-0.064 0.183,-0.061 0.199,-0.061C0.208,-0.061 0.215,-0.061 0.222,-0.063C0.228,-0.064 0.234,-0.066 0.239,-0.067C0.243,-0.069 0.247,-0.071 0.251,-0.072C0.255,-0.073 0.258,-0.074 0.26,-0.074C0.263,-0.074 0.265,-0.073 0.266,-0.072C0.268,-0.07 0.269,-0.066 0.269,-0.062C0.269,-0.057 0.268,-0.053 0.267,-0.048C0.267,-0.043 0.265,-0.038 0.264,-0.033C0.263,-0.028 0.261,-0.023 0.259,-0.02C0.257,-0.016 0.255,-0.013 0.253,-0.01C0.25,-0.008 0.246,-0.006 0.241,-0.003C0.236,-0.001 0.23,0.001 0.223,0.003C0.216,0.004 0.209,0.006 0.201,0.007C0.194,0.008 0.186,0.008 0.179,0.008C0.16,0.008 0.145,0.006 0.131,0.002C0.118,-0.001 0.107,-0.008 0.098,-0.016C0.089,-0.024 0.082,-0.035 0.077,-0.047C0.073,-0.06 0.071,-0.075 0.071,-0.092C0.071,-0.096 0.071,-0.101 0.071,-0.105C0.072,-0.11 0.072,-0.115 0.073,-0.12C0.074,-0.125 0.075,-0.131 0.075,-0.136C0.076,-0.141 0.077,-0.146 0.078,-0.15L0.127,-0.397L0.066,-0.397C0.063,-0.397 0.06,-0.399 0.058,-0.401C0.056,-0.403 0.055,-0.407 0.055,-0.413C0.055,-0.418 0.056,-0.423 0.057,-0.429C0.058,-0.435 0.059,-0.441 0.061,-0.446C0.063,-0.451 0.066,-0.455 0.069,-0.459C0.072,-0.463 0.075,-0.464 0.08,-0.464L0.141,-0.464L0.162,-0.569C0.162,-0.571 0.163,-0.573 0.165,-0.575C0.167,-0.577 0.17,-0.579 0.173,-0.58C0.176,-0.582 0.18,-0.583 0.186,-0.583C0.191,-0.584 0.198,-0.584 0.206,-0.584C0.213,-0.584 0.22,-0.584 0.225,-0.583C0.23,-0.583 0.234,-0.582 0.237,-0.58C0.24,-0.579 0.242,-0.577 0.242,-0.575C0.243,-0.573 0.243,-0.571 0.243,-0.569L0.222,-0.464L0.504,-0.464C0.514,-0.464 0.52,-0.462 0.523,-0.458C0.526,-0.453 0.526,-0.447 0.524,-0.438L0.439,-0.012ZM0.565,-0.6C0.564,-0.59 0.562,-0.583 0.559,-0.577C0.556,-0.57 0.552,-0.566 0.548,-0.562C0.543,-0.558 0.538,-0.555 0.531,-0.554C0.524,-0.552 0.516,-0.551 0.506,-0.551C0.497,-0.551 0.489,-0.552 0.483,-0.554C0.477,-0.555 0.472,-0.558 0.469,-0.562C0.467,-0.566 0.465,-0.57 0.465,-0.577C0.465,-0.583 0.465,-0.59 0.467,-0.6C0.468,-0.609 0.471,-0.616 0.473,-0.622C0.476,-0.628 0.48,-0.633 0.485,-0.637C0.489,-0.642 0.495,-0.644 0.501,-0.646C0.508,-0.647 0.516,-0.648 0.526,-0.648C0.536,-0.648 0.544,-0.647 0.55,-0.646C0.556,-0.644 0.56,-0.642 0.563,-0.637C0.566,-0.633 0.568,-0.628 0.568,-0.622C0.568,-0.616 0.567,-0.609 0.565,-0.6Z" style="fill-rule:nonzero;"/>
        </g>
        <g transform="matrix(9,0,0,9,320.897312,767.83398)">
        </g>
        <g transform="matrix(9,0,0,9,323.871365,767.83398)">
        </g>
        <text x="274.643px" y="767.834px" style="font-family:'Calibri-Italic', 'Calibri', sans-serif;font-style:italic;font-size:9px;">Moz<tspan x="290.501px 294.052px 298.676px " y="767.834px 767.834px 767.834px ">zar</tspan>ella S<tspan x="325.908px " y="767.834px ">c</tspan>ks</text>
    </g>
    <g transform="matrix(4.166667,0,0,4.166667,0,0)">
        <text x="259.49px" y="780.468px" style="font-family:'Calibri-Italic', 'Calibri', sans-serif;font-style:italic;font-size:9px;">Fr<tspan x="266.701px " y="780.468px ">i</tspan>ed Ravioli w/ Marinara</text>
    </g>
</svg>
