<?xml version="1.0" encoding="UTF-8" standalone="no"?>
<!DOCTYPE svg PUBLIC "-//W3C//DTD SVG 1.1//EN" "http://www.w3.org/Graphics/SVG/1.1/DTD/svg11.dtd">
<svg width="100%" height="100%" viewBox="0 0 2550 3300" version="1.1" xmlns="http://www.w3.org/2000/svg" xmlns:xlink="http://www.w3.org/1999/xlink" xml:space="preserve" xmlns:serif="http://www.serif.com/" style="fill-rule:evenodd;clip-rule:evenodd;stroke-linejoin:round;stroke-miterlimit:2;">
    <g transform="matrix(0.208333,0,0,-0.208333,0,3300.000066)">
        <rect x="0" y="0" width="12240" height="15840" style="fill:white;"/>
    </g>
    <g transform="matrix(4.166667,0,0,4.166667,0,0)">
        <text x="263.819px" y="26.736px" style="font-family:'Calibri-Italic', 'Calibri', sans-serif;font-style:italic;font-size:9px;">BBQ Pulled Po<tspan x="315.206px " y="26.736px ">r</tspan>k Sliders</text>
    </g>
    <g transform="matrix(4.166667,0,0,4.166667,0,0)">
        <text x="277.209px" y="39.371px" style="font-family:'Calibri-Italic', 'Calibri', sans-serif;font-style:italic;font-size:9px;">Coconut Shrimp</text>
    </g>
    <g transform="matrix(4.166667,0,0,4.166667,0,0)">
        <text x="268.055px" y="52.005px" style="font-family:'Calibri-Italic', 'Calibri', sans-serif;font-style:italic;font-size:9px;">Breaded Mushrooms</text>
    </g>
    <g transform="matrix(4.166667,0,0,4.166667,0,0)">
        <text x="245.263px" y="64.639px" style="font-family:'Calibri-Italic', 'Calibri', sans-serif;font-style:italic;font-size:9px;">Bacon Wr<tspan x="280.881px " y="64.639px ">a</tspan>pped Wa<tspan x="318.335px " y="64.639px ">t</tspan>er Chest<tspan x="350.882px " y="64.639px ">n</tspan>uts</text>
    </g>
    <g transform="matrix(4.166667,0,0,4.166667,0,0)">
        <text x="272.257px" y="77.273px" style="font-family:'Calibri-Italic', 'Calibri', sans-serif;font-style:italic;font-size:9px;">Cockta<tspan x="297.03px " y="77.273px ">i</tspan>l Meatballs</text>
    </g>
    <g transform="matrix(4.166667,0,0,4.166667,0,0)">
        <g transform="matrix(9,0,0,9,309.048128,89.907715)">
            <path d="M0.439,-0.012C0.439,-0.01 0.438,-0.007 0.436,-0.006C0.434,-0.004 0.432,-0.002 0.429,-0.001C0.425,0 0.421,0.001 0.416,0.002C0.41,0.003 0.404,0.003 0.396,0.003C0.388,0.003 0.382,0.003 0.376,0.002C0.371,0.001 0.367,0 0.365,-0.001C0.362,-0.002 0.36,-0.004 0.359,-0.006C0.358,-0.007 0.358,-0.01 0.358,-0.012L0.436,-0.397L0.208,-0.397L0.159,-0.152C0.158,-0.146 0.157,-0.138 0.156,-0.129C0.155,-0.121 0.154,-0.114 0.154,-0.108C0.154,-0.092 0.158,-0.08 0.165,-0.072C0.172,-0.064 0.183,-0.061 0.199,-0.061C0.208,-0.061 0.215,-0.061 0.222,-0.063C0.228,-0.064 0.234,-0.066 0.239,-0.067C0.243,-0.069 0.247,-0.071 0.251,-0.072C0.255,-0.073 0.258,-0.074 0.26,-0.074C0.263,-0.074 0.265,-0.073 0.266,-0.072C0.268,-0.07 0.269,-0.066 0.269,-0.062C0.269,-0.057 0.268,-0.053 0.267,-0.048C0.267,-0.043 0.265,-0.038 0.264,-0.033C0.263,-0.028 0.261,-0.023 0.259,-0.02C0.257,-0.016 0.255,-0.013 0.253,-0.01C0.25,-0.008 0.246,-0.006 0.241,-0.003C0.236,-0.001 0.23,0.001 0.223,0.003C0.216,0.004 0.209,0.006 0.201,0.007C0.194,0.008 0.186,0.008 0.179,0.008C0.16,0.008 0.145,0.006 0.131,0.002C0.118,-0.001 0.107,-0.008 0.098,-0.016C0.089,-0.024 0.082,-0.035 0.077,-0.047C0.073,-0.06 0.071,-0.075 0.071,-0.092C0.071,-0.096 0.071,-0.101 0.071,-0.105C0.072,-0.11 0.072,-0.115 0.073,-0.12C0.074,-0.125 0.075,-0.131 0.075,-0.136C0.076,-0.141 0.077,-0.146 0.078,-0.15L0.127,-0.397L0.066,-0.397C0.063,-0.397 0.06,-0.399 0.058,-0.401C0.056,-0.403 0.055,-0.407 0.055,-0.413C0.055,-0.418 0.056,-0.423 0.057,-0.429C0.058,-0.435 0.059,-0.441 0.061,-0.446C0.063,-0.451 0.066,-0.455 0.069,-0.459C0.072,-0.463 0.075,-0.464 0.08,-0.464L0.141,-0.464L0.162,-0.569C0.162,-0.571 0.163,-0.573 0.165,-0.575C0.167,-0.577 0.17,-0.579 0.173,-0.58C0.176,-0.582 0.18,-0.583 0.186,-0.583C0.191,-0.584 0.198,-0.584 0.206,-0.584C0.213,-0.584 0.22,-0.584 0.225,-0.583C0.23,-0.583 0.234,-0.582 0.237,-0.58C0.24,-0.579 0.242,-0.577 0.242,-0.575C0.243,-0.573 0.243,-0.571 0.243,-0.569L0.222,-0.464L0.504,-0.464C0.514,-0.464 0.52,-0.462 0.523,-0.458C0.526,-0.453 0.526,-0.447 0.524,-0.438L0.439,-0.012ZM0.565,-0.6C0.564,-0.59 0.562,-0.583 0.559,-0.577C0.556,-0.57 0.552,-0.566 0.548,-0.562C0.543,-0.558 0.538,-0.555 0.531,-0.554C0.524,-0.552 0.516,-0.551 0.506,-0.551C0.497,-0.551 0.489,-0.552 0.483,-0.554C0.477,-0.555 0.472,-0.558 0.469,-0.562C0.467,-0.566 0.465,-0.57 0.465,-0.577C0.465,-0.583 0.465,-0.59 0.467,-0.6C0.468,-0.609 0.471,-0.616 0.473,-0.622C0.476,-0.628 0.48,-0.633 0.485,-0.637C0.489,-0.642 0.495,-0.644 0.501,-0.646C0.508,-0.647 0.516,-0.648 0.526,-0.648C0.536,-0.648 0.544,-0.647 0.55,-0.646C0.556,-0.644 0.56,-0.642 0.563,-0.637C0.566,-0.633 0.568,-0.628 0.568,-0.622C0.568,-0.616 0.567,-0.609 0.565,-0.6Z" style="fill-rule:nonzero;"/>
        </g>
        <g transform="matrix(9,0,0,9,309.048128,89.907715)">
        </g>
        <g transform="matrix(9,0,0,9,312.022404,89.907715)">
        </g>
        <text x="262.193px" y="89.908px" style="font-family:'Calibri-Italic', 'Calibri', sans-serif;font-style:italic;font-size:9px;">Spinach &amp; Ar<tspan x="314.059px " y="89.908px ">c</tspan>hoke<tspan x="335.423px " y="89.908px "> </tspan>Dip</text>
    </g>
    <g transform="matrix(4.166667,0,0,4.166667,0,0)">
        <text x="259.321px" y="102.542px" style="font-family:'Calibri-Italic', 'Calibri', sans-serif;font-style:italic;font-size:9px;">Cheese Board Add 2.95pp</text>
    </g>
    <g transform="matrix(4.166667,0,0,4.166667,0,0)">
        <text x="253.703px" y="115.176px" style="font-family:'Calibri-Italic', 'Calibri', sans-serif;font-style:italic;font-size:9px;">Ve<tspan x="263.099px " y="115.176px ">g</tspan>eta<tspan x="279.65px " y="115.176px ">b</tspan>le Board Add 2.95pp</text>
    </g>
    <g transform="matrix(4.166667,0,0,4.166667,0,0)">
        <text x="263.72px" y="127.811px" style="font-family:'Calibri-Italic', 'Calibri', sans-serif;font-style:italic;font-size:9px;">Fr<tspan x="270.931px " y="127.811px ">u</tspan>it Board Add 3.50pp</text>
    </g>
    <g transform="matrix(4.166667,0,0,4.166667,0,0)">
        <text x="93.636px" y="165.713px" style="font-family:'Calibri', sans-serif;font-size:9px;">Brunch- Scra<tspan x="139.788px " y="165.713px ">m</tspan>bled Egg<tspan x="177.84px " y="165.713px ">s</tspan>, Breakfa<tspan x="213.568px " y="165.713px ">s</tspan>t Po<tspan x="231.512px 234.522px 238.828px 241.839px 246.58px 248.821px " y="165.713px 165.713px 165.713px 165.713px 165.713px 165.713px ">tato, </tspan>Sausage, Bacon, Fre<tspan x="323.288px " y="165.713px ">n</tspan>ch To<tspan x="347.691px " y="165.713px ">a</tspan>st w/ Hot Maple Sy<tspan x="421.359px " y="165.713px ">r</tspan>up, Fresh Fruit $16.95 pp</text>
    </g>
    <g transform="matrix(4.166667,0,0,4.166667,0,0)">
        <text x="225.692px" y="178.348px" style="font-family:'Calibri', sans-serif;font-size:9px;">Add Cra<tspan x="254.606px " y="178.348px ">n</tspan>berry Juice<tspan x="298.815px " y="178.348px ">,</tspan> Ora<tspan x="316.479px " y="178.348px ">n</tspan>ge Juice $1.75 pp,</text>
    </g>
    <g transform="matrix(4.166667,0,0,4.166667,0,0)">
        <text x="245.052px" y="190.982px" style="font-family:'Calibri', sans-serif;font-size:9px;">Add DTO<tspan x="277.602px " y="190.982px "> </tspan>Bake<tspan x="297.391px " y="190.982px ">d</tspan> Chicke<tspan x="328.086px " y="190.982px ">n</tspan> $3.95 pp</text>
    </g>
    <g transform="matrix(4.166667,0,0,4.166667,0,0)">
        <g transform="matrix(9,0,0,9,277.765319,203.61621)">
            <path d="M0.457,-0.464C0.467,-0.464 0.473,-0.462 0.477,-0.458C0.481,-0.453 0.482,-0.447 0.482,-0.438L0.482,-0.012C0.482,-0.01 0.482,-0.007 0.48,-0.006C0.479,-0.004 0.477,-0.002 0.474,-0.001C0.471,0 0.467,0.001 0.461,0.002C0.456,0.003 0.45,0.003 0.442,0.003C0.434,0.003 0.428,0.003 0.422,0.002C0.417,0.001 0.413,0 0.41,-0.001C0.407,-0.002 0.405,-0.004 0.403,-0.006C0.402,-0.007 0.401,-0.01 0.401,-0.012L0.401,-0.397L0.174,-0.397L0.174,-0.152C0.174,-0.122 0.179,-0.099 0.188,-0.084C0.197,-0.068 0.213,-0.061 0.236,-0.061C0.243,-0.061 0.25,-0.061 0.256,-0.063C0.262,-0.064 0.267,-0.066 0.271,-0.067C0.276,-0.069 0.28,-0.071 0.283,-0.072C0.286,-0.073 0.289,-0.074 0.292,-0.074C0.294,-0.074 0.295,-0.074 0.297,-0.073C0.298,-0.072 0.299,-0.071 0.3,-0.068C0.301,-0.066 0.302,-0.063 0.302,-0.059C0.303,-0.055 0.303,-0.05 0.303,-0.044C0.303,-0.035 0.303,-0.028 0.301,-0.022C0.3,-0.017 0.298,-0.013 0.295,-0.01C0.293,-0.007 0.289,-0.005 0.284,-0.002C0.278,-0 0.273,0.002 0.266,0.003C0.259,0.005 0.252,0.006 0.245,0.007C0.237,0.008 0.23,0.008 0.222,0.008C0.199,0.008 0.18,0.005 0.164,-0.001C0.147,-0.007 0.134,-0.016 0.124,-0.028C0.113,-0.04 0.106,-0.056 0.101,-0.074C0.096,-0.093 0.094,-0.115 0.094,-0.141L0.094,-0.397L0.032,-0.397C0.027,-0.397 0.023,-0.4 0.021,-0.405C0.018,-0.41 0.016,-0.419 0.016,-0.431C0.016,-0.437 0.017,-0.442 0.017,-0.446C0.018,-0.451 0.019,-0.454 0.021,-0.457C0.022,-0.46 0.024,-0.462 0.026,-0.463C0.028,-0.464 0.03,-0.464 0.033,-0.464L0.094,-0.464L0.094,-0.569C0.094,-0.571 0.094,-0.573 0.095,-0.575C0.097,-0.577 0.099,-0.579 0.102,-0.58C0.105,-0.582 0.109,-0.583 0.114,-0.583C0.119,-0.584 0.126,-0.584 0.134,-0.584C0.142,-0.584 0.149,-0.584 0.154,-0.583C0.159,-0.583 0.163,-0.582 0.166,-0.58C0.169,-0.579 0.171,-0.577 0.172,-0.575C0.174,-0.573 0.174,-0.571 0.174,-0.569L0.174,-0.464L0.457,-0.464ZM0.492,-0.6C0.492,-0.581 0.488,-0.568 0.481,-0.562C0.474,-0.555 0.461,-0.551 0.441,-0.551C0.423,-0.551 0.41,-0.555 0.403,-0.561C0.396,-0.568 0.392,-0.581 0.392,-0.599C0.392,-0.618 0.396,-0.631 0.403,-0.638C0.41,-0.645 0.423,-0.648 0.442,-0.648C0.461,-0.648 0.474,-0.645 0.481,-0.638C0.488,-0.631 0.492,-0.619 0.492,-0.6ZM0.327,-0.464" style="fill-rule:nonzero;"/>
        </g>
        <g transform="matrix(9,0,0,9,277.765319,203.61621)">
        </g>
        <g transform="matrix(9,0,0,9,280.738896,203.61621)">
        </g>
        <text x="220.452px" y="203.616px" style="font-family:'Calibri', sans-serif;font-size:9px;">Add Omelet Sta<tspan x="282.775px " y="203.616px ">o</tspan>n $6.95 pp Assorted Pa<tspan x="371.568px " y="203.616px ">s</tspan>tries</text>
    </g>
    <g transform="matrix(4.166667,0,0,4.166667,0,0)">
        <g transform="matrix(9,0,0,9,370.952692,226.25049)">
        </g>
        <g transform="matrix(9,0,0,9,373.576365,226.25049)">
        </g>
        <text x="159.242px" y="226.25px" style="font-family:'Calibri', sans-serif;font-size:9px;">Add Pa<tspan x="184.879px " y="226.25px ">p</tspan>er Pro<tspan x="211.764px " y="226.25px ">d</tspan>ucts (Plate<tspan x="254.796px " y="226.25px ">s</tspan>, Napkins, Forks<tspan x="315.695px " y="226.25px ">,</tspan> Kn<tspan x="329.365px " y="226.25px ">i</tspan>ves) (Fo<tspan x="359.832px " y="226.25px ">r</tspan> Oﬀsite Ev<tspan x="399.745px " y="226.25px ">e</tspan>nt<tspan x="411.954px " y="226.25px ">s</tspan>) $1.95 pp</text>
    </g>
    <g transform="matrix(4.166667,0,0,4.166667,0,0)">
        <text x="236.397px" y="251.519px" style="font-family:'Calibri', sans-serif;font-size:9px;">Add Assorted Soda Cara<tspan x="323.921px 326.664px 331.138px " y="251.519px 251.519px 251.519px ">fes</tspan>... $2.25 pp</text>
    </g>
    <g transform="matrix(4.166667,0,0,4.166667,0,0)">
        <text x="220.041px" y="276.788px" style="font-family:'Calibri', sans-serif;font-size:9px;">All serv<tspan x="246.583px " y="276.788px ">i</tspan>ng utensils &amp; co<tspan x="306.463px " y="276.788px ">n</tspan>diments are<tspan x="354.828px " y="276.788px "> </tspan>pro<tspan x="369.46px " y="276.788px ">v</tspan>ided.</text>
    </g>
    <g transform="matrix(4.166667,0,0,4.166667,0,0)">
        <g transform="matrix(9,0,0,9,205.853592,289.42188)">
        </g>
        <g transform="matrix(9,0,0,9,208.477104,289.42188)">
        </g>
        <g transform="matrix(9,0,0,9,326.096138,289.42188)">
            <path d="M0.457,-0.464C0.467,-0.464 0.473,-0.462 0.477,-0.458C0.481,-0.453 0.482,-0.447 0.482,-0.438L0.482,-0.012C0.482,-0.01 0.482,-0.007 0.48,-0.006C0.479,-0.004 0.477,-0.002 0.474,-0.001C0.471,0 0.467,0.001 0.461,0.002C0.456,0.003 0.45,0.003 0.442,0.003C0.434,0.003 0.428,0.003 0.422,0.002C0.417,0.001 0.413,0 0.41,-0.001C0.407,-0.002 0.405,-0.004 0.403,-0.006C0.402,-0.007 0.401,-0.01 0.401,-0.012L0.401,-0.397L0.174,-0.397L0.174,-0.152C0.174,-0.122 0.179,-0.099 0.188,-0.084C0.197,-0.068 0.213,-0.061 0.236,-0.061C0.243,-0.061 0.25,-0.061 0.256,-0.063C0.262,-0.064 0.267,-0.066 0.271,-0.067C0.276,-0.069 0.28,-0.071 0.283,-0.072C0.286,-0.073 0.289,-0.074 0.292,-0.074C0.294,-0.074 0.295,-0.074 0.297,-0.073C0.298,-0.072 0.299,-0.071 0.3,-0.068C0.301,-0.066 0.302,-0.063 0.302,-0.059C0.303,-0.055 0.303,-0.05 0.303,-0.044C0.303,-0.035 0.303,-0.028 0.301,-0.022C0.3,-0.017 0.298,-0.013 0.295,-0.01C0.293,-0.007 0.289,-0.005 0.284,-0.002C0.278,-0 0.273,0.002 0.266,0.003C0.259,0.005 0.252,0.006 0.245,0.007C0.237,0.008 0.23,0.008 0.222,0.008C0.199,0.008 0.18,0.005 0.164,-0.001C0.147,-0.007 0.134,-0.016 0.124,-0.028C0.113,-0.04 0.106,-0.056 0.101,-0.074C0.096,-0.093 0.094,-0.115 0.094,-0.141L0.094,-0.397L0.032,-0.397C0.027,-0.397 0.023,-0.4 0.021,-0.405C0.018,-0.41 0.016,-0.419 0.016,-0.431C0.016,-0.437 0.017,-0.442 0.017,-0.446C0.018,-0.451 0.019,-0.454 0.021,-0.457C0.022,-0.46 0.024,-0.462 0.026,-0.463C0.028,-0.464 0.03,-0.464 0.033,-0.464L0.094,-0.464L0.094,-0.569C0.094,-0.571 0.094,-0.573 0.095,-0.575C0.097,-0.577 0.099,-0.579 0.102,-0.58C0.105,-0.582 0.109,-0.583 0.114,-0.583C0.119,-0.584 0.126,-0.584 0.134,-0.584C0.142,-0.584 0.149,-0.584 0.154,-0.583C0.159,-0.583 0.163,-0.582 0.166,-0.58C0.169,-0.579 0.171,-0.577 0.172,-0.575C0.174,-0.573 0.174,-0.571 0.174,-0.569L0.174,-0.464L0.457,-0.464ZM0.492,-0.6C0.492,-0.581 0.488,-0.568 0.481,-0.562C0.474,-0.555 0.461,-0.551 0.441,-0.551C0.423,-0.551 0.41,-0.555 0.403,-0.561C0.396,-0.568 0.392,-0.581 0.392,-0.599C0.392,-0.618 0.396,-0.631 0.403,-0.638C0.41,-0.645 0.423,-0.648 0.442,-0.648C0.461,-0.648 0.474,-0.645 0.481,-0.638C0.488,-0.631 0.492,-0.619 0.492,-0.6ZM0.327,-0.464" style="fill-rule:nonzero;"/>
        </g>
        <g transform="matrix(9,0,0,9,326.096138,289.42188)">
        </g>
        <g transform="matrix(9,0,0,9,329.069853,289.42188)">
        </g>
        <text x="177.394px" y="289.422px" style="font-family:'Calibri', sans-serif;font-size:9px;">Yo<tspan x="186.517px " y="289.422px ">u</tspan>r buﬀet will be delivere<tspan x="275.948px " y="289.422px ">d</tspan> to yo<tspan x="301.297px " y="289.422px ">u</tspan>r loca<tspan x="331.106px " y="289.422px ">o</tspan>n, set up &amp; re<tspan x="385.126px " y="289.422px ">a</tspan>dy to serve.</text>
    </g>
    <g transform="matrix(4.166667,0,0,4.166667,0,0)">
        <g transform="matrix(9,0,0,9,309.369217,302.05615)">
            <path d="M0.457,-0.464C0.467,-0.464 0.473,-0.462 0.477,-0.458C0.481,-0.453 0.482,-0.447 0.482,-0.438L0.482,-0.012C0.482,-0.01 0.482,-0.007 0.48,-0.006C0.479,-0.004 0.477,-0.002 0.474,-0.001C0.471,0 0.467,0.001 0.461,0.002C0.456,0.003 0.45,0.003 0.442,0.003C0.434,0.003 0.428,0.003 0.422,0.002C0.417,0.001 0.413,0 0.41,-0.001C0.407,-0.002 0.405,-0.004 0.403,-0.006C0.402,-0.007 0.401,-0.01 0.401,-0.012L0.401,-0.397L0.174,-0.397L0.174,-0.152C0.174,-0.122 0.179,-0.099 0.188,-0.084C0.197,-0.068 0.213,-0.061 0.236,-0.061C0.243,-0.061 0.25,-0.061 0.256,-0.063C0.262,-0.064 0.267,-0.066 0.271,-0.067C0.276,-0.069 0.28,-0.071 0.283,-0.072C0.286,-0.073 0.289,-0.074 0.292,-0.074C0.294,-0.074 0.295,-0.074 0.297,-0.073C0.298,-0.072 0.299,-0.071 0.3,-0.068C0.301,-0.066 0.302,-0.063 0.302,-0.059C0.303,-0.055 0.303,-0.05 0.303,-0.044C0.303,-0.035 0.303,-0.028 0.301,-0.022C0.3,-0.017 0.298,-0.013 0.295,-0.01C0.293,-0.007 0.289,-0.005 0.284,-0.002C0.278,-0 0.273,0.002 0.266,0.003C0.259,0.005 0.252,0.006 0.245,0.007C0.237,0.008 0.23,0.008 0.222,0.008C0.199,0.008 0.18,0.005 0.164,-0.001C0.147,-0.007 0.134,-0.016 0.124,-0.028C0.113,-0.04 0.106,-0.056 0.101,-0.074C0.096,-0.093 0.094,-0.115 0.094,-0.141L0.094,-0.397L0.032,-0.397C0.027,-0.397 0.023,-0.4 0.021,-0.405C0.018,-0.41 0.016,-0.419 0.016,-0.431C0.016,-0.437 0.017,-0.442 0.017,-0.446C0.018,-0.451 0.019,-0.454 0.021,-0.457C0.022,-0.46 0.024,-0.462 0.026,-0.463C0.028,-0.464 0.03,-0.464 0.033,-0.464L0.094,-0.464L0.094,-0.569C0.094,-0.571 0.094,-0.573 0.095,-0.575C0.097,-0.577 0.099,-0.579 0.102,-0.58C0.105,-0.582 0.109,-0.583 0.114,-0.583C0.119,-0.584 0.126,-0.584 0.134,-0.584C0.142,-0.584 0.149,-0.584 0.154,-0.583C0.159,-0.583 0.163,-0.582 0.166,-0.58C0.169,-0.579 0.171,-0.577 0.172,-0.575C0.174,-0.573 0.174,-0.571 0.174,-0.569L0.174,-0.464L0.457,-0.464ZM0.492,-0.6C0.492,-0.581 0.488,-0.568 0.481,-0.562C0.474,-0.555 0.461,-0.551 0.441,-0.551C0.423,-0.551 0.41,-0.555 0.403,-0.561C0.396,-0.568 0.392,-0.581 0.392,-0.599C0.392,-0.618 0.396,-0.631 0.403,-0.638C0.41,-0.645 0.423,-0.648 0.442,-0.648C0.461,-0.648 0.474,-0.645 0.481,-0.638C0.488,-0.631 0.492,-0.619 0.492,-0.6ZM0.327,-0.464" style="fill-rule:nonzero;"/>
        </g>
        <g transform="matrix(9,0,0,9,309.369217,302.05615)">
        </g>
        <g transform="matrix(9,0,0,9,312.342869,302.05615)">
        </g>
        <text x="163.277px" y="302.056px" style="font-family:'Calibri', sans-serif;font-size:9px;">We<tspan x="175.752px " y="302.056px "> </tspan>will pick up at custo<tspan x="249.749px " y="302.056px ">m</tspan>ers<tspan x="268.056px " y="302.056px "> </tspan>re<tspan x="277.694px " y="302.056px ">q</tspan>ueste<tspan x="302.614px 307.338px 314.379px " y="302.056px 302.056px 302.056px ">d m</tspan>e. (Delivery Charge<tspan x="390.618px " y="302.056px "> </tspan>will be applied)</text>
    </g>
    <g transform="matrix(4.166667,0,0,4.166667,0,0)">
        <text x="236.296px" y="314.69px" style="font-family:'Calibri', sans-serif;font-size:9px;">7.5% NY Stat<tspan x="282.819px " y="314.69px ">e</tspan> Sales Ta<tspan x="318.535px " y="314.69px ">x</tspan> will be added.</text>
    </g>
    <g transform="matrix(4.166667,0,0,4.166667,0,0)">
        <text x="223.833px" y="327.325px" style="font-family:'Calibri', sans-serif;font-size:9px;">25% Gra<tspan x="254.519px " y="327.325px ">t</tspan>uity/ Service Charge<tspan x="330.72px " y="327.325px "> </tspan>will be applied.</text>
    </g>
    <g transform="matrix(4.166667,0,0,4.166667,0,0)">
        <text x="207.283px" y="339.959px" style="font-family:'Calibri', sans-serif;font-size:9px;">There will be a 3.5% discount<tspan x="313.861px " y="339.959px "> </tspan>fo<tspan x="323.377px " y="339.959px ">r</tspan> Cash type pay<tspan x="379.326px " y="339.959px ">m</tspan>ents.</text>
    </g>
    <g transform="matrix(4.166667,0,0,4.166667,0,0)">
        <text x="262.523px" y="362.593px" style="font-family:'Calibri', sans-serif;font-size:9px;">Cre<tspan x="274.923px " y="362.593px ">a</tspan>te<tspan x="286.713px " y="362.593px "> </tspan>your ow<tspan x="318.612px " y="362.593px ">n</tspan> Menu:</text>
    </g>
    <g transform="matrix(4.166667,0,0,4.166667,0,0)">
        <text x="294.029px" y="375.228px" style="font-family:'Calibri', sans-serif;font-size:9px;">Meat:</text>
    </g>
    <g transform="matrix(4.166667,0,0,4.166667,0,0)">
        <text x="270.424px" y="387.862px" style="font-family:'Calibri', sans-serif;font-size:9px;">DTO<tspan x="286.294px " y="387.862px "> </tspan>Bake<tspan x="306.087px " y="387.862px ">d</tspan> Chicke<tspan x="336.788px " y="387.862px ">n</tspan></text>
    </g>
    <g transform="matrix(4.166667,0,0,4.166667,0,0)">
        <text x="269.286px" y="400.496px" style="font-family:'Calibri', sans-serif;font-size:9px;">BBQ Glaze<tspan x="307.211px " y="400.496px ">d</tspan> Chicke<tspan x="337.904px " y="400.496px ">n</tspan></text>
    </g>
    <g transform="matrix(4.166667,0,0,4.166667,0,0)">
        <text x="272.472px" y="413.13px" style="font-family:'Calibri', sans-serif;font-size:9px;">Chicke<tspan x="296.416px " y="413.13px ">n</tspan> Pa<tspan x="312.123px " y="413.13px ">r</tspan>mesan</text>
    </g>
    <g transform="matrix(4.166667,0,0,4.166667,0,0)">
        <text x="276.372px" y="425.765px" style="font-family:'Calibri', sans-serif;font-size:9px;">BBQ Pulled Po<tspan x="328.331px " y="425.765px ">r</tspan>k</text>
    </g>
    <g transform="matrix(4.166667,0,0,4.166667,0,0)">
        <text x="253.072px" y="438.399px" style="font-family:'Calibri', sans-serif;font-size:9px;">Sausage w/ Pe<tspan x="305.857px " y="438.399px ">p</tspan>pers<tspan x="326.432px " y="438.399px "> </tspan>&amp; Onion</text>
    </g>
    <g transform="matrix(4.166667,0,0,4.166667,0,0)">
        <text x="260.317px" y="451.033px" style="font-family:'Calibri', sans-serif;font-size:9px;">Hamburge<tspan x="298.702px " y="451.033px ">r</tspan>/ Hot Dog Bar</text>
    </g>
    <g transform="matrix(4.166667,0,0,4.166667,0,0)">
        <text x="282.232px" y="463.667px" style="font-family:'Calibri', sans-serif;font-size:9px;">St. Louis Ribs</text>
    </g>
    <g transform="matrix(4.166667,0,0,4.166667,0,0)">
        <text x="270.275px" y="476.302px" style="font-family:'Calibri', sans-serif;font-size:9px;">Ro<tspan x="279.9px " y="476.302px ">a</tspan>st Beef<tspan x="309.348px " y="476.302px "> </tspan>in au jus</text>
    </g>
    <g transform="matrix(4.166667,0,0,4.166667,0,0)">
        <text x="249.01px" y="488.936px" style="font-family:'Calibri', sans-serif;font-size:9px;">Bake<tspan x="266.77px " y="488.936px ">d</tspan> Ham w/ Pineapple Glaze</text>
    </g>
    <g transform="matrix(4.166667,0,0,4.166667,0,0)">
        <text x="275.915px" y="501.57px" style="font-family:'Calibri', sans-serif;font-size:9px;">Bro<tspan x="288.677px " y="501.57px ">i</tspan>led Haddock</text>
    </g>
    <g transform="matrix(4.166667,0,0,4.166667,0,0)">
        <text x="270.811px" y="514.205px" style="font-family:'Calibri', sans-serif;font-size:9px;">Haddock Pa<tspan x="313.79px " y="514.205px ">r</tspan>mesan</text>
    </g>
    <g transform="matrix(4.166667,0,0,4.166667,0,0)">
        <text x="277.08px" y="526.839px" style="font-family:'Calibri', sans-serif;font-size:9px;">Chicke<tspan x="301.021px " y="526.839px ">n</tspan> Alfredo</text>
    </g>
    <g transform="matrix(4.166667,0,0,4.166667,0,0)">
        <text x="229.566px" y="539.473px" style="font-family:'Calibri', sans-serif;font-size:9px;">Saints Marinat<tspan x="282.583px " y="539.473px ">e</tspan>d Boneless Chicke<tspan x="352.189px " y="539.473px ">n</tspan> Bre<tspan x="371.445px " y="539.473px ">a</tspan>st</text>
    </g>
    <g transform="matrix(4.166667,0,0,4.166667,0,0)">
        <text x="270.962px" y="552.107px" style="font-family:'Calibri', sans-serif;font-size:9px;">Eggpl<tspan x="290.604px " y="552.107px ">a</tspan>nt Pa<tspan x="313.629px " y="552.107px ">r</tspan>mesan</text>
    </g>
    <g transform="matrix(4.166667,0,0,4.166667,0,0)">
        <text x="279.13px" y="564.742px" style="font-family:'Calibri', sans-serif;font-size:9px;">Bake<tspan x="296.892px " y="564.742px ">d</tspan> Lasagna</text>
    </g>
    <g transform="matrix(4.166667,0,0,4.166667,0,0)">
        <g transform="matrix(9,0,0,9,315.407949,577.37598)">
        </g>
        <g transform="matrix(9,0,0,9,318.031637,577.37598)">
        </g>
        <text x="258.816px" y="577.376px" style="font-family:'Calibri', sans-serif;font-size:9px;">Homemade Stuﬀed Shells</text>
    </g>
    <g transform="matrix(4.166667,0,0,4.166667,0,0)">
        <text x="270.448px" y="590.01px" style="font-family:'Calibri', sans-serif;font-size:9px;">Ve<tspan x="280.026px " y="590.01px ">g</tspan>et<tspan x="291.744px 296.051px " y="590.01px 590.01px ">ar</tspan>ian Lasagna</text>
    </g>
    <g transform="matrix(4.166667,0,0,4.166667,0,0)">
        <g transform="matrix(9,0,0,9,299.797888,602.64453)">
        </g>
        <g transform="matrix(9,0,0,9,302.421711,602.64453)">
        </g>
        <text x="263.415px" y="602.645px" style="font-family:'Calibri', sans-serif;font-size:9px;">Bake<tspan x="281.175px " y="602.645px ">d</tspan> Stuﬀed Haddock</text>
    </g>
    <g transform="matrix(4.166667,0,0,4.166667,0,0)">
        <text x="234.29px" y="615.279px" style="font-family:'Calibri', sans-serif;font-size:9px;">Cheese To<tspan x="271.899px " y="615.279px ">r</tspan>tellini w/ Chicke<tspan x="333.387px " y="615.279px ">n</tspan> &amp; Bro<tspan x="361.075px " y="615.279px ">c</tspan>coli</text>
    </g>
    <g transform="matrix(4.166667,0,0,4.166667,0,0)">
        <text x="267.185px" y="627.913px" style="font-family:'Calibri', sans-serif;font-size:9px;">Italian Chicke<tspan x="315.889px " y="627.913px ">n</tspan> Cutlet</text>
    </g>
    <g transform="matrix(4.166667,0,0,4.166667,0,0)">
        <text x="267.851px" y="640.547px" style="font-family:'Calibri', sans-serif;font-size:9px;">New Yo<tspan x="295.71px " y="640.547px ">r</tspan>k Strip Steak</text>
    </g>
    <g transform="matrix(4.166667,0,0,4.166667,0,0)">
        <text x="287.906px" y="653.182px" style="font-family:'Calibri', sans-serif;font-size:9px;">Meatballs</text>
    </g>
    <g transform="matrix(4.166667,0,0,4.166667,0,0)">
        <text x="279.13px" y="665.816px" style="font-family:'Calibri', sans-serif;font-size:9px;">Bake<tspan x="296.892px " y="665.816px ">d</tspan> Lasagna</text>
    </g>
    <g transform="matrix(4.166667,0,0,4.166667,0,0)">
        <text x="295.332px" y="691.084px" style="font-family:'Calibri', sans-serif;font-size:9px;">Sides:</text>
    </g>
    <g transform="matrix(4.166667,0,0,4.166667,0,0)">
        <text x="270.631px" y="703.719px" style="font-family:'Calibri', sans-serif;font-size:9px;">Pe<tspan x="279.749px " y="703.719px ">n</tspan>ne w/ Marinara</text>
    </g>
    <g transform="matrix(4.166667,0,0,4.166667,0,0)">
        <text x="285.979px" y="716.353px" style="font-family:'Calibri', sans-serif;font-size:9px;">Salt Po<tspan x="310.901px 313.911px 318.218px " y="716.353px 716.353px 716.353px ">tat</tspan>o</text>
    </g>
    <g transform="matrix(4.166667,0,0,4.166667,0,0)">
        <text x="255.25px" y="728.987px" style="font-family:'Calibri', sans-serif;font-size:9px;">Garlic Pa<tspan x="287.268px " y="728.987px ">r</tspan>mesan Salt Po<tspan x="341.563px 344.573px 348.88px " y="728.987px 728.987px 728.987px ">tat</tspan>o</text>
    </g>
    <g transform="matrix(4.166667,0,0,4.166667,0,0)">
        <text x="285.304px" y="741.622px" style="font-family:'Calibri', sans-serif;font-size:9px;">Pa<tspan x="294.259px " y="741.622px ">s</tspan>ta<tspan x="305.093px " y="741.622px "> </tspan>Salad</text>
    </g>
    <g transform="matrix(4.166667,0,0,4.166667,0,0)">
        <text x="282.966px" y="754.256px" style="font-family:'Calibri', sans-serif;font-size:9px;">Po<tspan x="292.354px 295.365px 299.672px 302.683px 307.425px " y="754.256px 754.256px 754.256px 754.256px 754.256px ">tato </tspan>Salad</text>
    </g>
    <g transform="matrix(4.166667,0,0,4.166667,0,0)">
        <text x="261.196px" y="766.89px" style="font-family:'Calibri', sans-serif;font-size:9px;">To<tspan x="270.319px " y="766.89px ">m</tspan>ato<tspan x="289.565px " y="766.89px "> </tspan>Cucumber Salad</text>
    </g>
    <g transform="matrix(4.166667,0,0,4.166667,0,0)">
        <text x="277.807px" y="779.524px" style="font-family:'Calibri', sans-serif;font-size:9px;">Macaro<tspan x="305.788px " y="779.524px ">n</tspan>i Salad</text>
    </g>
</svg>
