<?xml version="1.0" encoding="UTF-8" standalone="no"?>
<!DOCTYPE svg PUBLIC "-//W3C//DTD SVG 1.1//EN" "http://www.w3.org/Graphics/SVG/1.1/DTD/svg11.dtd">
<svg width="100%" height="100%" viewBox="0 0 2550 3300" version="1.1" xmlns="http://www.w3.org/2000/svg" xmlns:xlink="http://www.w3.org/1999/xlink" xml:space="preserve" xmlns:serif="http://www.serif.com/" style="fill-rule:evenodd;clip-rule:evenodd;">
    <g transform="matrix(0.208333,0,0,-0.208333,0,3300.000066)">
        <rect x="0" y="0" width="12240" height="15840" style="fill:white;"/>
    </g>
    <g transform="matrix(0.208333,0,0,-0.208333,0,2869.943891)">
        <path d="M5351.265,6887.865L6848.042,6887.865" style="fill:none;fill-rule:nonzero;stroke:rgb(0,0,255);stroke-width:14.4px;"/>
    </g>
    <g transform="matrix(4.166667,0,0,4.166667,0,0)">
        <text x="277.207px" y="26.736px" style="font-family:'Calibri', sans-serif;font-size:9px;">Tu<tspan x="286.315px " y="26.736px ">n</tspan>a Mac Salad</text>
    </g>
    <g transform="matrix(4.166667,0,0,4.166667,0,0)">
        <text x="288.466px" y="39.371px" style="font-family:'Calibri', sans-serif;font-size:9px;">Cole Slaw</text>
    </g>
    <g transform="matrix(4.166667,0,0,4.166667,0,0)">
        <text x="264.647px" y="52.005px" style="font-family:'Calibri', sans-serif;font-size:9px;">Garlic Smashed Po<tspan x="332.191px 335.201px 339.507px " y="52.005px 52.005px 52.005px ">tat</tspan>o</text>
    </g>
    <g transform="matrix(4.166667,0,0,4.166667,0,0)">
        <text x="282.764px" y="64.639px" style="font-family:'Calibri', sans-serif;font-size:9px;">Bake<tspan x="300.522px " y="64.639px ">d</tspan> Beans</text>
    </g>
    <g transform="matrix(4.166667,0,0,4.166667,0,0)">
        <text x="261.501px" y="77.273px" style="font-family:'Calibri', sans-serif;font-size:9px;">Italian Ro<tspan x="295.888px " y="77.273px ">a</tspan>ste<tspan x="311.194px " y="77.273px ">d</tspan> Po<tspan x="327.335px 330.345px 334.652px 337.662px 342.403px " y="77.273px 77.273px 77.273px 77.273px 77.273px ">tatoe</tspan>s</text>
    </g>
    <g transform="matrix(4.166667,0,0,4.166667,0,0)">
        <text x="270.367px" y="89.908px" style="font-family:'Calibri', sans-serif;font-size:9px;">Italian Gre<tspan x="308.408px " y="89.908px ">e</tspan>n Beans</text>
    </g>
    <g transform="matrix(4.166667,0,0,4.166667,0,0)">
        <text x="267.48px" y="102.542px" style="font-family:'Calibri', sans-serif;font-size:9px;">Bake<tspan x="285.239px " y="102.542px ">d</tspan> Mac &amp; Cheese</text>
    </g>
    <g transform="matrix(4.166667,0,0,4.166667,0,0)">
        <text x="271.4px" y="115.176px" style="font-family:'Calibri', sans-serif;font-size:9px;">House Green Salad</text>
    </g>
    <g transform="matrix(4.166667,0,0,4.166667,0,0)">
        <text x="293.225px" y="127.811px" style="font-family:'Calibri', sans-serif;font-size:9px;">Giblets</text>
    </g>
    <g transform="matrix(4.166667,0,0,4.166667,0,0)">
        <text x="289.446px" y="140.445px" style="font-family:'Calibri', sans-serif;font-size:9px;">Rice Pilaf</text>
    </g>
    <g transform="matrix(4.166667,0,0,4.166667,0,0)">
        <text x="276.258px" y="153.079px" style="font-family:'Calibri', sans-serif;font-size:9px;">Corn on the Cob</text>
    </g>
    <g transform="matrix(4.166667,0,0,4.166667,0,0)">
        <g transform="matrix(9,0,0,9,340.914727,165.713379)">
            <path d="M0.602,-0.044C0.602,-0.035 0.601,-0.028 0.6,-0.022C0.599,-0.017 0.597,-0.013 0.594,-0.01C0.591,-0.008 0.587,-0.005 0.583,-0.003C0.578,-0.001 0.572,0.001 0.565,0.003C0.559,0.005 0.551,0.006 0.544,0.007C0.536,0.008 0.529,0.008 0.521,0.008C0.498,0.008 0.479,0.005 0.462,-0.001C0.446,-0.007 0.433,-0.016 0.423,-0.028C0.412,-0.04 0.405,-0.056 0.4,-0.074C0.395,-0.093 0.393,-0.115 0.393,-0.141L0.393,-0.397L0.174,-0.397L0.174,-0.152C0.174,-0.122 0.179,-0.099 0.188,-0.084C0.197,-0.068 0.213,-0.061 0.236,-0.061C0.243,-0.061 0.25,-0.061 0.256,-0.063C0.262,-0.064 0.267,-0.066 0.271,-0.067C0.276,-0.069 0.28,-0.071 0.283,-0.072C0.286,-0.073 0.289,-0.074 0.292,-0.074C0.294,-0.074 0.295,-0.074 0.297,-0.073C0.298,-0.072 0.299,-0.071 0.3,-0.068C0.301,-0.066 0.302,-0.063 0.302,-0.059C0.303,-0.055 0.303,-0.05 0.303,-0.044C0.303,-0.039 0.303,-0.035 0.303,-0.031C0.302,-0.028 0.302,-0.025 0.302,-0.022C0.301,-0.019 0.3,-0.017 0.299,-0.015C0.298,-0.013 0.296,-0.011 0.294,-0.009C0.291,-0.006 0.288,-0.004 0.283,-0.002C0.278,-0 0.272,0.002 0.266,0.003C0.259,0.005 0.252,0.006 0.245,0.007C0.237,0.008 0.23,0.008 0.222,0.008C0.199,0.008 0.18,0.005 0.164,-0.001C0.147,-0.007 0.134,-0.016 0.124,-0.028C0.113,-0.04 0.106,-0.056 0.101,-0.074C0.096,-0.093 0.094,-0.115 0.094,-0.141L0.094,-0.397L0.032,-0.397C0.027,-0.397 0.023,-0.4 0.021,-0.405C0.018,-0.41 0.016,-0.419 0.016,-0.431C0.016,-0.437 0.017,-0.442 0.017,-0.446C0.018,-0.451 0.019,-0.454 0.021,-0.457C0.022,-0.46 0.024,-0.462 0.026,-0.463C0.028,-0.464 0.03,-0.464 0.033,-0.464L0.094,-0.464L0.094,-0.569C0.094,-0.571 0.094,-0.573 0.095,-0.575C0.097,-0.577 0.099,-0.579 0.102,-0.58C0.105,-0.582 0.109,-0.583 0.114,-0.583C0.119,-0.584 0.126,-0.584 0.134,-0.584C0.142,-0.584 0.149,-0.584 0.154,-0.583C0.159,-0.583 0.163,-0.582 0.166,-0.58C0.169,-0.579 0.171,-0.577 0.172,-0.575C0.174,-0.573 0.174,-0.571 0.174,-0.569L0.174,-0.464L0.393,-0.464L0.393,-0.59C0.393,-0.592 0.393,-0.595 0.395,-0.597C0.396,-0.599 0.398,-0.6 0.401,-0.601C0.404,-0.602 0.408,-0.603 0.414,-0.604C0.419,-0.605 0.425,-0.605 0.433,-0.605C0.441,-0.605 0.447,-0.605 0.453,-0.604C0.458,-0.603 0.462,-0.602 0.465,-0.601C0.468,-0.6 0.47,-0.599 0.472,-0.597C0.473,-0.595 0.474,-0.592 0.474,-0.59L0.474,-0.464L0.586,-0.464C0.589,-0.464 0.591,-0.464 0.593,-0.463C0.595,-0.462 0.596,-0.46 0.598,-0.457C0.599,-0.454 0.6,-0.451 0.601,-0.446C0.602,-0.442 0.602,-0.437 0.602,-0.431C0.602,-0.419 0.601,-0.41 0.598,-0.405C0.595,-0.4 0.591,-0.397 0.586,-0.397L0.474,-0.397L0.474,-0.152C0.474,-0.122 0.478,-0.099 0.487,-0.084C0.496,-0.068 0.512,-0.061 0.535,-0.061C0.542,-0.061 0.548,-0.061 0.554,-0.063C0.56,-0.064 0.566,-0.066 0.57,-0.067C0.575,-0.069 0.579,-0.071 0.582,-0.072C0.586,-0.073 0.589,-0.074 0.591,-0.074C0.593,-0.074 0.594,-0.074 0.596,-0.073C0.597,-0.072 0.598,-0.071 0.599,-0.068C0.6,-0.066 0.6,-0.063 0.601,-0.059C0.602,-0.055 0.602,-0.05 0.602,-0.044Z" style="fill-rule:nonzero;"/>
        </g>
        <g transform="matrix(9,0,0,9,340.914727,165.713379)">
        </g>
        <g transform="matrix(9,0,0,9,343.766816,165.713379)">
        </g>
        <text x="257.337px" y="165.713px" style="font-family:'Calibri', sans-serif;font-size:9px;">Fre<tspan x="269.075px " y="165.713px ">s</tspan>h Fruit Salad or Pla<tspan x="346.619px " y="165.713px ">e</tspan>r</text>
    </g>
    <g transform="matrix(4.166667,0,0,4.166667,0,0)">
        <text x="290.953px" y="190.982px" style="font-family:'Calibri', sans-serif;font-size:9px;">Dessert:</text>
    </g>
    <g transform="matrix(4.166667,0,0,4.166667,0,0)">
        <text x="271.747px" y="203.616px" style="font-family:'Calibri', sans-serif;font-size:9px;">Cupcake<tspan x="302.656px " y="203.616px ">s</tspan> $2.95 pp</text>
    </g>
    <g transform="matrix(4.166667,0,0,4.166667,0,0)">
        <g transform="matrix(9,0,0,9,301.096722,216.25049)">
            <path d="M0.602,-0.044C0.602,-0.035 0.601,-0.028 0.6,-0.022C0.599,-0.017 0.597,-0.013 0.594,-0.01C0.591,-0.008 0.587,-0.005 0.583,-0.003C0.578,-0.001 0.572,0.001 0.565,0.003C0.559,0.005 0.551,0.006 0.544,0.007C0.536,0.008 0.529,0.008 0.521,0.008C0.498,0.008 0.479,0.005 0.462,-0.001C0.446,-0.007 0.433,-0.016 0.423,-0.028C0.412,-0.04 0.405,-0.056 0.4,-0.074C0.395,-0.093 0.393,-0.115 0.393,-0.141L0.393,-0.397L0.174,-0.397L0.174,-0.152C0.174,-0.122 0.179,-0.099 0.188,-0.084C0.197,-0.068 0.213,-0.061 0.236,-0.061C0.243,-0.061 0.25,-0.061 0.256,-0.063C0.262,-0.064 0.267,-0.066 0.271,-0.067C0.276,-0.069 0.28,-0.071 0.283,-0.072C0.286,-0.073 0.289,-0.074 0.292,-0.074C0.294,-0.074 0.295,-0.074 0.297,-0.073C0.298,-0.072 0.299,-0.071 0.3,-0.068C0.301,-0.066 0.302,-0.063 0.302,-0.059C0.303,-0.055 0.303,-0.05 0.303,-0.044C0.303,-0.039 0.303,-0.035 0.303,-0.031C0.302,-0.028 0.302,-0.025 0.302,-0.022C0.301,-0.019 0.3,-0.017 0.299,-0.015C0.298,-0.013 0.296,-0.011 0.294,-0.009C0.291,-0.006 0.288,-0.004 0.283,-0.002C0.278,-0 0.272,0.002 0.266,0.003C0.259,0.005 0.252,0.006 0.245,0.007C0.237,0.008 0.23,0.008 0.222,0.008C0.199,0.008 0.18,0.005 0.164,-0.001C0.147,-0.007 0.134,-0.016 0.124,-0.028C0.113,-0.04 0.106,-0.056 0.101,-0.074C0.096,-0.093 0.094,-0.115 0.094,-0.141L0.094,-0.397L0.032,-0.397C0.027,-0.397 0.023,-0.4 0.021,-0.405C0.018,-0.41 0.016,-0.419 0.016,-0.431C0.016,-0.437 0.017,-0.442 0.017,-0.446C0.018,-0.451 0.019,-0.454 0.021,-0.457C0.022,-0.46 0.024,-0.462 0.026,-0.463C0.028,-0.464 0.03,-0.464 0.033,-0.464L0.094,-0.464L0.094,-0.569C0.094,-0.571 0.094,-0.573 0.095,-0.575C0.097,-0.577 0.099,-0.579 0.102,-0.58C0.105,-0.582 0.109,-0.583 0.114,-0.583C0.119,-0.584 0.126,-0.584 0.134,-0.584C0.142,-0.584 0.149,-0.584 0.154,-0.583C0.159,-0.583 0.163,-0.582 0.166,-0.58C0.169,-0.579 0.171,-0.577 0.172,-0.575C0.174,-0.573 0.174,-0.571 0.174,-0.569L0.174,-0.464L0.393,-0.464L0.393,-0.59C0.393,-0.592 0.393,-0.595 0.395,-0.597C0.396,-0.599 0.398,-0.6 0.401,-0.601C0.404,-0.602 0.408,-0.603 0.414,-0.604C0.419,-0.605 0.425,-0.605 0.433,-0.605C0.441,-0.605 0.447,-0.605 0.453,-0.604C0.458,-0.603 0.462,-0.602 0.465,-0.601C0.468,-0.6 0.47,-0.599 0.472,-0.597C0.473,-0.595 0.474,-0.592 0.474,-0.59L0.474,-0.464L0.586,-0.464C0.589,-0.464 0.591,-0.464 0.593,-0.463C0.595,-0.462 0.596,-0.46 0.598,-0.457C0.599,-0.454 0.6,-0.451 0.601,-0.446C0.602,-0.442 0.602,-0.437 0.602,-0.431C0.602,-0.419 0.601,-0.41 0.598,-0.405C0.595,-0.4 0.591,-0.397 0.586,-0.397L0.474,-0.397L0.474,-0.152C0.474,-0.122 0.478,-0.099 0.487,-0.084C0.496,-0.068 0.512,-0.061 0.535,-0.061C0.542,-0.061 0.548,-0.061 0.554,-0.063C0.56,-0.064 0.566,-0.066 0.57,-0.067C0.575,-0.069 0.579,-0.071 0.582,-0.072C0.586,-0.073 0.589,-0.074 0.591,-0.074C0.593,-0.074 0.594,-0.074 0.596,-0.073C0.597,-0.072 0.598,-0.071 0.599,-0.068C0.6,-0.066 0.6,-0.063 0.601,-0.059C0.602,-0.055 0.602,-0.05 0.602,-0.044Z" style="fill-rule:nonzero;"/>
        </g>
        <g transform="matrix(9,0,0,9,301.096722,216.25049)">
        </g>
        <g transform="matrix(9,0,0,9,303.948384,216.25049)">
        </g>
        <text x="263.162px" y="216.25px" style="font-family:'Calibri', sans-serif;font-size:9px;">Cookie Pla<tspan x="306.8px " y="216.25px ">e</tspan>r $2.95 pp</text>
    </g>
    <g transform="matrix(4.166667,0,0,4.166667,0,0)">
        <g transform="matrix(9,0,0,9,303.865642,228.88477)">
            <path d="M0.602,-0.044C0.602,-0.035 0.601,-0.028 0.6,-0.022C0.599,-0.017 0.597,-0.013 0.594,-0.01C0.591,-0.008 0.587,-0.005 0.583,-0.003C0.578,-0.001 0.572,0.001 0.565,0.003C0.559,0.005 0.551,0.006 0.544,0.007C0.536,0.008 0.529,0.008 0.521,0.008C0.498,0.008 0.479,0.005 0.462,-0.001C0.446,-0.007 0.433,-0.016 0.423,-0.028C0.412,-0.04 0.405,-0.056 0.4,-0.074C0.395,-0.093 0.393,-0.115 0.393,-0.141L0.393,-0.397L0.174,-0.397L0.174,-0.152C0.174,-0.122 0.179,-0.099 0.188,-0.084C0.197,-0.068 0.213,-0.061 0.236,-0.061C0.243,-0.061 0.25,-0.061 0.256,-0.063C0.262,-0.064 0.267,-0.066 0.271,-0.067C0.276,-0.069 0.28,-0.071 0.283,-0.072C0.286,-0.073 0.289,-0.074 0.292,-0.074C0.294,-0.074 0.295,-0.074 0.297,-0.073C0.298,-0.072 0.299,-0.071 0.3,-0.068C0.301,-0.066 0.302,-0.063 0.302,-0.059C0.303,-0.055 0.303,-0.05 0.303,-0.044C0.303,-0.039 0.303,-0.035 0.303,-0.031C0.302,-0.028 0.302,-0.025 0.302,-0.022C0.301,-0.019 0.3,-0.017 0.299,-0.015C0.298,-0.013 0.296,-0.011 0.294,-0.009C0.291,-0.006 0.288,-0.004 0.283,-0.002C0.278,-0 0.272,0.002 0.266,0.003C0.259,0.005 0.252,0.006 0.245,0.007C0.237,0.008 0.23,0.008 0.222,0.008C0.199,0.008 0.18,0.005 0.164,-0.001C0.147,-0.007 0.134,-0.016 0.124,-0.028C0.113,-0.04 0.106,-0.056 0.101,-0.074C0.096,-0.093 0.094,-0.115 0.094,-0.141L0.094,-0.397L0.032,-0.397C0.027,-0.397 0.023,-0.4 0.021,-0.405C0.018,-0.41 0.016,-0.419 0.016,-0.431C0.016,-0.437 0.017,-0.442 0.017,-0.446C0.018,-0.451 0.019,-0.454 0.021,-0.457C0.022,-0.46 0.024,-0.462 0.026,-0.463C0.028,-0.464 0.03,-0.464 0.033,-0.464L0.094,-0.464L0.094,-0.569C0.094,-0.571 0.094,-0.573 0.095,-0.575C0.097,-0.577 0.099,-0.579 0.102,-0.58C0.105,-0.582 0.109,-0.583 0.114,-0.583C0.119,-0.584 0.126,-0.584 0.134,-0.584C0.142,-0.584 0.149,-0.584 0.154,-0.583C0.159,-0.583 0.163,-0.582 0.166,-0.58C0.169,-0.579 0.171,-0.577 0.172,-0.575C0.174,-0.573 0.174,-0.571 0.174,-0.569L0.174,-0.464L0.393,-0.464L0.393,-0.59C0.393,-0.592 0.393,-0.595 0.395,-0.597C0.396,-0.599 0.398,-0.6 0.401,-0.601C0.404,-0.602 0.408,-0.603 0.414,-0.604C0.419,-0.605 0.425,-0.605 0.433,-0.605C0.441,-0.605 0.447,-0.605 0.453,-0.604C0.458,-0.603 0.462,-0.602 0.465,-0.601C0.468,-0.6 0.47,-0.599 0.472,-0.597C0.473,-0.595 0.474,-0.592 0.474,-0.59L0.474,-0.464L0.586,-0.464C0.589,-0.464 0.591,-0.464 0.593,-0.463C0.595,-0.462 0.596,-0.46 0.598,-0.457C0.599,-0.454 0.6,-0.451 0.601,-0.446C0.602,-0.442 0.602,-0.437 0.602,-0.431C0.602,-0.419 0.601,-0.41 0.598,-0.405C0.595,-0.4 0.591,-0.397 0.586,-0.397L0.474,-0.397L0.474,-0.152C0.474,-0.122 0.478,-0.099 0.487,-0.084C0.496,-0.068 0.512,-0.061 0.535,-0.061C0.542,-0.061 0.548,-0.061 0.554,-0.063C0.56,-0.064 0.566,-0.066 0.57,-0.067C0.575,-0.069 0.579,-0.071 0.582,-0.072C0.586,-0.073 0.589,-0.074 0.591,-0.074C0.593,-0.074 0.594,-0.074 0.596,-0.073C0.597,-0.072 0.598,-0.071 0.599,-0.068C0.6,-0.066 0.6,-0.063 0.601,-0.059C0.602,-0.055 0.602,-0.05 0.602,-0.044Z" style="fill-rule:nonzero;"/>
        </g>
        <g transform="matrix(9,0,0,9,303.865642,228.88477)">
        </g>
        <g transform="matrix(9,0,0,9,306.717056,228.88477)">
        </g>
        <text x="260.383px" y="228.885px" style="font-family:'Calibri', sans-serif;font-size:9px;">Bro<tspan x="273.145px " y="228.885px ">w</tspan>nie Pla<tspan x="309.568px " y="228.885px ">e</tspan>r $2.95 pp</text>
    </g>
    <g transform="matrix(4.166667,0,0,4.166667,0,0)">
        <text x="250.2px" y="241.519px" style="font-family:'Calibri', sans-serif;font-size:9px;">Assorted Cheesecake<tspan x="327.668px " y="241.519px "> </tspan>$6.95 pp</text>
    </g>
    <g transform="matrix(4.166667,0,0,4.166667,0,0)">
        <text x="264.428px" y="254.153px" style="font-family:'Calibri', sans-serif;font-size:9px;">Assorted Pies $5.95 pp</text>
    </g>
    <g transform="matrix(4.166667,0,0,4.166667,0,0)">
        <text x="219.959px" y="279.422px" style="font-family:'Calibri', sans-serif;font-size:9px;">Our Privat<tspan x="257.018px " y="279.422px ">e</tspan> Ro<tspan x="273.148px " y="279.422px ">o</tspan>m Fe<tspan x="295.711px " y="279.422px ">e</tspan> is $100.00 (Three Hours<tspan x="389.125px " y="279.422px ">)</tspan></text>
    </g>
    <g transform="matrix(4.166667,0,0,4.166667,0,0)">
        <g transform="matrix(9,0,0,9,319.27773,304.69043)">
        </g>
        <g transform="matrix(9,0,0,9,321.994728,304.69043)">
        </g>
        <text x="144.396px" y="304.69px" style="font-family:'Calibri', sans-serif;font-size:9px;">The number of guests fo<tspan x="233.501px " y="304.69px ">r</tspan> your ev<tspan x="265.9px " y="304.69px ">e</tspan>nt<tspan x="278.107px " y="304.69px "> </tspan>will be conﬁrmed one we<tspan x="372.457px " y="304.69px ">e</tspan>k befo<tspan x="399.73px 402.863px 407.336px " y="304.69px 304.69px 304.69px ">re </tspan>the event<tspan x="444.348px " y="304.69px "> </tspan>date<tspan x="462.894px " y="304.69px ">.</tspan></text>
    </g>
    <g transform="matrix(4.166667,0,0,4.166667,0,0)">
        <text x="206.422px" y="317.325px" style="font-family:'Calibri', sans-serif;font-size:9px;">Final Pa<tspan x="234.689px 238.759px " y="317.325px 317.325px ">ym</tspan>ent is due one week bef<tspan x="333.155px 337.896px 341.029px 345.503px " y="317.325px 317.325px 317.325px 317.325px ">ore </tspan>the eve<tspan x="374.784px " y="317.325px ">n</tspan>t dat<tspan x="396.591px " y="317.325px ">e</tspan>.</text>
    </g>
    <g transform="matrix(4.166667,0,0,4.166667,0,0)">
        <g transform="matrix(9,0,0,9,480.84915,329.95898)">
            <path d="M0.457,-0.464C0.467,-0.464 0.473,-0.462 0.477,-0.458C0.481,-0.453 0.482,-0.447 0.482,-0.438L0.482,-0.012C0.482,-0.01 0.482,-0.007 0.48,-0.006C0.479,-0.004 0.477,-0.002 0.474,-0.001C0.471,0 0.467,0.001 0.461,0.002C0.456,0.003 0.45,0.003 0.442,0.003C0.434,0.003 0.428,0.003 0.422,0.002C0.417,0.001 0.413,0 0.41,-0.001C0.407,-0.002 0.405,-0.004 0.403,-0.006C0.402,-0.007 0.401,-0.01 0.401,-0.012L0.401,-0.397L0.174,-0.397L0.174,-0.152C0.174,-0.122 0.179,-0.099 0.188,-0.084C0.197,-0.068 0.213,-0.061 0.236,-0.061C0.243,-0.061 0.25,-0.061 0.256,-0.063C0.262,-0.064 0.267,-0.066 0.271,-0.067C0.276,-0.069 0.28,-0.071 0.283,-0.072C0.286,-0.073 0.289,-0.074 0.292,-0.074C0.294,-0.074 0.295,-0.074 0.297,-0.073C0.298,-0.072 0.299,-0.071 0.3,-0.068C0.301,-0.066 0.302,-0.063 0.302,-0.059C0.303,-0.055 0.303,-0.05 0.303,-0.044C0.303,-0.035 0.303,-0.028 0.301,-0.022C0.3,-0.017 0.298,-0.013 0.295,-0.01C0.293,-0.007 0.289,-0.005 0.284,-0.002C0.278,-0 0.273,0.002 0.266,0.003C0.259,0.005 0.252,0.006 0.245,0.007C0.237,0.008 0.23,0.008 0.222,0.008C0.199,0.008 0.18,0.005 0.164,-0.001C0.147,-0.007 0.134,-0.016 0.124,-0.028C0.113,-0.04 0.106,-0.056 0.101,-0.074C0.096,-0.093 0.094,-0.115 0.094,-0.141L0.094,-0.397L0.032,-0.397C0.027,-0.397 0.023,-0.4 0.021,-0.405C0.018,-0.41 0.016,-0.419 0.016,-0.431C0.016,-0.437 0.017,-0.442 0.017,-0.446C0.018,-0.451 0.019,-0.454 0.021,-0.457C0.022,-0.46 0.024,-0.462 0.026,-0.463C0.028,-0.464 0.03,-0.464 0.033,-0.464L0.094,-0.464L0.094,-0.569C0.094,-0.571 0.094,-0.573 0.095,-0.575C0.097,-0.577 0.099,-0.579 0.102,-0.58C0.105,-0.582 0.109,-0.583 0.114,-0.583C0.119,-0.584 0.126,-0.584 0.134,-0.584C0.142,-0.584 0.149,-0.584 0.154,-0.583C0.159,-0.583 0.163,-0.582 0.166,-0.58C0.169,-0.579 0.171,-0.577 0.172,-0.575C0.174,-0.573 0.174,-0.571 0.174,-0.569L0.174,-0.464L0.457,-0.464ZM0.492,-0.6C0.492,-0.581 0.488,-0.568 0.481,-0.562C0.474,-0.555 0.461,-0.551 0.441,-0.551C0.423,-0.551 0.41,-0.555 0.403,-0.561C0.396,-0.568 0.392,-0.581 0.392,-0.599C0.392,-0.618 0.396,-0.631 0.403,-0.638C0.41,-0.645 0.423,-0.648 0.442,-0.648C0.461,-0.648 0.474,-0.645 0.481,-0.638C0.488,-0.631 0.492,-0.619 0.492,-0.6ZM0.327,-0.464" style="fill-rule:nonzero;"/>
        </g>
        <g transform="matrix(9,0,0,9,480.84915,329.95898)">
        </g>
        <g transform="matrix(9,0,0,9,483.822969,329.95898)">
        </g>
        <g transform="matrix(9,0,0,9,485.859124,329.95898)">
        </g>
        <g transform="matrix(9,0,0,9,488.576312,329.95898)">
        </g>
        <text x="95.447px" y="329.959px" style="font-family:'Calibri', sans-serif;font-size:9px;">Pa<tspan x="104.399px 108.469px " y="329.959px 329.959px ">ym</tspan>ents ca<tspan x="141.519px " y="329.959px ">n</tspan> be made in Cash or Pers<tspan x="236.094px " y="329.959px ">o</tspan>nal or Business Check. If<tspan x="328.51px " y="329.959px "> </tspan>the eve<tspan x="357.791px " y="329.959px ">n</tspan>t is Ta<tspan x="383.855px " y="329.959px ">x</tspan> Exe<tspan x="402.539px " y="329.959px ">m</tspan>pt, please email cer<tspan x="485.859px " y="329.959px ">ﬁ</tspan>cat<tspan x="501.737px " y="329.959px ">e</tspan> to</text>
    </g>
    <g transform="matrix(4.166667,0,0,4.166667,0,0)">
        <text x="267.563px" y="342.593px" style="font-family:'Calibri', sans-serif;font-size:9px;fill:rgb(0,0,255);">dto258@ya<tspan x="310.127px " y="342.593px ">h</tspan>oo.com</text>
    </g>
    <g transform="matrix(4.166667,0,0,4.166667,0,0)">
        <g transform="matrix(9,0,0,9,417.885628,355.22754)">
            <path d="M0.457,-0.464C0.467,-0.464 0.473,-0.462 0.477,-0.458C0.481,-0.453 0.482,-0.447 0.482,-0.438L0.482,-0.012C0.482,-0.01 0.482,-0.007 0.48,-0.006C0.479,-0.004 0.477,-0.002 0.474,-0.001C0.471,0 0.467,0.001 0.461,0.002C0.456,0.003 0.45,0.003 0.442,0.003C0.434,0.003 0.428,0.003 0.422,0.002C0.417,0.001 0.413,0 0.41,-0.001C0.407,-0.002 0.405,-0.004 0.403,-0.006C0.402,-0.007 0.401,-0.01 0.401,-0.012L0.401,-0.397L0.174,-0.397L0.174,-0.152C0.174,-0.122 0.179,-0.099 0.188,-0.084C0.197,-0.068 0.213,-0.061 0.236,-0.061C0.243,-0.061 0.25,-0.061 0.256,-0.063C0.262,-0.064 0.267,-0.066 0.271,-0.067C0.276,-0.069 0.28,-0.071 0.283,-0.072C0.286,-0.073 0.289,-0.074 0.292,-0.074C0.294,-0.074 0.295,-0.074 0.297,-0.073C0.298,-0.072 0.299,-0.071 0.3,-0.068C0.301,-0.066 0.302,-0.063 0.302,-0.059C0.303,-0.055 0.303,-0.05 0.303,-0.044C0.303,-0.035 0.303,-0.028 0.301,-0.022C0.3,-0.017 0.298,-0.013 0.295,-0.01C0.293,-0.007 0.289,-0.005 0.284,-0.002C0.278,-0 0.273,0.002 0.266,0.003C0.259,0.005 0.252,0.006 0.245,0.007C0.237,0.008 0.23,0.008 0.222,0.008C0.199,0.008 0.18,0.005 0.164,-0.001C0.147,-0.007 0.134,-0.016 0.124,-0.028C0.113,-0.04 0.106,-0.056 0.101,-0.074C0.096,-0.093 0.094,-0.115 0.094,-0.141L0.094,-0.397L0.032,-0.397C0.027,-0.397 0.023,-0.4 0.021,-0.405C0.018,-0.41 0.016,-0.419 0.016,-0.431C0.016,-0.437 0.017,-0.442 0.017,-0.446C0.018,-0.451 0.019,-0.454 0.021,-0.457C0.022,-0.46 0.024,-0.462 0.026,-0.463C0.028,-0.464 0.03,-0.464 0.033,-0.464L0.094,-0.464L0.094,-0.569C0.094,-0.571 0.094,-0.573 0.095,-0.575C0.097,-0.577 0.099,-0.579 0.102,-0.58C0.105,-0.582 0.109,-0.583 0.114,-0.583C0.119,-0.584 0.126,-0.584 0.134,-0.584C0.142,-0.584 0.149,-0.584 0.154,-0.583C0.159,-0.583 0.163,-0.582 0.166,-0.58C0.169,-0.579 0.171,-0.577 0.172,-0.575C0.174,-0.573 0.174,-0.571 0.174,-0.569L0.174,-0.464L0.457,-0.464ZM0.492,-0.6C0.492,-0.581 0.488,-0.568 0.481,-0.562C0.474,-0.555 0.461,-0.551 0.441,-0.551C0.423,-0.551 0.41,-0.555 0.403,-0.561C0.396,-0.568 0.392,-0.581 0.392,-0.599C0.392,-0.618 0.396,-0.631 0.403,-0.638C0.41,-0.645 0.423,-0.648 0.442,-0.648C0.461,-0.648 0.474,-0.645 0.481,-0.638C0.488,-0.631 0.492,-0.619 0.492,-0.6ZM0.327,-0.464" style="fill-rule:nonzero;"/>
        </g>
        <g transform="matrix(9,0,0,9,417.885628,355.22754)">
        </g>
        <g transform="matrix(9,0,0,9,420.8594,355.22754)">
        </g>
        <text x="73.778px" y="355.228px" style="font-family:'Calibri', sans-serif;font-size:9px;">Deposits are re<tspan x="128.938px " y="355.228px ">q</tspan>uired to<tspan x="162.563px " y="355.228px "> </tspan>secure yo<tspan x="199.56px " y="355.228px ">u</tspan>r eve<tspan x="222.457px " y="355.228px ">n</tspan>t dat<tspan x="244.265px " y="355.228px ">e</tspan>. Yo<tspan x="262.161px " y="355.228px ">u</tspan>r deposit is nonref<tspan x="333.482px " y="355.228px ">u</tspan>ndable if your re<tspan x="398.395px " y="355.228px ">s</tspan>erv<tspan x="413.579px 422.895px " y="355.228px 355.228px ">ao</tspan>n is cancelled 8 weeks<tspan x="508.03px " y="355.228px "> </tspan>prior to</text>
    </g>
    <g transform="matrix(4.166667,0,0,4.166667,0,0)">
        <text x="114.111px" y="367.862px" style="font-family:'Calibri', sans-serif;font-size:9px;">your dat<tspan x="144.849px " y="367.862px ">e</tspan>. If we<tspan x="171.56px " y="367.862px "> </tspan>do not receive<tspan x="226.07px " y="367.862px "> </tspan>a deposit within one week of booking the<tspan x="379.286px " y="367.862px "> </tspan>eve<tspan x="394.325px " y="367.862px ">n</tspan>t, we<tspan x="417.233px " y="367.862px "> </tspan>will release the dat<tspan x="488.653px " y="367.862px ">e</tspan>.</text>
    </g>
    <g transform="matrix(4.166667,0,0,4.166667,0,0)">
        <text x="140.179px" y="393.13px" style="font-family:'Calibri', sans-serif;font-size:9px;">DTO<tspan x="156.049px " y="393.13px "> </tspan>will ID all guests if necessary and will d<tspan x="298.568px " y="393.13px ">e</tspan>ny<tspan x="311.836px " y="393.13px "> </tspan>serv<tspan x="329.053px " y="393.13px ">i</tspan>ng alcohol to<tspan x="378.329px " y="393.13px "> </tspan>any<tspan x="393.462px " y="393.13px "> </tspan>pers<tspan x="411.343px " y="393.13px ">o</tspan>ns into<tspan x="440.896px 444.79px " y="393.13px 393.13px ">xi</tspan>cat<tspan x="457.971px " y="393.13px ">e</tspan>d.</text>
    </g>
    <g transform="matrix(4.166667,0,0,4.166667,0,0)">
        <text x="173.771px" y="405.765px" style="font-family:'Calibri', sans-serif;font-size:9px;">DTO<tspan x="189.64px " y="405.765px "> </tspan>does not allow outside Bevera<tspan x="301.927px " y="405.765px ">g</tspan>es OR Alco<tspan x="344.859px " y="405.765px ">h</tspan>ol in our esta<tspan x="397.176px " y="405.765px ">b</tspan>lishment.</text>
    </g>
    <g transform="matrix(4.166667,0,0,4.166667,0,0)">
        <text x="218.402px" y="418.399px" style="font-family:'Calibri', sans-serif;font-size:9px;">Décor’<tspan x="242.329px " y="418.399px "> </tspan>– No Ta<tspan x="272.143px " y="418.399px ">c</tspan>ks OR Ta<tspan x="307.141px " y="418.399px ">p</tspan>e on Wa<tspan x="342.183px " y="418.399px ">l</tspan>ls OR Ceiling.</text>
    </g>
    <g transform="matrix(4.166667,0,0,4.166667,0,0)">
        <g transform="matrix(9,0,0,9,356.095625,431.0332)">
            <path d="M0.174,-0.397L0.174,-0.152C0.174,-0.122 0.179,-0.099 0.188,-0.084C0.197,-0.068 0.213,-0.061 0.236,-0.061C0.243,-0.061 0.25,-0.061 0.256,-0.063C0.262,-0.064 0.267,-0.066 0.271,-0.067C0.276,-0.069 0.28,-0.071 0.283,-0.072C0.286,-0.073 0.289,-0.074 0.292,-0.074C0.294,-0.074 0.295,-0.074 0.297,-0.073C0.298,-0.072 0.299,-0.071 0.3,-0.068C0.301,-0.066 0.302,-0.063 0.302,-0.059C0.303,-0.055 0.303,-0.05 0.303,-0.044C0.303,-0.035 0.303,-0.028 0.301,-0.022C0.3,-0.016 0.298,-0.012 0.295,-0.01C0.292,-0.007 0.288,-0.005 0.283,-0.002C0.278,-0 0.273,0.002 0.266,0.003C0.259,0.005 0.252,0.006 0.245,0.007C0.237,0.008 0.23,0.008 0.222,0.008C0.199,0.008 0.18,0.005 0.164,-0.001C0.147,-0.007 0.134,-0.016 0.124,-0.028C0.113,-0.04 0.106,-0.056 0.101,-0.074C0.096,-0.093 0.094,-0.115 0.094,-0.141L0.094,-0.397L0.032,-0.397C0.027,-0.397 0.023,-0.4 0.021,-0.405C0.018,-0.41 0.016,-0.419 0.016,-0.431C0.016,-0.437 0.017,-0.442 0.017,-0.446C0.018,-0.451 0.019,-0.454 0.021,-0.457C0.022,-0.46 0.024,-0.462 0.026,-0.463C0.028,-0.464 0.03,-0.464 0.033,-0.464L0.094,-0.464L0.094,-0.569C0.094,-0.571 0.094,-0.573 0.095,-0.575C0.097,-0.577 0.099,-0.579 0.102,-0.58C0.105,-0.582 0.109,-0.583 0.114,-0.583C0.119,-0.584 0.126,-0.584 0.134,-0.584C0.142,-0.584 0.149,-0.584 0.154,-0.583C0.159,-0.583 0.163,-0.582 0.166,-0.58C0.169,-0.579 0.171,-0.577 0.172,-0.575C0.174,-0.573 0.174,-0.571 0.174,-0.569L0.174,-0.464L0.393,-0.464L0.393,-0.59C0.393,-0.592 0.393,-0.595 0.395,-0.597C0.396,-0.599 0.398,-0.6 0.401,-0.601C0.404,-0.602 0.408,-0.603 0.414,-0.604C0.419,-0.605 0.425,-0.605 0.433,-0.605C0.441,-0.605 0.447,-0.605 0.453,-0.604C0.458,-0.603 0.462,-0.602 0.465,-0.601C0.468,-0.6 0.47,-0.599 0.472,-0.597C0.473,-0.595 0.474,-0.592 0.474,-0.59L0.474,-0.464L0.756,-0.464C0.766,-0.464 0.772,-0.462 0.776,-0.458C0.78,-0.453 0.782,-0.447 0.782,-0.438L0.782,-0.012C0.782,-0.01 0.781,-0.007 0.78,-0.006C0.778,-0.004 0.776,-0.002 0.773,-0.001C0.77,0 0.766,0.001 0.761,0.002C0.756,0.003 0.749,0.003 0.741,0.003C0.733,0.003 0.727,0.003 0.722,0.002C0.716,0.001 0.712,0 0.709,-0.001C0.706,-0.002 0.704,-0.004 0.702,-0.006C0.701,-0.007 0.701,-0.01 0.701,-0.012L0.701,-0.397L0.474,-0.397L0.474,-0.152C0.474,-0.122 0.478,-0.099 0.487,-0.084C0.496,-0.068 0.512,-0.061 0.535,-0.061C0.542,-0.061 0.548,-0.061 0.554,-0.063C0.56,-0.064 0.566,-0.066 0.57,-0.067C0.575,-0.069 0.579,-0.071 0.582,-0.072C0.586,-0.073 0.589,-0.074 0.591,-0.074C0.593,-0.074 0.594,-0.074 0.596,-0.073C0.597,-0.072 0.598,-0.071 0.599,-0.068C0.6,-0.066 0.6,-0.063 0.601,-0.059C0.602,-0.055 0.602,-0.05 0.602,-0.044C0.602,-0.035 0.601,-0.028 0.6,-0.022C0.599,-0.016 0.597,-0.012 0.594,-0.01C0.591,-0.007 0.587,-0.005 0.583,-0.002C0.578,-0 0.572,0.002 0.565,0.003C0.559,0.005 0.551,0.006 0.544,0.007C0.536,0.008 0.529,0.008 0.521,0.008C0.498,0.008 0.479,0.005 0.462,-0.001C0.446,-0.007 0.433,-0.016 0.423,-0.028C0.412,-0.04 0.405,-0.056 0.4,-0.074C0.395,-0.093 0.393,-0.115 0.393,-0.141L0.393,-0.397L0.174,-0.397ZM0.791,-0.6C0.791,-0.581 0.787,-0.568 0.78,-0.562C0.773,-0.555 0.759,-0.551 0.74,-0.551C0.721,-0.551 0.708,-0.555 0.701,-0.561C0.694,-0.568 0.691,-0.581 0.691,-0.599C0.691,-0.618 0.694,-0.631 0.702,-0.638C0.709,-0.645 0.722,-0.648 0.741,-0.648C0.76,-0.648 0.773,-0.645 0.78,-0.638C0.787,-0.631 0.791,-0.619 0.791,-0.6ZM0.626,-0.464" style="fill-rule:nonzero;"/>
        </g>
        <g transform="matrix(9,0,0,9,356.095625,431.0332)">
        </g>
        <g transform="matrix(9,0,0,9,358.963429,431.0332)">
        </g>
        <g transform="matrix(9,0,0,9,361.831234,431.0332)">
        </g>
        <text x="207.745px" y="431.033px" style="font-family:'Calibri', sans-serif;font-size:9px;">There is a $50.00 charg<tspan x="292.194px " y="431.033px ">e</tspan> fo<tspan x="306.184px " y="431.033px ">r</tspan> use of confe<tspan x="363.795px " y="431.033px "> </tspan>fo<tspan x="373.311px " y="431.033px ">r</tspan> décor.</text>
    </g>
    <g transform="matrix(4.166667,0,0,4.166667,0,0)">
        <text x="131.788px" y="443.667px" style="font-family:'Calibri', sans-serif;font-size:9px;">DTO<tspan x="147.657px " y="443.667px "> </tspan>has the right to<tspan x="205.459px " y="443.667px "> </tspan>charg<tspan x="227.691px " y="443.667px ">e</tspan> fo<tspan x="241.682px " y="443.667px ">r</tspan> any<tspan x="259.949px " y="443.667px "> </tspan>obvious damage or necessary repairs<tspan x="397.156px " y="443.667px "> </tspan>caused at<tspan x="434.086px " y="443.667px "> </tspan>your ev<tspan x="463.356px " y="443.667px ">e</tspan>nt<tspan x="475.565px " y="443.667px ">.</tspan></text>
    </g>
    <g transform="matrix(4.166667,0,0,4.166667,0,0)">
        <g transform="matrix(9,0,0,9,373.710857,468.93604)">
            <path d="M0.457,-0.464C0.467,-0.464 0.473,-0.462 0.477,-0.458C0.481,-0.453 0.482,-0.447 0.482,-0.438L0.482,-0.012C0.482,-0.01 0.482,-0.007 0.48,-0.006C0.479,-0.004 0.477,-0.002 0.474,-0.001C0.471,0 0.467,0.001 0.461,0.002C0.456,0.003 0.45,0.003 0.442,0.003C0.434,0.003 0.428,0.003 0.422,0.002C0.417,0.001 0.413,0 0.41,-0.001C0.407,-0.002 0.405,-0.004 0.403,-0.006C0.402,-0.007 0.401,-0.01 0.401,-0.012L0.401,-0.397L0.174,-0.397L0.174,-0.152C0.174,-0.122 0.179,-0.099 0.188,-0.084C0.197,-0.068 0.213,-0.061 0.236,-0.061C0.243,-0.061 0.25,-0.061 0.256,-0.063C0.262,-0.064 0.267,-0.066 0.271,-0.067C0.276,-0.069 0.28,-0.071 0.283,-0.072C0.286,-0.073 0.289,-0.074 0.292,-0.074C0.294,-0.074 0.295,-0.074 0.297,-0.073C0.298,-0.072 0.299,-0.071 0.3,-0.068C0.301,-0.066 0.302,-0.063 0.302,-0.059C0.303,-0.055 0.303,-0.05 0.303,-0.044C0.303,-0.035 0.303,-0.028 0.301,-0.022C0.3,-0.017 0.298,-0.013 0.295,-0.01C0.293,-0.007 0.289,-0.005 0.284,-0.002C0.278,-0 0.273,0.002 0.266,0.003C0.259,0.005 0.252,0.006 0.245,0.007C0.237,0.008 0.23,0.008 0.222,0.008C0.199,0.008 0.18,0.005 0.164,-0.001C0.147,-0.007 0.134,-0.016 0.124,-0.028C0.113,-0.04 0.106,-0.056 0.101,-0.074C0.096,-0.093 0.094,-0.115 0.094,-0.141L0.094,-0.397L0.032,-0.397C0.027,-0.397 0.023,-0.4 0.021,-0.405C0.018,-0.41 0.016,-0.419 0.016,-0.431C0.016,-0.437 0.017,-0.442 0.017,-0.446C0.018,-0.451 0.019,-0.454 0.021,-0.457C0.022,-0.46 0.024,-0.462 0.026,-0.463C0.028,-0.464 0.03,-0.464 0.033,-0.464L0.094,-0.464L0.094,-0.569C0.094,-0.571 0.094,-0.573 0.095,-0.575C0.097,-0.577 0.099,-0.579 0.102,-0.58C0.105,-0.582 0.109,-0.583 0.114,-0.583C0.119,-0.584 0.126,-0.584 0.134,-0.584C0.142,-0.584 0.149,-0.584 0.154,-0.583C0.159,-0.583 0.163,-0.582 0.166,-0.58C0.169,-0.579 0.171,-0.577 0.172,-0.575C0.174,-0.573 0.174,-0.571 0.174,-0.569L0.174,-0.464L0.457,-0.464ZM0.492,-0.6C0.492,-0.581 0.488,-0.568 0.481,-0.562C0.474,-0.555 0.461,-0.551 0.441,-0.551C0.423,-0.551 0.41,-0.555 0.403,-0.561C0.396,-0.568 0.392,-0.581 0.392,-0.599C0.392,-0.618 0.396,-0.631 0.403,-0.638C0.41,-0.645 0.423,-0.648 0.442,-0.648C0.461,-0.648 0.474,-0.645 0.481,-0.638C0.488,-0.631 0.492,-0.619 0.492,-0.6ZM0.327,-0.464" style="fill-rule:nonzero;"/>
        </g>
        <g transform="matrix(9,0,0,9,373.710857,468.93604)">
        </g>
        <g transform="matrix(9,0,0,9,376.684646,468.93604)">
        </g>
        <text x="215.723px" y="468.936px" style="font-family:'Calibri', sans-serif;font-size:9px;">Please do not hesitat<tspan x="292.337px " y="468.936px ">e</tspan> to<tspan x="306.594px " y="468.936px "> </tspan>call with any<tspan x="354.242px " y="468.936px "> </tspan>ques<tspan x="378.721px " y="468.936px ">o</tspan>ns.</text>
    </g>
    <g transform="matrix(4.166667,0,0,4.166667,0,0)">
        <text x="198.015px" y="481.57px" style="font-family:'Calibri', sans-serif;font-size:9px;">Dana Newman 315-576-0522 or email<tspan x="336.963px " y="481.57px "> </tspan>dto258@ya<tspan x="381.557px " y="481.57px ">h</tspan>oo.com</text>
    </g>
</svg>
