<?xml version="1.0" encoding="UTF-8" standalone="no"?>
<!DOCTYPE svg PUBLIC "-//W3C//DTD SVG 1.1//EN" "http://www.w3.org/Graphics/SVG/1.1/DTD/svg11.dtd">
<svg width="100%" height="100%" viewBox="0 0 1024 580" version="1.1" xmlns="http://www.w3.org/2000/svg" xmlns:xlink="http://www.w3.org/1999/xlink" xml:space="preserve" xmlns:serif="http://www.serif.com/" style="fill-rule:evenodd;clip-rule:evenodd;stroke-linecap:round;stroke-linejoin:round;stroke-miterlimit:1.5;">
    <g transform="matrix(0.99957,0,0,0.998935,-1919.173471,-867.05614)">
        <g transform="matrix(1.295714,0,0,1,-567.770293,0)">
            <rect x="1920" y="867.98" width="790.638" height="580.587"/>
        </g>
        <g transform="matrix(1.041751,0,0,1.041751,-101.311445,-45.76013)">
            <path d="M2800.142,1038.595C2789.224,1049.595 2778.029,1058.808 2776.501,1064.666C2774.772,1065.247 2773.264,1064.89 2771.901,1063.914C2770.072,1052.003 2770.478,1042.094 2776.25,1031.301C2768.09,1034.317 2759.93,1041.307 2751.771,1051.924C2749.476,1052.632 2747.498,1052.39 2745.651,1051.756C2741.55,1048.846 2739.295,1044.275 2737.435,1039.349L2721.591,1059.991L2713.459,1059.991C2711.131,1056.534 2710.506,1052.084 2710.86,1047.062C2714.009,1028.95 2718.079,1015.321 2730.393,1006.822L2721.004,1043.792C2729.943,1040.882 2739.45,1033.093 2749.507,1020.571L2752.86,1038.175C2767.061,1029.116 2779.235,1016.776 2788.741,1000.116L2765.491,998.619C2769.499,995.254 2771.471,991.045 2771.901,986.116L2790.082,985.445C2798.254,982.013 2804.209,976.61 2808.357,969.601C2808.484,976.789 2808.254,984.279 2814.309,986.451C2814.636,991.288 2813.565,995.392 2809.196,997.768C2805.758,997.115 2802.321,998.003 2798.884,1000.032C2791.218,1014.92 2785.368,1030.245 2783.291,1046.475C2788.575,1041.293 2794.188,1038.635 2800.142,1038.595Z" style="fill:white;"/>
        </g>
        <g transform="matrix(1.041751,0,0,1.041751,-101.311445,-45.76013)">
            <g transform="matrix(1,0,0,1.402732,0,-477.780492)">
                <path d="M2471.893,1142.806L2497.993,1142.806L2496.355,1205.068C2496.355,1212.478 2479.834,1219.661 2457.468,1219.661C2435.102,1219.661 2415.306,1212.478 2415.306,1205.068L2416.943,1142.806L2443.042,1142.806L2443.042,1197.784C2443.042,1203.899 2449.506,1206.713 2457.468,1206.713C2465.43,1206.713 2471.893,1203.899 2471.893,1197.784L2471.893,1142.806Z" style="fill:white;"/>
            </g>
            <g transform="matrix(1.388841,0,0,1.541565,-1219.61866,-1193.883334)">
                <path d="M2797.664,1504.415L2823.698,1574.349L2803.951,1574.349L2799.825,1564.033L2778.408,1564.033L2774.282,1574.349L2754.535,1574.349L2780.569,1504.415L2797.664,1504.415ZM2795.797,1551.262L2789.117,1526.799L2782.436,1551.262L2795.797,1551.262Z" style="fill:white;"/>
            </g>
            <g transform="matrix(1.388841,0,0,1.541565,-1514.549249,-1193.883334)">
                <path d="M2797.664,1504.415L2823.698,1574.349L2803.951,1574.349L2799.825,1564.033L2778.408,1564.033L2774.282,1574.349L2754.535,1574.349L2780.569,1504.415L2797.664,1504.415ZM2795.797,1551.262L2789.117,1526.799L2782.436,1551.262L2795.797,1551.262Z" style="fill:white;"/>
            </g>
            <g transform="matrix(1.25178,0,0,1.494872,-369.426007,-1123.302524)">
                <path d="M2557.173,1576.308L2557.173,1519.261L2539.049,1519.261L2539.049,1504.19L2595.952,1504.19L2595.952,1519.198L2577.796,1519.198L2577.796,1576.308L2557.173,1576.308Z" style="fill:white;"/>
            </g>
            <g transform="matrix(1.25178,0,0,1.494872,-933.639358,-1123.302524)">
                <path d="M2557.173,1576.308L2557.173,1519.261L2539.049,1519.261L2539.049,1504.19L2595.952,1504.19L2595.952,1519.198L2577.796,1519.198L2577.796,1576.308L2557.173,1576.308Z" style="fill:white;"/>
            </g>
            <g transform="matrix(1.492418,0,0,1.44881,-1202.795636,-1051.13192)">
                <path d="M2304.984,1519.385L2304.984,1507.732C2299.565,1504.356 2293.356,1502.856 2286.792,1502.199C2267.549,1502.705 2259.124,1514.44 2259.63,1523.325C2260.28,1534.733 2289.727,1549.447 2289.727,1555.517C2289.727,1561.587 2272.318,1564.182 2260.72,1559.625L2260.72,1570.942C2266.425,1575.224 2272.881,1577.464 2280.589,1576.308C2293.406,1575.271 2301.429,1570.414 2307.379,1562.224C2309.029,1557.549 2309.019,1552.657 2307.379,1547.553C2299.202,1537.401 2289.823,1530.178 2279.65,1524.89C2278.838,1524.468 2278.274,1523.987 2278.06,1523.467C2277.846,1522.947 2277.941,1522.349 2278.368,1521.772C2283.018,1515.491 2293.152,1515.424 2304.984,1519.385Z" style="fill:white;"/>
            </g>
            <g transform="matrix(1.498683,0,0,1.498683,-1727.603107,-1129.309609)">
                <path d="M2852.874,1576.308L2833.901,1576.308L2833.901,1504.373L2866.695,1504.373C2886.546,1514.637 2891.7,1528.995 2870.978,1545.242L2888.669,1575.936L2868.04,1575.936L2852.177,1543.469L2852.874,1576.308ZM2851.737,1535.609L2862.562,1535.569C2869.533,1528.884 2869.12,1522.706 2862.562,1515.952L2851.737,1515.952L2851.737,1535.609Z" style="fill:white;"/>
            </g>
            <g transform="matrix(1.498683,0,0,1.498683,-2245.676034,-1129.309609)">
                <path d="M2852.874,1576.308L2833.901,1576.308L2833.901,1504.373L2866.695,1504.373C2886.546,1514.637 2891.7,1528.995 2870.978,1545.242L2888.669,1575.936L2868.04,1575.936L2852.177,1543.469L2852.874,1576.308ZM2851.737,1535.609L2862.562,1535.569C2869.533,1528.884 2869.12,1522.706 2862.562,1515.952L2851.737,1515.952L2851.737,1535.609Z" style="fill:white;"/>
            </g>
            <path d="M2100.799,1233.077L2100.799,1125.269L2154.996,1125.269L2154.996,1146.562L2127.897,1146.562L2127.897,1169.158L2154.996,1169.158L2154.996,1189.952L2127.75,1189.952L2127.897,1213.367L2154.996,1213.367L2154.996,1233.077L2100.799,1233.077Z" style="fill:white;"/>
            <path d="M2714.155,1233.077L2714.155,1125.269L2739.73,1125.269L2771.901,1184.086L2771.901,1125.269L2798.479,1125.269L2798.479,1233.077L2771.901,1233.077L2740.149,1173.455L2740.149,1233.077L2714.155,1233.077Z" style="fill:white;"/>
        </g>
        <g transform="matrix(1.041751,0,0,1.041751,-101.311445,-45.76013)">
            <g transform="matrix(1.228529,0,0,0.898342,-412.841611,115.390379)">
                <path d="M2710.638,989.859L2710.638,1329.461" style="fill:none;stroke:white;stroke-width:6.47px;"/>
            </g>
            <g transform="matrix(1.228529,0,0,0.898342,-412.841611,115.390379)">
                <path d="M2643.753,1448.568L1988.248,1448.568" style="fill:none;stroke:white;stroke-width:6.47px;"/>
            </g>
            <g transform="matrix(1.228529,0,0,0.898342,-412.841611,115.390379)">
                <path d="M1920,1329.461L1920,989.859" style="fill:none;stroke:white;stroke-width:6.47px;"/>
            </g>
            <g transform="matrix(1.228529,0,0,0.898342,-412.841611,115.390379)">
                <path d="M1988.248,867.98L2643.753,867.98" style="fill:none;stroke:white;stroke-width:6.47px;"/>
            </g>
        </g>
        <g transform="matrix(1.219518,0,0,1.512596,40.599744,-1325.830862)">
            <path d="M2152.564,1576.172C2142.632,1577.188 2138.735,1572.51 2139.911,1563.046C2142.092,1540.58 2150.34,1519.47 2165.306,1504.34C2165.86,1504.062 2166.396,1504.062 2166.881,1504.815C2170.007,1507.557 2173.223,1508.663 2177.174,1504.969C2180.386,1500.97 2181.734,1500.974 2187.042,1500.957C2198.703,1504.369 2204.854,1511.822 2203.94,1524.457C2198.313,1553.427 2184.599,1572.352 2152.564,1576.172ZM2157.369,1566.504C2177.539,1561.331 2186.026,1548.026 2191.427,1530.251C2193.918,1520.397 2181.241,1513.097 2179.964,1513.778C2171.734,1515.242 2163.594,1521.381 2157.88,1527.666C2155.942,1529.229 2148.322,1550.137 2148.785,1557.303C2147.988,1563.937 2150.631,1567.217 2157.369,1566.504Z" style="fill:white;"/>
        </g>
        <g transform="matrix(1.041751,0,0,1.041751,-101.311445,-45.76013)">
            <path d="M2269.4,1320.231C2264.836,1330.872 2255.362,1336.506 2240.494,1332.873C2235.814,1335.005 2233.574,1340.054 2232.614,1346.621L2222.789,1346.856C2222.571,1338.918 2223.725,1332.134 2226.226,1326.485C2212.225,1318.245 2206.335,1302.994 2203.926,1284.736C2203.892,1271.61 2208.967,1266.192 2217.088,1265.371C2227.933,1270.109 2236.841,1277.02 2241.819,1288.341C2249.621,1276.17 2257.165,1272.056 2264.538,1273.335C2253.029,1289.733 2244.313,1305.663 2244.691,1324.926C2256.06,1325.257 2263.471,1323.192 2269.4,1320.231ZM2230.28,1317.189C2235.478,1310.264 2237.046,1300.828 2236.663,1290.04C2232.815,1281.694 2226.617,1276.245 2218.476,1273.193C2212.247,1274.344 2210.023,1279.732 2211.233,1288.753C2214.387,1301.635 2220.545,1311.317 2230.28,1317.189Z" style="fill:white;"/>
        </g>
        <g transform="matrix(1.041751,0,0,1.041751,-101.311445,-45.76013)">
            <path d="M2363.499,1306.113C2362.174,1294.485 2372.133,1280.294 2372.133,1273.932C2372.133,1267.569 2362.327,1265.934 2353.439,1269.288C2338.811,1279.014 2333.214,1292.742 2334.325,1309.444C2334.233,1322.716 2339.212,1331.454 2350.924,1334.174C2372.498,1329.034 2391.6,1314.786 2409.774,1297.12C2413.888,1295.182 2417.665,1295.432 2421.092,1297.958C2408.533,1307.972 2398.255,1318.102 2392.672,1328.474L2413.547,1314.39C2413.976,1319.815 2414.657,1325.1 2418.325,1328.725C2430.703,1322.162 2439.286,1311.944 2446.829,1300.725L2447.499,1293.851L2432.221,1293.767L2432.221,1285.467L2449.679,1284.629C2453.879,1283.778 2454.786,1276.533 2457.575,1273.365L2464.182,1272.306C2464.283,1278.017 2465.003,1283.109 2468.96,1284.964L2468.757,1293.621C2464.604,1293.477 2460.659,1294.302 2457.331,1298.006C2457.331,1298.006 2448.652,1325.632 2451.119,1333.245C2455.801,1331.792 2462.566,1325.359 2465.188,1319.671C2467.53,1310.697 2470.365,1304.727 2477.285,1298.843C2480.841,1295.892 2484.589,1295.583 2488.603,1298.927C2492.776,1303.823 2494.162,1306.987 2489.751,1311.539C2483.785,1314.269 2479.009,1318.843 2475.332,1325.12C2477.255,1329.938 2481.335,1332.024 2488.41,1330.318L2511.212,1304.246C2518.241,1304.117 2523.567,1306.396 2526.447,1312.133L2527.034,1326.217L2523.093,1334.181C2525.217,1335.857 2527.341,1335.328 2529.465,1333.427C2537.349,1328.662 2545.11,1313.726 2545.11,1313.726L2550.057,1313.416C2549.934,1322.175 2552.893,1328.776 2559.477,1332.84C2572.633,1329.102 2582.673,1319.755 2591.25,1307.774L2600.639,1312.301L2592.842,1334.014L2614.136,1317.918L2626.618,1331.372C2628.127,1329.862 2630.089,1328.531 2633.603,1328.311C2638.634,1317.358 2646.731,1307.056 2656.484,1297.105C2662.935,1296.021 2666.817,1298.326 2666.544,1306.113C2658.848,1311.441 2651.945,1318.475 2646.11,1327.809C2645.958,1334.477 2647.684,1339.543 2652.397,1342.061L2665.077,1333.782L2667.068,1338.708L2659.313,1346.856L2666.229,1362.914C2662.534,1376.502 2654.581,1385.588 2640.87,1388.588C2634.287,1387.736 2629.748,1384.226 2627.457,1377.795C2630.672,1367.147 2636.886,1359.284 2646.11,1354.217C2640.765,1349.101 2637.028,1342.759 2634.687,1335.354C2629.73,1337.015 2626.043,1340.159 2622.803,1343.825C2619.455,1338.318 2615.099,1333.961 2609.747,1330.743C2599.379,1335.636 2591.35,1343.317 2584.702,1352.645L2579.358,1344.576L2585.855,1324.666C2577.978,1333.419 2568.623,1340.238 2557.771,1345.1C2552.46,1343.137 2550.14,1334.477 2547.35,1330.441C2546.169,1328.733 2543.734,1331.914 2542.848,1330.198L2516.483,1346.856C2512.426,1346.875 2511.124,1344.665 2510.824,1341.642C2517.836,1333.712 2519.689,1324.152 2514.797,1316.223L2488.189,1339.336C2482.04,1342.861 2476.257,1342.567 2470.794,1338.917L2465.031,1330.743L2445.959,1346.856C2443.255,1346.674 2441.791,1345.206 2441.138,1342.899L2443.129,1317.54C2436.225,1326.336 2427.758,1333.322 2417.456,1338.184C2410.799,1337.177 2407.638,1333.724 2406.348,1328.962C2398.655,1331.509 2391.527,1336.875 2384.551,1343.004C2379.856,1342.495 2378.755,1338.39 2378.892,1333.049C2370.382,1338.748 2360.313,1342.456 2348.584,1344.041C2330.662,1343.025 2320.809,1327.437 2320.809,1313.191C2320.809,1297.375 2340.728,1260.014 2364.344,1256.386C2375.758,1257.229 2382.507,1263.321 2381.044,1278.652C2379.789,1289.217 2376.391,1298.41 2370.665,1306.113C2368.639,1307.475 2366.24,1307.435 2363.499,1306.113ZM2636.924,1379.443C2641.562,1380.636 2646.083,1379.189 2650.487,1375.107C2654.327,1370.119 2654.97,1364.882 2653.535,1359.484C2649.021,1358.381 2645.002,1360.013 2641.602,1365.064C2638.531,1369.584 2634.515,1378.823 2636.924,1379.443ZM2473.462,1317.195C2475.83,1317.876 2478.137,1317.05 2480.385,1314.718C2482.345,1311.869 2482.697,1306.75 2481.941,1305.794C2481.185,1304.838 2477.586,1306.096 2475.85,1308.981C2474.282,1311.564 2472.232,1316.841 2473.462,1317.195Z" style="fill:white;"/>
        </g>
        <g transform="matrix(0.841088,0,0,0.851581,332.792255,134.984006)">
            <path d="M2636.924,1379.443C2634.515,1378.823 2638.531,1369.584 2641.602,1365.064C2645.002,1360.013 2652.054,1357.81 2653.535,1359.484C2655.016,1361.158 2654.327,1370.119 2650.487,1375.107C2646.083,1379.189 2641.562,1380.636 2636.924,1379.443Z" style="fill:white;"/>
        </g>
        <g transform="matrix(1.084674,0,0,1.021934,-400.486227,-420.340122)">
            <path d="M2636.924,1379.443C2634.515,1378.823 2638.531,1369.584 2641.602,1365.064C2645.002,1360.013 2652.054,1357.81 2653.535,1359.484C2655.016,1361.158 2654.327,1370.119 2650.487,1375.107C2646.083,1379.189 2641.562,1380.636 2636.924,1379.443Z" style="fill:white;"/>
        </g>
        <g transform="matrix(1.041751,0,0,1.041751,-101.311445,-45.76013)">
            <path d="M2874.359,899.403C2876.23,897.548 2877.319,895.513 2877.971,893.377C2879.218,885.406 2874.55,881.796 2867.403,880.016C2859.519,881.317 2854.607,885.538 2854.74,894.717C2854.379,901.805 2857.468,906.688 2865.686,908.291C2869.143,908.178 2872.429,908.452 2875.079,910.173L2874.295,918.807C2874.799,924.083 2876.251,929.003 2879.099,933.4C2884.368,935.929 2890.018,936.426 2895.946,935.439C2891.862,934.244 2888.492,932.173 2886.02,929.001C2884.058,921.949 2883.826,915.268 2885.966,909.095C2888.633,900.778 2893.813,896.796 2901.15,896.536C2912.507,900.52 2919.69,907.718 2919.875,920.309C2919.991,923.518 2912.239,932.705 2912.239,932.705C2912.239,932.705 2916.467,921.869 2915.805,919.399C2913.986,912.606 2910.132,908.876 2904.369,908.022C2899.824,908.162 2897.181,910.178 2896.116,914.622C2895.475,917.177 2896.396,921.138 2897.052,921.167C2897.052,921.167 2901.239,911.216 2904.153,912.877C2908.128,914.022 2910.679,916.319 2910.808,920.577C2909.578,923.242 2907.929,925.605 2905.387,927.326C2904.377,928.011 2902.335,931.71 2902.46,933.019C2903.047,939.131 2902.265,944.954 2899.487,950.354C2899.52,954.983 2901.163,957.525 2904.584,957.759C2907.485,955.73 2910.492,954.285 2913.759,954.271C2915.907,955.773 2916.251,958.209 2915.744,961.085C2914.015,964.634 2911.017,968.608 2906.998,968.586C2902.084,968.232 2898.896,966.043 2896.912,962.577L2892.727,951.417C2891.444,953.927 2891.707,955.249 2892.439,961.514C2895.446,967.076 2898.438,971.637 2904.101,974.176C2910.249,974.652 2915.633,977.932 2919.858,985.458C2921.18,979.533 2920.01,975.225 2916.388,972.138C2916.61,965.2 2919.627,960.648 2924.245,957.465C2922.022,950.769 2916.378,948.065 2908.662,947.779C2907.386,945.778 2907.535,943.941 2908.64,942.215C2919.055,939.518 2923.384,931.585 2926.657,919.182C2924.726,906.891 2919.592,898.978 2907.589,891.54C2900.367,890.775 2894.638,889.728 2887.69,891.802C2882.706,894.925 2878.258,899.769 2875.746,904.998L2865.635,904.219C2861.82,902.571 2859.43,899.636 2858.053,895.785C2858.1,888.693 2861.198,885.644 2866.871,886.006C2870.545,886.467 2873.187,888.039 2873.766,891.83C2872.87,893.933 2871.367,895.406 2869.206,896.197C2866.629,895.5 2864.718,893.939 2863.08,892.022C2863.195,894.712 2864.087,897.416 2866.733,900.153C2869.347,900.431 2871.886,900.157 2874.359,899.403Z" style="fill:white;"/>
        </g>
        <g transform="matrix(1.041751,0,0,-1.041751,-101.311445,2362.339321)">
            <path d="M2874.359,899.403C2876.23,897.548 2877.319,895.513 2877.971,893.377C2879.218,885.406 2874.55,881.796 2867.403,880.016C2859.519,881.317 2854.607,885.538 2854.74,894.717C2854.379,901.805 2857.468,906.688 2865.686,908.291C2869.143,908.178 2872.429,908.452 2875.079,910.173L2874.295,918.807C2874.799,924.083 2876.251,929.003 2879.099,933.4C2884.368,935.929 2890.018,936.426 2895.946,935.439C2891.862,934.244 2888.492,932.173 2886.02,929.001C2884.058,921.949 2883.826,915.268 2885.966,909.095C2888.633,900.778 2893.813,896.796 2901.15,896.536C2912.507,900.52 2919.69,907.718 2919.875,920.309C2919.991,923.518 2912.239,932.705 2912.239,932.705C2912.239,932.705 2916.467,921.869 2915.805,919.399C2913.986,912.606 2910.132,908.876 2904.369,908.022C2899.824,908.162 2897.181,910.178 2896.116,914.622C2895.475,917.177 2896.396,921.138 2897.052,921.167C2897.052,921.167 2901.239,911.216 2904.153,912.877C2908.128,914.022 2910.679,916.319 2910.808,920.577C2909.578,923.242 2907.929,925.605 2905.387,927.326C2904.377,928.011 2902.335,931.71 2902.46,933.019C2903.047,939.131 2902.265,944.954 2899.487,950.354C2899.52,954.983 2901.163,957.525 2904.584,957.759C2907.485,955.73 2910.492,954.285 2913.759,954.271C2915.907,955.773 2916.251,958.209 2915.744,961.085C2914.015,964.634 2911.017,968.608 2906.998,968.586C2902.084,968.232 2898.896,966.043 2896.912,962.577L2892.727,951.417C2891.444,953.927 2891.707,955.249 2892.439,961.514C2895.446,967.076 2898.438,971.637 2904.101,974.176C2910.249,974.652 2915.633,977.932 2919.858,985.458C2921.18,979.533 2920.01,975.225 2916.388,972.138C2916.61,965.2 2919.627,960.648 2924.245,957.465C2922.022,950.769 2916.378,948.065 2908.662,947.779C2907.386,945.778 2907.535,943.941 2908.64,942.215C2919.055,939.518 2923.384,931.585 2926.657,919.182C2924.726,906.891 2919.592,898.978 2907.589,891.54C2900.367,890.775 2894.638,889.728 2887.69,891.802C2882.706,894.925 2878.258,899.769 2875.746,904.998L2865.635,904.219C2861.82,902.571 2859.43,899.636 2858.053,895.785C2858.1,888.693 2861.198,885.644 2866.871,886.006C2870.545,886.467 2873.187,888.039 2873.766,891.83C2872.87,893.933 2871.367,895.406 2869.206,896.197C2866.629,895.5 2864.718,893.939 2863.08,892.022C2863.195,894.712 2864.087,897.416 2866.733,900.153C2869.347,900.431 2871.886,900.157 2874.359,899.403Z" style="fill:white;"/>
        </g>
        <g transform="matrix(-1.041751,0,0,1.041751,4965.752451,-45.76013)">
            <path d="M2874.359,899.403C2876.23,897.548 2877.319,895.513 2877.971,893.377C2879.218,885.406 2874.55,881.796 2867.403,880.016C2859.519,881.317 2854.607,885.538 2854.74,894.717C2854.379,901.805 2857.468,906.688 2865.686,908.291C2869.143,908.178 2872.429,908.452 2875.079,910.173L2874.295,918.807C2874.799,924.083 2876.251,929.003 2879.099,933.4C2884.368,935.929 2890.018,936.426 2895.946,935.439C2891.862,934.244 2888.492,932.173 2886.02,929.001C2884.058,921.949 2883.826,915.268 2885.966,909.095C2888.633,900.778 2893.813,896.796 2901.15,896.536C2912.507,900.52 2919.69,907.718 2919.875,920.309C2919.991,923.518 2912.239,932.705 2912.239,932.705C2912.239,932.705 2916.467,921.869 2915.805,919.399C2913.986,912.606 2910.132,908.876 2904.369,908.022C2899.824,908.162 2897.181,910.178 2896.116,914.622C2895.475,917.177 2896.396,921.138 2897.052,921.167C2897.052,921.167 2901.239,911.216 2904.153,912.877C2908.128,914.022 2910.679,916.319 2910.808,920.577C2909.578,923.242 2907.929,925.605 2905.387,927.326C2904.377,928.011 2902.335,931.71 2902.46,933.019C2903.047,939.131 2902.265,944.954 2899.487,950.354C2899.52,954.983 2901.163,957.525 2904.584,957.759C2907.485,955.73 2910.492,954.285 2913.759,954.271C2915.907,955.773 2916.251,958.209 2915.744,961.085C2914.015,964.634 2911.017,968.608 2906.998,968.586C2902.084,968.232 2898.896,966.043 2896.912,962.577L2892.727,951.417C2891.444,953.927 2891.707,955.249 2892.439,961.514C2895.446,967.076 2898.438,971.637 2904.101,974.176C2910.249,974.652 2915.633,977.932 2919.858,985.458C2921.18,979.533 2920.01,975.225 2916.388,972.138C2916.61,965.2 2919.627,960.648 2924.245,957.465C2922.022,950.769 2916.378,948.065 2908.662,947.779C2907.386,945.778 2907.535,943.941 2908.64,942.215C2919.055,939.518 2923.384,931.585 2926.657,919.182C2924.726,906.891 2919.592,898.978 2907.589,891.54C2900.367,890.775 2894.638,889.728 2887.69,891.802C2882.706,894.925 2878.258,899.769 2875.746,904.998L2865.635,904.219C2861.82,902.571 2859.43,899.636 2858.053,895.785C2858.1,888.693 2861.198,885.644 2866.871,886.006C2870.545,886.467 2873.187,888.039 2873.766,891.83C2872.87,893.933 2871.367,895.406 2869.206,896.197C2866.629,895.5 2864.718,893.939 2863.08,892.022C2863.195,894.712 2864.087,897.416 2866.733,900.153C2869.347,900.431 2871.886,900.157 2874.359,899.403Z" style="fill:white;"/>
        </g>
        <g transform="matrix(-1.041751,0,0,-1.041751,4965.752451,2362.339321)">
            <path d="M2874.359,899.403C2876.23,897.548 2877.319,895.513 2877.971,893.377C2879.218,885.406 2874.55,881.796 2867.403,880.016C2859.519,881.317 2854.607,885.538 2854.74,894.717C2854.379,901.805 2857.468,906.688 2865.686,908.291C2869.143,908.178 2872.429,908.452 2875.079,910.173L2874.295,918.807C2874.799,924.083 2876.251,929.003 2879.099,933.4C2884.368,935.929 2890.018,936.426 2895.946,935.439C2891.862,934.244 2888.492,932.173 2886.02,929.001C2884.058,921.949 2883.826,915.268 2885.966,909.095C2888.633,900.778 2893.813,896.796 2901.15,896.536C2912.507,900.52 2919.69,907.718 2919.875,920.309C2919.991,923.518 2912.239,932.705 2912.239,932.705C2912.239,932.705 2916.467,921.869 2915.805,919.399C2913.986,912.606 2910.132,908.876 2904.369,908.022C2899.824,908.162 2897.181,910.178 2896.116,914.622C2895.475,917.177 2896.396,921.138 2897.052,921.167C2897.052,921.167 2901.239,911.216 2904.153,912.877C2908.128,914.022 2910.679,916.319 2910.808,920.577C2909.578,923.242 2907.929,925.605 2905.387,927.326C2904.377,928.011 2902.335,931.71 2902.46,933.019C2903.047,939.131 2902.265,944.954 2899.487,950.354C2899.52,954.983 2901.163,957.525 2904.584,957.759C2907.485,955.73 2910.492,954.285 2913.759,954.271C2915.907,955.773 2916.251,958.209 2915.744,961.085C2914.015,964.634 2911.017,968.608 2906.998,968.586C2902.084,968.232 2898.896,966.043 2896.912,962.577L2892.727,951.417C2891.444,953.927 2891.707,955.249 2892.439,961.514C2895.446,967.076 2898.438,971.637 2904.101,974.176C2910.249,974.652 2915.633,977.932 2919.858,985.458C2921.18,979.533 2920.01,975.225 2916.388,972.138C2916.61,965.2 2919.627,960.648 2924.245,957.465C2922.022,950.769 2916.378,948.065 2908.662,947.779C2907.386,945.778 2907.535,943.941 2908.64,942.215C2919.055,939.518 2923.384,931.585 2926.657,919.182C2924.726,906.891 2919.592,898.978 2907.589,891.54C2900.367,890.775 2894.638,889.728 2887.69,891.802C2882.706,894.925 2878.258,899.769 2875.746,904.998L2865.635,904.219C2861.82,902.571 2859.43,899.636 2858.053,895.785C2858.1,888.693 2861.198,885.644 2866.871,886.006C2870.545,886.467 2873.187,888.039 2873.766,891.83C2872.87,893.933 2871.367,895.406 2869.206,896.197C2866.629,895.5 2864.718,893.939 2863.08,892.022C2863.195,894.712 2864.087,897.416 2866.733,900.153C2869.347,900.431 2871.886,900.157 2874.359,899.403Z" style="fill:white;"/>
        </g>
        <g transform="matrix(1.041751,0,0,1.041751,-101.311445,-45.76013)">
            <path d="M2312.208,1000.823C2315.772,995.097 2318.854,989.157 2320.809,982.715C2320.862,972.874 2323.802,965.82 2329.041,960.986C2333.339,963.025 2336.081,966.054 2334.474,971.85C2330.491,984.485 2324.463,994.359 2316.903,1002.164C2314.433,1003.024 2313.068,1002.289 2312.208,1000.823" style="fill:white;"/>
        </g>
        <g transform="matrix(1.041751,0,0,1.041751,-101.311445,-45.76013)">
            <path d="M2317.84,1043.006C2328.844,1027.108 2342.837,1013.586 2359.421,1002.123C2363.423,1005.507 2364.665,1011.275 2362.372,1020.096C2360.796,1030.475 2355.847,1039.013 2349.549,1046.815C2354.272,1045.843 2358.184,1043.156 2361.62,1039.465L2362.801,1048.049C2352.295,1052.661 2343.17,1058.058 2334.204,1064.278L2333.882,1043.596L2341.655,1042.696C2346.028,1035.671 2349.378,1026.203 2347.349,1024.174C2345.32,1022.145 2326.997,1034.634 2317.84,1043.006Z" style="fill:white;"/>
        </g>
        <g transform="matrix(1.041751,0,0,1.041751,-101.311445,-45.76013)">
            <path d="M2405.514,966.171L2409.41,951.71C2427.887,945.538 2449.003,942.853 2467.759,944.505L2464.261,960.361C2457.444,958.257 2450.626,958.174 2443.808,959.143C2433.456,991.635 2427.873,1025.909 2421.153,1059.519L2411.894,1059.143C2415.959,1026.442 2422.287,991.447 2432.221,959.864L2405.514,966.171Z" style="fill:white;"/>
        </g>
        <g transform="matrix(1.041751,0,0,1.041751,-101.311445,-45.76013)">
            <path d="M2450.319,1021.299L2462.763,1018.286L2461.115,1042.242C2476.175,1032.592 2491.585,1020.685 2503.605,1007.1C2506.032,1008.887 2506.34,1010.625 2505.727,1015.273C2502.912,1018.612 2499.336,1025.847 2499.204,1030.08C2509.249,1017.493 2523.716,1007.062 2535.549,1003.596L2528.822,1030.799C2528.822,1030.799 2542.901,1019.046 2544.263,1019.151C2545.626,1019.256 2552.751,1019.256 2552.751,1019.256L2556.197,1037.176L2561.554,1037.594C2566.49,1021.662 2574.823,1008.703 2586.913,999.031C2589.533,997.868 2592.152,997.358 2594.772,997.983C2598.818,998.549 2600.917,1000.892 2600.85,1005.214C2596.551,1018.147 2588.3,1028.725 2575.596,1036.651C2580.631,1045.396 2587.565,1045.068 2595.82,1038.432C2596.877,1047.792 2591.164,1054.133 2577.377,1056.875C2570.42,1055.191 2567.102,1050.677 2566.584,1043.986L2560.653,1043.823C2560.139,1046.135 2558.254,1047.716 2555.057,1048.597C2547.03,1047.53 2543.758,1042.439 2542.708,1035.469L2534.539,1035.477C2528.257,1045.069 2520.155,1052.84 2509.938,1058.497C2514.046,1048.373 2516.776,1038.151 2518.38,1027.848C2506.96,1031.826 2495.672,1044.146 2487.758,1055.697L2481.159,1056.024L2489.689,1030.87L2460.117,1055.303C2451.806,1055.319 2450.151,1049.882 2448.459,1042.205L2450.319,1021.299ZM2576.541,1026.53C2579.834,1025.719 2582.819,1023.879 2585.426,1020.778C2587.514,1017.32 2588.245,1013.793 2588.044,1010.22C2585.068,1010.726 2582.092,1012.46 2579.116,1016.057C2576.963,1019.313 2576.176,1022.817 2576.541,1026.53Z" style="fill:white;"/>
        </g>
        <g transform="matrix(1.041751,0,0,1.041751,-101.311445,-45.76013)">
            <path d="M2059.463,1054.329C2071.874,1028.543 2082.274,1000.892 2091.555,972.2C2101.211,973.752 2108.484,979.674 2112.775,991.062C2113.913,1008.941 2106.858,1023.569 2093.913,1035.859C2083.356,1045.58 2071.901,1054.103 2059.332,1061.14L2058.677,1066.903L2095.877,1051.185L2124.177,1043.549L2120.634,1060.485L2152.202,1040.444C2154.348,1043.66 2155.266,1049.391 2154.953,1053.948C2159.474,1053.557 2163.89,1052.593 2168.182,1050.943C2175.454,1040.921 2183.732,1034.437 2193.463,1030.227L2181.68,1060.436L2194.511,1060.878C2200.291,1049.123 2207.36,1041.116 2215.6,1036.514C2222.454,1038.982 2226.031,1044.454 2227.52,1051.84L2238.916,1048.434L2236.296,1056.163C2236.19,1060.33 2237.98,1063.272 2243.369,1063.891C2251.34,1054.878 2260.387,1047.136 2270.876,1041.099C2270.6,1045.647 2271.09,1050.157 2273.103,1054.591C2276.797,1056.315 2280.757,1056.809 2285.023,1055.901C2287.163,1051.142 2290.335,1047.76 2294.192,1045.291L2292.943,1038.507C2290.119,1042.114 2286.508,1044.332 2281.739,1044.505C2280.93,1037.327 2282.113,1029.187 2283.713,1022.467L2277.294,1023.17L2252.538,1044.505C2261.988,1030.333 2274.155,1018.878 2288.298,1009.4C2289.342,1007.029 2289.417,1004.658 2288.629,1002.287C2285.248,1000.718 2281.815,1000.914 2278.343,1002.458C2263.57,1012.784 2250.502,1024.982 2239.277,1039.2L2235.846,1038.784C2236.025,1028.829 2233.375,1022.246 2228.175,1018.7C2217.803,1021.478 2209.52,1027.815 2202.239,1035.859L2211.277,1010.055L2205.907,1006.387C2193.283,1019.093 2180.617,1031.76 2162.791,1039.716C2162.24,1032.96 2163.392,1023.979 2165.747,1018.117L2158.882,1019.487C2152.571,1027.061 2144.95,1036.074 2135.174,1040.182C2144.792,1026.628 2156.206,1014.87 2169.513,1005.004C2169.959,1000.226 2167.891,998.464 2164.981,997.714L2116.704,1037.824C2111.292,1041.118 2105.737,1041.999 2100.1,1041.492C2109.975,1031.54 2119.309,1019.268 2126.053,1004.622C2127.809,996.914 2127.651,989.207 2126.053,981.5C2115.85,959.279 2097.04,949.6 2072.3,944.823L2071.252,957.267C2076.198,958.634 2081.069,960.984 2085.791,965.257L2071.514,987.525C2064.73,1009.447 2060.881,1031.736 2059.463,1054.329Z" style="fill:white;"/>
        </g>
    </g>
</svg>
