<?xml version="1.0" encoding="UTF-8" standalone="no"?>
<!DOCTYPE svg PUBLIC "-//W3C//DTD SVG 1.1//EN" "http://www.w3.org/Graphics/SVG/1.1/DTD/svg11.dtd">
<svg width="100%" height="100%" viewBox="0 0 500 500" version="1.1" xmlns="http://www.w3.org/2000/svg" xmlns:xlink="http://www.w3.org/1999/xlink" xml:space="preserve" xmlns:serif="http://www.serif.com/" style="fill-rule:evenodd;clip-rule:evenodd;stroke-linejoin:round;stroke-miterlimit:2;">
    <g transform="matrix(1.67784,0,0,1.67784,-683.614711,-2779.346904)">
        <g transform="matrix(1.126308,0,0,1.126308,326.551115,1636.068804)">
            <path d="M204.15,18.143C148.92,18.143 132.767,18.2 129.627,18.46C118.293,19.403 111.24,21.188 103.556,25.014C97.635,27.956 92.965,31.365 88.356,36.144C79.962,44.86 74.875,55.582 73.033,68.328C72.138,74.516 71.877,75.778 71.825,107.384C71.804,117.92 71.825,131.785 71.825,150.383C71.825,205.583 71.886,221.724 72.15,224.859C73.066,235.891 74.795,242.832 78.458,250.424C85.458,264.957 98.827,275.867 114.577,279.938C120.031,281.342 126.054,282.116 133.786,282.482C137.063,282.624 170.455,282.726 203.867,282.726C237.28,282.726 270.693,282.685 273.887,282.523C282.841,282.101 288.04,281.403 293.788,279.917C309.64,275.826 322.765,265.079 329.907,250.342C333.499,242.933 335.32,235.728 336.144,225.272C336.323,222.992 336.399,186.646 336.399,150.348C336.399,114.044 336.317,77.765 336.138,75.485C335.304,64.86 333.483,57.716 329.775,50.164C326.733,43.983 323.355,39.366 318.451,34.646C309.699,26.285 298.996,21.196 286.241,19.356C280.061,18.462 278.83,18.198 247.208,18.143L204.15,18.143Z" style="fill:url(#_Radial1);fill-rule:nonzero;"/>
        </g>
        <g transform="matrix(1.126308,0,0,1.126308,326.551115,1636.068804)">
            <path d="M204.15,18.143C148.92,18.143 132.767,18.2 129.627,18.46C118.293,19.403 111.24,21.188 103.556,25.014C97.635,27.956 92.965,31.365 88.356,36.144C79.962,44.86 74.875,55.582 73.033,68.328C72.138,74.516 71.877,75.778 71.825,107.384C71.804,117.92 71.825,131.785 71.825,150.383C71.825,205.583 71.886,221.724 72.15,224.859C73.066,235.891 74.795,242.832 78.458,250.424C85.458,264.957 98.827,275.867 114.577,279.938C120.031,281.342 126.054,282.116 133.786,282.482C137.063,282.624 170.455,282.726 203.867,282.726C237.28,282.726 270.693,282.685 273.887,282.523C282.841,282.101 288.04,281.403 293.788,279.917C309.64,275.826 322.765,265.079 329.907,250.342C333.499,242.933 335.32,235.728 336.144,225.272C336.323,222.992 336.399,186.646 336.399,150.348C336.399,114.044 336.317,77.765 336.138,75.485C335.304,64.86 333.483,57.716 329.775,50.164C326.733,43.983 323.355,39.366 318.451,34.646C309.699,26.285 298.996,21.196 286.241,19.356C280.061,18.462 278.83,18.198 247.208,18.143L204.15,18.143Z" style="fill:url(#_Radial2);fill-rule:nonzero;"/>
        </g>
        <g transform="matrix(1.126308,0,0,1.126308,326.551115,1636.068804)">
            <path d="M204.15,18.143C148.92,18.143 132.767,18.2 129.627,18.46C118.293,19.403 111.24,21.188 103.556,25.014C97.635,27.956 92.965,31.365 88.356,36.144C79.962,44.86 74.875,55.582 73.033,68.328C72.138,74.516 71.877,75.778 71.825,107.384C71.804,117.92 71.825,131.785 71.825,150.383C71.825,205.583 71.886,221.724 72.15,224.859C73.066,235.891 74.795,242.832 78.458,250.424C85.458,264.957 98.827,275.867 114.577,279.938C120.031,281.342 126.054,282.116 133.786,282.482C137.063,282.624 170.455,282.726 203.867,282.726C237.28,282.726 270.693,282.685 273.887,282.523C282.841,282.101 288.04,281.403 293.788,279.917C309.64,275.826 322.765,265.079 329.907,250.342C333.499,242.933 335.32,235.728 336.144,225.272C336.323,222.992 336.399,186.646 336.399,150.348C336.399,114.044 336.317,77.765 336.138,75.485C335.304,64.86 333.483,57.716 329.775,50.164C326.733,43.983 323.355,39.366 318.451,34.646C309.699,26.285 298.996,21.196 286.241,19.356C280.061,18.462 278.83,18.198 247.208,18.143L204.15,18.143Z" style="fill:url(#_Radial3);fill-rule:nonzero;"/>
        </g>
        <g transform="matrix(1.126308,0,0,1.126308,326.551115,1636.068804)">
            <path d="M204.15,18.143C148.92,18.143 132.767,18.2 129.627,18.46C118.293,19.403 111.24,21.188 103.556,25.014C97.635,27.956 92.965,31.365 88.356,36.144C79.962,44.86 74.875,55.582 73.033,68.328C72.138,74.516 71.877,75.778 71.825,107.384C71.804,117.92 71.825,131.785 71.825,150.383C71.825,205.583 71.886,221.724 72.15,224.859C73.066,235.891 74.795,242.832 78.458,250.424C85.458,264.957 98.827,275.867 114.577,279.938C120.031,281.342 126.054,282.116 133.786,282.482C137.063,282.624 170.455,282.726 203.867,282.726C237.28,282.726 270.693,282.685 273.887,282.523C282.841,282.101 288.04,281.403 293.788,279.917C309.64,275.826 322.765,265.079 329.907,250.342C333.499,242.933 335.32,235.728 336.144,225.272C336.323,222.992 336.399,186.646 336.399,150.348C336.399,114.044 336.317,77.765 336.138,75.485C335.304,64.86 333.483,57.716 329.775,50.164C326.733,43.983 323.355,39.366 318.451,34.646C309.699,26.285 298.996,21.196 286.241,19.356C280.061,18.462 278.83,18.198 247.208,18.143L204.15,18.143Z" style="fill:url(#_Radial4);fill-rule:nonzero;"/>
        </g>
        <g transform="matrix(1.126308,0,0,1.126308,407.43747,1656.503293)">
            <path d="M132.345,33.973C105.629,33.973 102.276,34.09 91.782,34.567C81.31,35.046 74.161,36.703 67.906,39.134C61.436,41.645 55.948,45.003 50.48,50.469C45.008,55.933 41.646,61.417 39.126,67.881C36.687,74.133 35.027,81.278 34.555,91.739C34.086,102.225 33.963,105.577 33.963,132.274C33.963,158.971 34.082,162.311 34.557,172.796C35.039,183.261 36.697,190.405 39.128,196.655C41.642,203.12 45.003,208.605 50.473,214.069C55.939,219.537 61.428,222.903 67.894,225.414C74.153,227.845 81.303,229.502 91.774,229.981C102.267,230.458 105.618,230.575 132.333,230.575C159.052,230.575 162.394,230.458 172.888,229.981C183.36,229.502 190.517,227.845 196.776,225.414C203.244,222.903 208.724,219.537 214.19,214.069C219.662,208.605 223.024,203.12 225.544,196.657C227.963,190.405 229.623,183.259 230.115,172.799C230.586,162.313 230.709,158.971 230.709,132.274C230.709,105.577 230.586,102.227 230.115,91.741C229.623,81.276 227.963,74.133 225.544,67.883C223.024,61.417 219.662,55.933 214.19,50.469C208.718,45.001 203.246,41.642 196.77,39.134C190.499,36.703 183.346,35.046 172.873,34.567C162.38,34.09 159.039,33.973 132.315,33.973L132.345,33.973ZM123.52,51.688C126.139,51.684 129.062,51.688 132.345,51.688C158.611,51.688 161.724,51.782 172.096,52.253C181.688,52.691 186.894,54.293 190.361,55.638C194.952,57.42 198.225,59.55 201.666,62.99C205.109,66.431 207.241,69.707 209.028,74.295C210.374,77.756 211.979,82.958 212.416,92.542C212.887,102.904 212.989,106.017 212.989,132.251C212.989,158.486 212.887,161.599 212.416,171.961C211.977,181.545 210.374,186.747 209.028,190.208C207.245,194.795 205.109,198.062 201.666,201.5C198.223,204.941 194.954,207.071 190.361,208.852C186.898,210.204 181.688,211.802 172.096,212.24C161.726,212.711 158.611,212.813 132.345,212.813C106.077,212.813 102.964,212.711 92.594,212.24C83.002,211.798 77.797,210.196 74.327,208.851C69.736,207.069 66.457,204.939 63.014,201.498C59.571,198.058 57.44,194.789 55.652,190.2C54.306,186.739 52.701,181.537 52.265,171.953C51.793,161.59 51.699,158.477 51.699,132.227C51.699,105.977 51.793,102.88 52.265,92.517C52.703,82.933 54.306,77.731 55.652,74.266C57.435,69.679 59.571,66.402 63.014,62.962C66.457,59.521 69.736,57.391 74.327,55.605C77.795,54.254 83.002,52.656 92.594,52.216C101.669,51.806 105.186,51.684 123.52,51.663L123.52,51.688ZM184.857,68.01C178.339,68.01 173.052,73.287 173.052,79.802C173.052,86.314 178.339,91.598 184.857,91.598C191.374,91.598 196.661,86.314 196.661,79.802C196.661,73.289 191.374,68.006 184.856,68.006L184.857,68.01ZM132.345,81.792C104.446,81.792 81.826,104.395 81.826,132.274C81.826,160.153 104.446,182.745 132.345,182.745C160.245,182.745 182.856,160.153 182.856,132.274C182.856,104.395 160.243,81.792 132.343,81.792L132.345,81.792ZM132.345,99.507C150.454,99.507 165.137,114.176 165.137,132.274C165.137,150.37 150.454,165.041 132.345,165.041C114.234,165.041 99.554,150.37 99.554,132.274C99.554,114.176 114.234,99.507 132.345,99.507Z" style="fill:white;fill-rule:nonzero;"/>
        </g>
    </g>
    <defs>
        <radialGradient id="_Radial1" cx="0" cy="0" r="1" gradientUnits="userSpaceOnUse" gradientTransform="matrix(-162.706891,45.887137,-33.059972,-117.222338,327.855413,142.156389)"><stop offset="0" style="stop-color:rgb(255,0,95);stop-opacity:1"/><stop offset="1" style="stop-color:rgb(252,1,216);stop-opacity:1"/></radialGradient>
        <radialGradient id="_Radial2" cx="0" cy="0" r="1" gradientUnits="userSpaceOnUse" gradientTransform="matrix(0,-211.195374,224.073843,0,142.093396,303.104497)"><stop offset="0" style="stop-color:rgb(255,204,0);stop-opacity:1"/><stop offset="0.12" style="stop-color:rgb(255,204,0);stop-opacity:1"/><stop offset="0.57" style="stop-color:rgb(254,74,5);stop-opacity:1"/><stop offset="0.69" style="stop-color:rgb(255,15,63);stop-opacity:1"/><stop offset="1" style="stop-color:rgb(254,6,87);stop-opacity:0"/></radialGradient>
        <radialGradient id="_Radial3" cx="0" cy="0" r="1" gradientUnits="userSpaceOnUse" gradientTransform="matrix(43.83665,-75.53195,98.33395,57.07065,210.792998,278.994842)"><stop offset="0" style="stop-color:rgb(255,204,0);stop-opacity:1"/><stop offset="1" style="stop-color:rgb(255,204,0);stop-opacity:0"/></radialGradient>
        <radialGradient id="_Radial4" cx="0" cy="0" r="1" gradientUnits="userSpaceOnUse" gradientTransform="matrix(-160.920611,45.312545,-15.433996,-54.826643,107.713765,28.916654)"><stop offset="0" style="stop-color:rgb(120,12,255);stop-opacity:1"/><stop offset="1" style="stop-color:rgb(130,11,255);stop-opacity:0"/></radialGradient>
    </defs>
</svg>
